<svg width="40" height="40" viewBox="0 0 40 40" fill="none" xmlns="http://www.w3.org/2000/svg">
<mask id="mask0_296_632" style="mask-type:alpha" maskUnits="userSpaceOnUse" x="0" y="0" width="40" height="40">
<rect width="40" height="40" fill="#D9D9D9"/>
</mask>
<g mask="url(#mask0_296_632)">
<path d="M30.0001 23.3334V18.3334H25.0001V15.0001H30.0001V10.0001H33.3334V15.0001H38.3334V18.3334H33.3334V23.3334H30.0001ZM15.0001 20.0001C13.1667 20.0001 11.5973 19.3473 10.2917 18.0417C8.98619 16.7362 8.33342 15.1667 8.33342 13.3334C8.33342 11.5001 8.98619 9.93064 10.2917 8.62508C11.5973 7.31953 13.1667 6.66675 15.0001 6.66675C16.8334 6.66675 18.4029 7.31953 19.7084 8.62508C21.014 9.93064 21.6667 11.5001 21.6667 13.3334C21.6667 15.1667 21.014 16.7362 19.7084 18.0417C18.4029 19.3473 16.8334 20.0001 15.0001 20.0001ZM1.66675 33.3334V28.6667C1.66675 27.7223 1.9098 26.8542 2.39591 26.0626C2.88203 25.2709 3.52786 24.6667 4.33341 24.2501C6.05564 23.389 7.80564 22.7431 9.58342 22.3126C11.3612 21.882 13.1667 21.6667 15.0001 21.6667C16.8334 21.6667 18.639 21.882 20.4167 22.3126C22.1945 22.7431 23.9445 23.389 25.6668 24.2501C26.4723 24.6667 27.1181 25.2709 27.6042 26.0626C28.0904 26.8542 28.3334 27.7223 28.3334 28.6667V33.3334H1.66675Z" fill="#F8F8F8"/>
</g>
</svg>
