<svg width="48" height="48" viewBox="0 0 48 48" fill="none" xmlns="http://www.w3.org/2000/svg">
<mask id="mask0_288_554" style="mask-type:alpha" maskUnits="userSpaceOnUse" x="0" y="0" width="48" height="48">
<rect width="48" height="48" fill="#D9D9D9"/>
</mask>
<g mask="url(#mask0_288_554)">
<path d="M41.2 25.5H16.15V22.5H41.2L36.75 18.05L38.9 15.9L47 24L38.9 32.1L36.75 29.95L41.2 25.5ZM29 19.5V9H9V39H29V28.5H32V39C32 39.825 31.7062 40.5313 31.1187 41.1188C30.5312 41.7063 29.825 42 29 42H9C8.175 42 7.46875 41.7063 6.88125 41.1188C6.29375 40.5313 6 39.825 6 39V9C6 8.175 6.29375 7.46875 6.88125 6.88125C7.46875 6.29375 8.175 6 9 6H29C29.825 6 30.5312 6.29375 31.1187 6.88125C31.7062 7.46875 32 8.175 32 9V19.5H29Z" fill="white"/>
</g>
</svg>
