<svg width="244" height="29" viewBox="0 0 244 29" fill="none" xmlns="http://www.w3.org/2000/svg">
<path d="M21.7495 9.79074C21.7495 11.4438 21.3621 12.9548 20.5872 14.3237C19.8382 15.6668 18.6888 16.7516 17.1391 17.5781C15.6152 18.3788 13.7426 18.7791 11.5213 18.7791H7.76326V28H0.169613V0.686116H11.5213C13.7168 0.686116 15.5765 1.07355 17.1003 1.84841C18.6501 2.62327 19.8124 3.69516 20.5872 5.06409C21.3621 6.43301 21.7495 8.00856 21.7495 9.79074ZM10.7852 12.7352C12.929 12.7352 14.0009 11.7537 14.0009 9.79074C14.0009 7.80193 12.929 6.80752 10.7852 6.80752H7.76326V12.7352H10.7852ZM36.0745 22.1885H44.5592V28H28.4808V0.686116H36.0745V22.1885ZM68.4719 23.5445H58.7861L57.3139 28H49.3328L59.2898 0.686116H68.0457L77.9639 28H69.9441L68.4719 23.5445ZM66.5735 17.7331L63.629 8.89965L60.7233 17.7331H66.5735ZM109.419 28H101.825L91.7132 12.7352V28H84.1195V0.686116H91.7132L101.825 16.1446V0.686116H109.419V28ZM137.998 0.686116V6.73004H130.714V28H123.12V6.73004H115.914V0.686116H137.998ZM148.013 0.918574V17.9655C148.013 20.6517 148.646 22.6405 149.912 23.932C151.203 25.2234 152.959 25.8691 155.181 25.8691C157.402 25.8691 159.133 25.2363 160.372 23.9707C161.638 22.6793 162.271 20.6776 162.271 17.9655V0.918574H164.983V17.9268C164.983 21.362 164.066 23.9449 162.232 25.6754C160.424 27.4059 158.061 28.2712 155.142 28.2712C152.223 28.2712 149.847 27.4059 148.013 25.6754C146.205 23.9449 145.301 21.362 145.301 17.9268V0.918574H148.013ZM177.424 0.918574V28H174.712V0.918574H177.424ZM207.664 28H204.952L189.958 5.21906V28H187.246V0.918574H189.958L204.952 23.6608V0.918574H207.664V28ZM229.653 28.2712C227.147 28.2712 224.874 27.6901 222.834 26.5278C220.793 25.3396 219.179 23.6995 217.991 21.6074C216.829 19.4894 216.247 17.1003 216.247 14.4399C216.247 11.7796 216.829 9.40331 217.991 7.31119C219.179 5.19323 220.793 3.55311 222.834 2.39081C224.874 1.20269 227.147 0.608631 229.653 0.608631C232.184 0.608631 234.47 1.20269 236.51 2.39081C238.551 3.55311 240.152 5.19323 241.314 7.31119C242.477 9.40331 243.058 11.7796 243.058 14.4399C243.058 17.1003 242.477 19.4894 241.314 21.6074C240.152 23.6995 238.551 25.3396 236.51 26.5278C234.47 27.6901 232.184 28.2712 229.653 28.2712ZM229.653 25.9079C231.667 25.9079 233.475 25.443 235.077 24.5131C236.678 23.5833 237.944 22.2531 238.873 20.5226C239.803 18.7662 240.268 16.7387 240.268 14.4399C240.268 12.1412 239.803 10.1265 238.873 8.39599C237.944 6.66547 236.678 5.33529 235.077 4.40545C233.475 3.47562 231.667 3.0107 229.653 3.0107C227.638 3.0107 225.83 3.47562 224.229 4.40545C222.627 5.33529 221.362 6.66547 220.432 8.39599C219.502 10.1265 219.037 12.1412 219.037 14.4399C219.037 16.7387 219.502 18.7662 220.432 20.5226C221.362 22.2531 222.627 23.5833 224.229 24.5131C225.83 25.443 227.638 25.9079 229.653 25.9079Z" fill="white"/>
</svg>
