<svg width="67" height="74" viewBox="0 0 67 74" fill="none" xmlns="http://www.w3.org/2000/svg">
<mask id="mask0_276_504" style="mask-type:alpha" maskUnits="userSpaceOnUse" x="0" y="0" width="65" height="64">
<rect width="65" height="64" fill="#D9D9D9"/>
</mask>
<g mask="url(#mask0_276_504)">
<path d="M101.556 114.974H54.7506C55.352 113.757 56.036 112.286 56.7481 110.583C56.8492 110.505 56.9476 110.421 57.0384 110.326C58.1433 109.168 59.383 107.551 60.8204 105.678C63.7214 101.891 67.3042 97.2233 71.2627 94.4336C83.761 94.3094 93.0209 91.1708 98.7917 85.0954C105.826 77.6863 105.591 68.0726 105.501 64.4541L105.486 63.6457C105.486 62.2291 104.369 61.0794 102.986 61.0794L102.486 61.0716C88.0355 60.7456 80.0788 65.6294 75.9244 69.7998C70.9199 74.8208 68.2654 81.7842 68.0152 90.504C65.4532 92.3876 63.1279 94.8071 61.0358 97.2804C63.9871 84.4882 64.6034 67.4405 55.4958 50.0893C55.4173 40.7283 52.7624 33.3531 47.5919 28.176C43.6923 24.2727 36.3133 19.7326 23.4072 20.0123L23.0074 20.0201C21.625 20.0201 20.5078 21.1699 20.5078 22.5864L20.4978 23.1665C20.4255 26.5722 20.2028 36.9274 27.617 44.6112C32.9147 50.0977 40.9092 52.9376 51.3815 53.0748C65.9524 81.5175 52.3708 109.068 49.0855 114.974H9.42931C5.88481 114.974 3 117.935 3 121.577V123.769C3 127.41 5.88452 130.372 9.42931 130.372H13.6177L26 147.77C26.655 148.33 31.2189 147.77 34.4611 147.77C35.5259 147.77 36.7234 146.923 37.9883 146.028C40.4875 146.028 45.7777 148.281 46.9875 147.77C51.9875 147.77 52.9165 145.258 57.0384 149.492L64.4875 151.992C65.32 153.008 70.1452 160.569 71.9875 160.492C74.4572 160.385 83.2976 165.083 84.5724 163.992L90.4875 172.992C92.4875 172.992 91.5353 172.675 94.4875 174.492L92.4875 160.992L93.2766 153.487L101.223 130.371H101.556C105.1 130.371 107.988 127.41 107.988 123.768V121.577C107.988 117.935 105.101 114.974 101.556 114.974ZM79.4194 73.4695C82.7164 70.1613 89.0209 66.3067 100.529 66.1888C100.529 69.9974 100.009 76.4592 95.2126 81.5126C91.2273 85.708 84.9998 88.2253 76.6591 89.0262C79.9452 85.8386 83.9965 82.4101 86.4074 81.4314C87.6922 80.9106 88.322 79.4195 87.8146 78.1004C87.3072 76.7813 85.8449 76.1449 84.5724 76.658C81.4653 77.9199 77.1181 81.5716 73.6366 84.912C74.564 80.2384 76.4968 76.4027 79.4194 73.4695ZM25.4821 25.1346C35.441 25.309 41.0802 28.8251 44.0998 31.8481C46.8668 34.6195 48.7422 38.2525 49.7159 42.6921C46.542 39.4044 43.1261 36.6775 39.2775 34.3401C38.0926 33.6216 36.5579 34.027 35.8555 35.2436C35.1507 36.4625 35.5455 38.0384 36.7328 38.7596C40.7431 41.1932 44.2442 44.1095 47.499 47.7434C40.3412 47.0782 34.8598 44.8205 31.1688 40.9971C26.222 35.8724 25.5372 28.9484 25.4821 25.1346ZM102.988 123.769C102.988 124.58 102.346 125.239 101.556 125.239H9.42931C8.64191 125.239 7.9995 124.58 7.9995 123.769V121.577C7.9995 120.766 8.64191 120.106 9.42931 120.106H101.556C102.346 120.106 102.988 120.766 102.988 121.577V123.769Z" fill="white"/>
</g>
<circle cx="60" cy="67" r="5" fill="#38D13E" stroke="white" stroke-width="4"/>
</svg>
