<svg width="34" height="30" viewBox="0 0 34 30" fill="none" xmlns="http://www.w3.org/2000/svg">
<path d="M32.0418 13.4167V26.6667C32.0418 27.5833 31.7154 28.3681 31.0626 29.0208C30.4098 29.6736 29.6251 30 28.7084 30H5.37511C4.45844 30 3.67372 29.6736 3.02094 29.0208C2.36816 28.3681 2.04177 27.5833 2.04177 26.6667V13.4167C1.40288 12.8333 0.909828 12.0833 0.562606 11.1667C0.215384 10.25 0.20844 9.25 0.541773 8.16667L2.29177 2.5C2.514 1.77778 2.90983 1.18056 3.47927 0.708333C4.04872 0.236111 4.70844 0 5.45844 0H28.6251C29.3751 0 30.0279 0.229167 30.5834 0.6875C31.139 1.14583 31.5418 1.75 31.7918 2.5L33.5418 8.16667C33.8751 9.25 33.8682 10.2361 33.5209 11.125C33.1737 12.0139 32.6807 12.7778 32.0418 13.4167ZM20.7084 11.6667C21.4584 11.6667 22.0279 11.4097 22.4168 10.8958C22.8057 10.3819 22.9584 9.80556 22.8751 9.16667L21.9584 3.33333H18.7084V9.5C18.7084 10.0833 18.9029 10.5903 19.2918 11.0208C19.6807 11.4514 20.1529 11.6667 20.7084 11.6667ZM13.2084 11.6667C13.8473 11.6667 14.3682 11.4514 14.7709 11.0208C15.1737 10.5903 15.3751 10.0833 15.3751 9.5V3.33333H12.1251L11.2084 9.16667C11.0973 9.83333 11.2432 10.4167 11.6459 10.9167C12.0487 11.4167 12.5696 11.6667 13.2084 11.6667ZM5.79177 11.6667C6.29177 11.6667 6.72927 11.4861 7.10427 11.125C7.47927 10.7639 7.70844 10.3056 7.79177 9.75L8.70844 3.33333H5.45844L3.79177 8.91667C3.62511 9.47222 3.71538 10.0694 4.06261 10.7083C4.40983 11.3472 4.98622 11.6667 5.79177 11.6667ZM28.2918 11.6667C29.0973 11.6667 29.6807 11.3472 30.0418 10.7083C30.4029 10.0694 30.4862 9.47222 30.2918 8.91667L28.5418 3.33333H25.3751L26.2918 9.75C26.3751 10.3056 26.6043 10.7639 26.9793 11.125C27.3543 11.4861 27.7918 11.6667 28.2918 11.6667Z" fill="white"/>
</svg>
