<svg width="331" height="75" viewBox="0 0 331 75" fill="none" xmlns="http://www.w3.org/2000/svg">
<mask id="mask0_63_3095" style="mask-type:alpha" maskUnits="userSpaceOnUse" x="0" y="0" width="65" height="64">
<rect width="65" height="64" fill="#D9D9D9"/>
</mask>
<g mask="url(#mask0_63_3095)">
<path d="M101.556 114.974H54.7506C55.352 113.757 56.036 112.286 56.7481 110.583C56.8492 110.505 56.9476 110.422 57.0384 110.326C58.1433 109.168 59.383 107.551 60.8204 105.678C63.7214 101.891 67.3043 97.2233 71.2627 94.4336C83.761 94.3094 93.0209 91.1708 98.7917 85.0954C105.826 77.6863 105.591 68.0726 105.501 64.4541L105.486 63.6457C105.486 62.2291 104.369 61.0794 102.986 61.0794L102.486 61.0716C88.0355 60.7456 80.0788 65.6294 75.9244 69.7998C70.9199 74.8208 68.2654 81.7842 68.0152 90.504C65.4532 92.3876 63.1279 94.8071 61.0358 97.2804C63.9871 84.4882 64.6034 67.4405 55.4958 50.0893C55.4173 40.7283 52.7624 33.3531 47.5919 28.176C43.6923 24.2727 36.3133 19.7326 23.4072 20.0123L23.0074 20.0201C21.625 20.0201 20.5078 21.1699 20.5078 22.5864L20.4978 23.1665C20.4255 26.5722 20.2028 36.9274 27.617 44.6112C32.9147 50.0977 40.9092 52.9376 51.3815 53.0748C65.9524 81.5175 52.3708 109.068 49.0855 114.974H9.42931C5.88481 114.974 3 117.935 3 121.577V123.769C3 127.41 5.88452 130.372 9.42931 130.372H13.6177L26 147.77C26.655 148.33 31.2189 147.77 34.4611 147.77C35.5259 147.77 36.7234 146.923 37.9883 146.028C40.4875 146.028 45.7777 148.281 46.9875 147.77C51.9875 147.77 52.9165 145.258 57.0384 149.492L64.4875 151.992C65.32 153.008 70.1452 160.569 71.9875 160.492C74.4572 160.385 83.2976 165.083 84.5724 163.992L90.4875 172.992C92.4875 172.992 91.5353 172.675 94.4875 174.492L92.4875 160.992L93.2766 153.487L101.223 130.371H101.556C105.1 130.371 107.988 127.41 107.988 123.768V121.577C107.988 117.935 105.101 114.974 101.556 114.974ZM79.4194 73.4695C82.7164 70.1613 89.0209 66.3067 100.529 66.1888C100.529 69.9974 100.009 76.4592 95.2126 81.5126C91.2273 85.708 84.9998 88.2253 76.6591 89.0262C79.9452 85.8386 83.9965 82.4101 86.4074 81.4314C87.6922 80.9106 88.322 79.4195 87.8146 78.1004C87.3072 76.7813 85.8449 76.1449 84.5724 76.658C81.4653 77.9199 77.1181 81.5716 73.6366 84.912C74.564 80.2384 76.4968 76.4027 79.4194 73.4695ZM25.4821 25.1346C35.441 25.309 41.0802 28.8251 44.0998 31.8481C46.8668 34.6195 48.7422 38.2525 49.7159 42.6921C46.542 39.4044 43.1261 36.6775 39.2775 34.3401C38.0926 33.6216 36.5579 34.027 35.8555 35.2436C35.1507 36.4625 35.5455 38.0384 36.7328 38.7596C40.7431 41.1932 44.2442 44.1095 47.499 47.7434C40.3412 47.0782 34.8598 44.8205 31.1688 40.9971C26.222 35.8724 25.5372 28.9484 25.4821 25.1346ZM102.988 123.769C102.988 124.58 102.346 125.239 101.556 125.239H9.42931C8.64191 125.239 7.9995 124.58 7.9995 123.769V121.577C7.9995 120.766 8.64191 120.106 9.42931 120.106H101.556C102.346 120.106 102.988 120.766 102.988 121.577V123.769Z" fill="white"/>
</g>
<circle cx="60" cy="67" r="5" fill="#38D13E" stroke="white" stroke-width="4"/>
<path d="M107.75 41.7907C107.75 43.4438 107.362 44.9548 106.587 46.3237C105.838 47.6668 104.689 48.7516 103.139 49.5781C101.615 50.3788 99.7426 50.7791 97.5213 50.7791H93.7633V60H86.1696V32.6861H97.5213C99.7168 32.6861 101.576 33.0735 103.1 33.8484C104.65 34.6233 105.812 35.6952 106.587 37.0641C107.362 38.433 107.75 40.0086 107.75 41.7907ZM96.7852 44.7352C98.929 44.7352 100.001 43.7537 100.001 41.7907C100.001 39.8019 98.929 38.8075 96.7852 38.8075H93.7633V44.7352H96.7852ZM122.074 54.1885H130.559V60H114.481V32.6861H122.074V54.1885ZM154.472 55.5445H144.786L143.314 60H135.333L145.29 32.6861H154.046L163.964 60H155.944L154.472 55.5445ZM152.573 49.7331L149.629 40.8997L146.723 49.7331H152.573ZM195.419 60H187.825L177.713 44.7352V60H170.12V32.6861H177.713L187.825 48.1446V32.6861H195.419V60ZM223.998 32.6861V38.73H216.714V60H209.12V38.73H201.914V32.6861H223.998ZM234.013 32.9186V49.9655C234.013 52.6517 234.646 54.6405 235.912 55.932C237.203 57.2234 238.959 57.8691 241.181 57.8691C243.402 57.8691 245.133 57.2363 246.372 55.9707C247.638 54.6793 248.271 52.6776 248.271 49.9655V32.9186H250.983V49.9268C250.983 53.362 250.066 55.9449 248.232 57.6754C246.424 59.4059 244.061 60.2712 241.142 60.2712C238.223 60.2712 235.847 59.4059 234.013 57.6754C232.205 55.9449 231.301 53.362 231.301 49.9268V32.9186H234.013ZM263.424 32.9186V60H260.712V32.9186H263.424ZM293.664 60H290.952L275.958 37.2191V60H273.246V32.9186H275.958L290.952 55.6608V32.9186H293.664V60ZM315.653 60.2712C313.147 60.2712 310.874 59.6901 308.834 58.5278C306.793 57.3396 305.179 55.6995 303.991 53.6074C302.829 51.4894 302.247 49.1003 302.247 46.4399C302.247 43.7796 302.829 41.4033 303.991 39.3112C305.179 37.1932 306.793 35.5531 308.834 34.3908C310.874 33.2027 313.147 32.6086 315.653 32.6086C318.184 32.6086 320.47 33.2027 322.51 34.3908C324.551 35.5531 326.152 37.1932 327.314 39.3112C328.477 41.4033 329.058 43.7796 329.058 46.4399C329.058 49.1003 328.477 51.4894 327.314 53.6074C326.152 55.6995 324.551 57.3396 322.51 58.5278C320.47 59.6901 318.184 60.2712 315.653 60.2712ZM315.653 57.9079C317.667 57.9079 319.475 57.443 321.077 56.5131C322.678 55.5833 323.944 54.2531 324.873 52.5226C325.803 50.7662 326.268 48.7387 326.268 46.4399C326.268 44.1412 325.803 42.1265 324.873 40.396C323.944 38.6655 322.678 37.3353 321.077 36.4055C319.475 35.4756 317.667 35.0107 315.653 35.0107C313.638 35.0107 311.83 35.4756 310.229 36.4055C308.627 37.3353 307.362 38.6655 306.432 40.396C305.502 42.1265 305.037 44.1412 305.037 46.4399C305.037 48.7387 305.502 50.7662 306.432 52.5226C307.362 54.2531 308.627 55.5833 310.229 56.5131C311.83 57.443 313.638 57.9079 315.653 57.9079Z" fill="white"/>
</svg>
