<svg width="119" height="24" viewBox="0 0 119 24" fill="none" xmlns="http://www.w3.org/2000/svg">
<path d="M10.4166 15.1137H5.22906L4.44055 17.5H0.166002L5.49881 2.87109H10.1884L15.5004 17.5H11.2051L10.4166 15.1137ZM9.39985 12.0012L7.82283 7.27014L6.26657 12.0012H9.39985ZM26.4126 5.75537C27.7545 5.75537 28.8196 6.20496 29.6081 7.10414C30.3966 7.98948 30.7909 9.19299 30.7909 10.7147V17.5H26.7239V11.2542C26.7239 10.5902 26.5509 10.0714 26.2051 9.69792C25.8593 9.31058 25.3958 9.11691 24.8148 9.11691C24.2062 9.11691 23.7289 9.31058 23.3831 9.69792C23.0372 10.0714 22.8643 10.5902 22.8643 11.2542V17.5H18.7973V5.85912H22.8643V7.51914C23.224 6.99347 23.7082 6.57155 24.3168 6.25338C24.9255 5.92137 25.6241 5.75537 26.4126 5.75537ZM34.3298 11.6692C34.3298 10.4657 34.5442 9.41433 34.973 8.51515C35.4157 7.61598 36.0106 6.9243 36.7576 6.44013C37.5184 5.95596 38.3622 5.71387 39.2891 5.71387C40.0914 5.71387 40.7831 5.87296 41.3641 6.19113C41.9451 6.5093 42.3947 6.93814 42.7129 7.47764V5.85912H46.7799V17.5H42.7129V15.8815C42.3947 16.421 41.9382 16.8498 41.3434 17.168C40.7624 17.4862 40.0776 17.6453 39.2891 17.6453C38.3622 17.6453 37.5184 17.4032 36.7576 16.919C36.0106 16.4348 35.4157 15.7431 34.973 14.844C34.5442 13.931 34.3298 12.8727 34.3298 11.6692ZM42.7129 11.6692C42.7129 10.9222 42.5054 10.3343 42.0904 9.90542C41.6892 9.47658 41.1912 9.26216 40.5964 9.26216C39.9877 9.26216 39.4828 9.47658 39.0816 9.90542C38.6804 10.3204 38.4798 10.9083 38.4798 11.6692C38.4798 12.4162 38.6804 13.011 39.0816 13.4537C39.4828 13.8825 39.9877 14.097 40.5964 14.097C41.1912 14.097 41.6892 13.8825 42.0904 13.4537C42.5054 13.0249 42.7129 12.43 42.7129 11.6692ZM55.1358 2.14483V17.5H51.0687V2.14483H55.1358ZM71.9563 5.85912L64.5692 23.0403H60.1494L62.9299 17.002L58.1574 5.85912H62.6809L65.1294 12.4577L67.495 5.85912H71.9563ZM81.8598 14.0347V17.5H80.096C77.1218 17.5 75.6347 16.0267 75.6347 13.0802V9.24141H74.203V5.85912H75.6347V3.03709H79.7225V5.85912H81.839V9.24141H79.7225V13.1425C79.7225 13.4606 79.7917 13.6889 79.93 13.8272C80.0822 13.9655 80.3312 14.0347 80.677 14.0347H81.8598ZM87.7507 4.78011C87.0314 4.78011 86.4504 4.58644 86.0077 4.19911C85.5789 3.79794 85.3645 3.29993 85.3645 2.70509C85.3645 2.09642 85.5789 1.5915 86.0077 1.19032C86.4504 0.789153 87.0314 0.588567 87.7507 0.588567C88.4563 0.588567 89.0234 0.789153 89.4523 1.19032C89.8949 1.5915 90.1163 2.09642 90.1163 2.70509C90.1163 3.29993 89.8949 3.79794 89.4523 4.19911C89.0234 4.58644 88.4563 4.78011 87.7507 4.78011ZM89.7635 5.85912V17.5H85.6965V5.85912H89.7635ZM93.3869 11.6692C93.3869 10.4657 93.6359 9.41433 94.1339 8.51515C94.6319 7.61598 95.3236 6.9243 96.2089 6.44013C97.1081 5.95596 98.1318 5.71387 99.2799 5.71387C100.76 5.71387 102.005 6.12196 103.015 6.93814C104.025 7.74048 104.675 8.86791 104.965 10.3204H100.649C100.4 9.55958 99.9163 9.17916 99.1969 9.17916C98.6851 9.17916 98.277 9.39358 97.9727 9.82242C97.6822 10.2374 97.5369 10.853 97.5369 11.6692C97.5369 12.4854 97.6822 13.1079 97.9727 13.5367C98.277 13.9655 98.6851 14.18 99.1969 14.18C99.9301 14.18 100.414 13.7995 100.649 13.0387H104.965C104.675 14.4774 104.025 15.6048 103.015 16.421C102.005 17.2372 100.76 17.6453 99.2799 17.6453C98.1318 17.6453 97.1081 17.4032 96.2089 16.919C95.3236 16.4348 94.6319 15.7431 94.1339 14.844C93.6359 13.9448 93.3869 12.8865 93.3869 11.6692ZM113.586 17.6453C112.534 17.6453 111.594 17.4723 110.764 17.1265C109.947 16.7668 109.297 16.2827 108.813 15.674C108.343 15.0515 108.08 14.3529 108.025 13.5782H111.967C112.022 13.9517 112.195 14.2422 112.486 14.4497C112.776 14.6572 113.136 14.761 113.565 14.761C113.897 14.761 114.16 14.6918 114.353 14.5535C114.547 14.4151 114.644 14.2353 114.644 14.014C114.644 13.7235 114.485 13.509 114.167 13.3707C113.848 13.2324 113.323 13.0802 112.59 12.9142C111.76 12.7482 111.068 12.5614 110.515 12.3539C109.961 12.1464 109.477 11.8075 109.062 11.3372C108.661 10.8668 108.46 10.2305 108.46 9.42816C108.46 8.73649 108.647 8.11398 109.021 7.56064C109.394 6.99347 109.94 6.54388 110.66 6.21188C111.393 5.87987 112.271 5.71387 113.295 5.71387C114.817 5.71387 116.013 6.08738 116.885 6.83439C117.756 7.58139 118.261 8.56357 118.4 9.78092H114.727C114.658 9.40741 114.492 9.12383 114.229 8.93016C113.98 8.72266 113.641 8.6189 113.212 8.6189C112.88 8.6189 112.624 8.68115 112.444 8.80566C112.278 8.93016 112.195 9.10308 112.195 9.32441C112.195 9.60108 112.354 9.8155 112.673 9.96767C112.991 10.106 113.503 10.2513 114.208 10.4034C115.052 10.5833 115.751 10.7838 116.304 11.0052C116.871 11.2265 117.362 11.5862 117.777 12.0842C118.206 12.5684 118.42 13.2324 118.42 14.0762C118.42 14.7541 118.22 15.3627 117.819 15.9022C117.431 16.4417 116.871 16.8706 116.138 17.1887C115.419 17.4931 114.568 17.6453 113.586 17.6453Z" fill="black"/>
</svg>
