<svg width="45" height="43" viewBox="0 0 45 43" fill="none" xmlns="http://www.w3.org/2000/svg">
<path d="M22.2543 34.1286C25.0256 34.1286 27.3813 33.1199 29.3212 31.1023C31.2612 29.0847 32.2311 26.6347 32.2311 23.7524C32.2311 20.8702 31.2612 18.4202 29.3212 16.4026C27.3813 14.385 25.0256 13.3762 22.2543 13.3762C19.4829 13.3762 17.1273 14.385 15.1873 16.4026C13.2474 18.4202 12.2774 20.8702 12.2774 23.7524C12.2774 26.6347 13.2474 29.0847 15.1873 31.1023C17.1273 33.1199 19.4829 34.1286 22.2543 34.1286ZM22.2543 29.517C20.7023 29.517 19.3906 28.9598 18.319 27.8453C17.2474 26.7308 16.7116 25.3665 16.7116 23.7524C16.7116 22.1384 17.2474 20.7741 18.319 19.6596C19.3906 18.5451 20.7023 17.9879 22.2543 17.9879C23.8062 17.9879 25.118 18.5451 26.1896 19.6596C27.2612 20.7741 27.797 22.1384 27.797 23.7524C27.797 25.3665 27.2612 26.7308 26.1896 27.8453C25.118 28.9598 23.8062 29.517 22.2543 29.517ZM4.51765 42.199C3.29826 42.199 2.25439 41.7475 1.38603 40.8444C0.517674 39.9413 0.0834961 38.8556 0.0834961 37.5874V9.91748C0.0834961 8.64928 0.517674 7.56362 1.38603 6.66051C2.25439 5.75739 3.29826 5.30583 4.51765 5.30583H11.5015L15.603 0.694183H28.9055L33.0071 5.30583H39.9909C41.2103 5.30583 42.2542 5.75739 43.1225 6.66051C43.9909 7.56362 44.4251 8.64928 44.4251 9.91748V37.5874C44.4251 38.8556 43.9909 39.9413 43.1225 40.8444C42.2542 41.7475 41.2103 42.199 39.9909 42.199H4.51765ZM4.51765 37.5874H39.9909V9.91748H31.0117L26.9656 5.30583H17.543L13.4968 9.91748H4.51765V37.5874Z" fill="#38D13E"/>
<path d="M37.6813 33.5484L29.2576 29.211C28.7785 29.9877 28.164 30.6852 27.4141 31.3035C26.6643 31.9218 25.8079 32.4 24.8452 32.7382C22.4602 33.5759 20.1628 33.4258 17.9529 32.2879C15.743 31.15 14.2354 29.3409 13.4299 26.8604C12.6245 24.38 12.7688 21.9906 13.8629 19.6923C14.957 17.3939 16.6965 15.8259 19.0815 14.9882C21.4665 14.1505 23.7639 14.3006 25.9738 15.4385C28.1836 16.5764 29.6913 18.3856 30.4967 20.866C30.8219 21.8673 30.9754 22.8655 30.9572 23.8605C30.9391 24.8556 30.7783 25.7868 30.4748 26.6539L38.8986 30.9913L37.6813 33.5484ZM23.9585 30.0074C25.5995 29.431 26.8004 28.3438 27.5612 26.7456C28.322 25.1474 28.4253 23.4949 27.8711 21.7882C27.3169 20.0815 26.2714 18.8325 24.7348 18.0413C23.1981 17.25 21.6092 17.1426 19.9682 17.719C18.3272 18.2954 17.1263 19.3827 16.3655 20.9808C15.6047 22.579 15.5014 24.2315 16.0556 25.9382C16.6098 27.6449 17.6552 28.8939 19.1919 29.6851C20.7286 30.4764 22.3174 30.5838 23.9585 30.0074Z" fill="#38D13E"/>
</svg>
