<svg width="100" height="16" viewBox="0 0 100 16" fill="none" xmlns="http://www.w3.org/2000/svg">
<path d="M0.664007 8.15442C0.664007 6.71574 0.961427 5.43614 1.55627 4.31563C2.16494 3.18128 3.02262 2.30286 4.12929 1.68035C5.23597 1.04401 6.50865 0.725841 7.94734 0.725841C9.77336 0.725841 11.3089 1.21693 12.5539 2.19911C13.7989 3.16745 14.6012 4.48855 14.9609 6.1624H10.5826C10.3198 5.60906 9.95319 5.18714 9.48285 4.89664C9.02635 4.60613 8.49376 4.46088 7.88509 4.46088C6.94441 4.46088 6.19048 4.7998 5.62331 5.47764C5.06997 6.14165 4.7933 7.03391 4.7933 8.15442C4.7933 9.28877 5.06997 10.1949 5.62331 10.8727C6.19048 11.5367 6.94441 11.8687 7.88509 11.8687C8.49376 11.8687 9.02635 11.7235 9.48285 11.433C9.95319 11.1425 10.3198 10.7205 10.5826 10.1672H14.9609C14.6012 11.841 13.7989 13.1691 12.5539 14.1512C11.3089 15.1196 9.77336 15.6038 7.94734 15.6038C6.50865 15.6038 5.23597 15.2925 4.12929 14.67C3.02262 14.0337 2.16494 13.1552 1.55627 12.0347C0.961427 10.9004 0.664007 9.60694 0.664007 8.15442ZM26.5149 3.75537C27.8429 3.75537 28.8943 4.20496 29.6689 5.10414C30.4574 5.98948 30.8517 7.19299 30.8517 8.71468V15.5H26.7846V9.25418C26.7846 8.59018 26.6117 8.07142 26.2659 7.69792C25.9201 7.31058 25.4566 7.11691 24.8756 7.11691C24.267 7.11691 23.7897 7.31058 23.4439 7.69792C23.098 8.07142 22.9251 8.59018 22.9251 9.25418V15.5H18.8581V0.144835H22.9251V5.51914C23.2848 4.99347 23.7689 4.57155 24.3776 4.25338C25.0001 3.92137 25.7126 3.75537 26.5149 3.75537ZM34.3906 9.66919C34.3906 8.46567 34.605 7.41433 35.0338 6.51515C35.4765 5.61598 36.0713 4.9243 36.8184 4.44013C37.5792 3.95596 38.423 3.71387 39.3499 3.71387C40.1522 3.71387 40.8439 3.87296 41.4249 4.19113C42.0059 4.5093 42.4555 4.93814 42.7737 5.47764V3.85912H46.8407V15.5H42.7737V13.8815C42.4555 14.421 41.999 14.8498 41.4042 15.168C40.8231 15.4862 40.1384 15.6453 39.3499 15.6453C38.423 15.6453 37.5792 15.4032 36.8184 14.919C36.0713 14.4348 35.4765 13.7431 35.0338 12.844C34.605 11.931 34.3906 10.8727 34.3906 9.66919ZM42.7737 9.66919C42.7737 8.92218 42.5662 8.33426 42.1512 7.90542C41.75 7.47658 41.252 7.26216 40.6571 7.26216C40.0485 7.26216 39.5435 7.47658 39.1424 7.90542C38.7412 8.32042 38.5406 8.90835 38.5406 9.66919C38.5406 10.4162 38.7412 11.011 39.1424 11.4537C39.5435 11.8825 40.0485 12.097 40.6571 12.097C41.252 12.097 41.75 11.8825 42.1512 11.4537C42.5662 11.0249 42.7737 10.43 42.7737 9.66919ZM57.9978 12.0347V15.5H56.2341C53.2599 15.5 51.7728 14.0267 51.7728 11.0802V7.24141H50.341V3.85912H51.7728V1.03709H55.8606V3.85912H57.9771V7.24141H55.8606V11.1425C55.8606 11.4606 55.9297 11.6889 56.0681 11.8272C56.2202 11.9655 56.4692 12.0347 56.8151 12.0347H57.9978ZM71.1721 7.98842C72.0298 8.18209 72.7076 8.61093 73.2057 9.27493C73.7175 9.92511 73.9734 10.6721 73.9734 11.516C73.9734 12.761 73.5446 13.7362 72.6869 14.4417C71.8292 15.1472 70.6257 15.5 69.0764 15.5H61.8345V0.871092H68.8481C70.3421 0.871092 71.511 1.2031 72.3549 1.8671C73.2126 2.53111 73.6414 3.46487 73.6414 4.66838C73.6414 5.52606 73.4132 6.2454 72.9566 6.82641C72.514 7.39358 71.9191 7.78092 71.1721 7.98842ZM65.9016 6.68115H67.9558C68.9795 6.68115 69.4914 6.25923 69.4914 5.41539C69.4914 4.54388 68.9795 4.10813 67.9558 4.10813H65.9016V6.68115ZM68.2671 12.2215C69.2908 12.2215 69.8026 11.7926 69.8026 10.935C69.8026 10.4923 69.6643 10.1534 69.3876 9.91819C69.1248 9.68302 68.7444 9.56544 68.2463 9.56544H65.9016V12.2215H68.2671ZM83.1429 15.6453C81.9809 15.6453 80.9365 15.4032 80.0096 14.919C79.0966 14.4348 78.3773 13.7431 77.8516 12.844C77.3259 11.9448 77.0631 10.8865 77.0631 9.66919C77.0631 8.46567 77.3259 7.41433 77.8516 6.51515C78.3911 5.61598 79.1174 4.9243 80.0304 4.44013C80.9572 3.95596 82.0016 3.71387 83.1637 3.71387C84.3257 3.71387 85.3632 3.95596 86.2762 4.44013C87.203 4.9243 87.9293 5.61598 88.455 6.51515C88.9945 7.41433 89.2642 8.46567 89.2642 9.66919C89.2642 10.8727 88.9945 11.931 88.455 12.844C87.9293 13.7431 87.203 14.4348 86.2762 14.919C85.3493 15.4032 84.3049 15.6453 83.1429 15.6453ZM83.1429 12.1177C83.7101 12.1177 84.1804 11.9102 84.5539 11.4952C84.9413 11.0664 85.1349 10.4577 85.1349 9.66919C85.1349 8.88068 84.9413 8.27892 84.5539 7.86392C84.1804 7.44891 83.717 7.24141 83.1637 7.24141C82.6103 7.24141 82.1469 7.44891 81.7734 7.86392C81.3999 8.27892 81.2131 8.88068 81.2131 9.66919C81.2131 10.4715 81.393 11.0802 81.7526 11.4952C82.1123 11.9102 82.5757 12.1177 83.1429 12.1177ZM99.7585 12.0347V15.5H97.9947C95.0205 15.5 93.5334 14.0267 93.5334 11.0802V7.24141H92.1016V3.85912H93.5334V1.03709H97.6212V3.85912H99.7377V7.24141H97.6212V11.1425C97.6212 11.4606 97.6904 11.6889 97.8287 11.8272C97.9809 11.9655 98.2299 12.0347 98.5757 12.0347H99.7585Z" fill="black"/>
</svg>
