<svg width="178" height="52" viewBox="0 0 178 52" fill="none" xmlns="http://www.w3.org/2000/svg">
<mask id="mask0_56_181" style="mask-type:alpha" maskUnits="userSpaceOnUse" x="0" y="0" width="35" height="35">
<rect x="0.0107422" y="0.473755" width="34.813" height="34.2774" fill="#D9D9D9"/>
</mask>
<g mask="url(#mask0_56_181)">
<path d="M54.4026 62.0519H29.3344C29.6565 61.4004 30.0228 60.6124 30.4042 59.7006C30.4584 59.6588 30.5111 59.6139 30.5597 59.5625C31.1515 58.9425 31.8155 58.0766 32.5853 57.0733C34.139 55.0452 36.058 52.5451 38.178 51.051C44.8719 50.9845 49.8314 49.3035 52.9222 46.0496C56.6896 42.0814 56.5638 36.9325 56.5154 34.9944L56.5074 34.5614C56.5074 33.8028 55.9091 33.187 55.1687 33.187L54.9009 33.1828C47.1613 33.0082 42.8998 35.6239 40.6748 37.8575C37.9945 40.5467 36.5727 44.2762 36.4387 48.9464C35.0666 49.9552 33.8212 51.2511 32.7006 52.5757C34.2813 45.7244 34.6114 36.5939 29.7335 27.3008C29.6915 22.2872 28.2696 18.3372 25.5003 15.5645C23.4118 13.4739 19.4597 11.0423 12.5474 11.1921L12.3332 11.1963C11.5928 11.1963 10.9945 11.8121 10.9945 12.5707L10.9891 12.8814C10.9504 14.7054 10.8311 20.2516 14.802 24.3669C17.6394 27.3054 21.9211 28.8264 27.53 28.8998C35.3339 44.1333 28.0598 58.8887 26.3003 62.0521H5.061C3.16262 62.0521 1.61755 63.6382 1.61755 65.5886V66.7624C1.61755 68.7128 3.16246 70.2989 5.061 70.2989H7.30422L13.936 79.6173C14.2868 79.9169 16.7312 79.6173 18.4676 79.6173C19.0379 79.6173 19.6793 79.1637 20.3568 78.684C21.6953 78.684 24.5286 79.8908 25.1766 79.6173C27.8545 79.6173 28.3521 78.2716 30.5597 80.5396L34.5493 81.8785C34.9952 82.4228 37.5795 86.4722 38.5662 86.431C39.889 86.3733 44.6237 88.8898 45.3065 88.3055L48.4745 93.1258C49.5457 93.1258 49.0357 92.9561 50.6169 93.9292L49.5457 86.6988L49.9684 82.6792L54.2245 70.2988H54.4026C56.301 70.2988 57.8473 68.7127 57.8473 66.7622V65.5885C57.8475 63.638 56.3011 62.0519 54.4026 62.0519ZM42.5466 39.823C44.3125 38.0511 47.6891 35.9866 53.8528 35.9235C53.8528 37.9633 53.5744 41.4242 51.0053 44.1307C48.8708 46.3777 45.5354 47.7259 41.0683 48.1549C42.8283 46.4476 44.9981 44.6114 46.2893 44.0872C46.9774 43.8083 47.3147 43.0097 47.043 42.3032C46.7713 41.5967 45.9881 41.2559 45.3065 41.5307C43.6424 42.2065 41.3141 44.1623 39.4495 45.9514C39.9462 43.4483 40.9813 41.3939 42.5466 39.823ZM13.6586 13.9355C18.9924 14.0289 22.0128 15.9121 23.63 17.5312C25.112 19.0155 26.1164 20.9613 26.6379 23.339C24.938 21.5782 23.1085 20.1177 21.0472 18.8658C20.4126 18.481 19.5907 18.6982 19.2144 19.3497C18.837 20.0025 19.0485 20.8466 19.6843 21.2328C21.8322 22.5363 23.7073 24.0982 25.4506 26.0445C21.6169 25.6882 18.6812 24.479 16.7043 22.4312C14.0549 19.6865 13.6881 15.9781 13.6586 13.9355ZM55.1698 66.7624C55.1698 67.1968 54.8257 67.55 54.4026 67.55H5.061C4.63927 67.55 4.29521 67.1968 4.29521 66.7624V65.5886C4.29521 65.1542 4.63927 64.801 5.061 64.801H54.4026C54.8257 64.801 55.1698 65.1542 55.1698 65.5886V66.7624Z" fill="black"/>
</g>
<circle cx="32.1458" cy="36.358" r="2.67793" fill="black" stroke="black" stroke-width="2.14234"/>
<path d="M57.7199 22.7736C57.7199 23.659 57.5124 24.4682 57.0974 25.2014C56.6962 25.9208 56.0806 26.5018 55.2506 26.9444C54.4344 27.3733 53.4315 27.5877 52.2418 27.5877H50.2291V32.5262H46.162V17.8973H52.2418C53.4177 17.8973 54.4137 18.1048 55.2299 18.5198C56.0599 18.9348 56.6824 19.5089 57.0974 20.2421C57.5124 20.9753 57.7199 21.8191 57.7199 22.7736ZM51.8476 24.3507C52.9958 24.3507 53.5698 23.825 53.5698 22.7736C53.5698 21.7085 52.9958 21.1759 51.8476 21.1759H50.2291V24.3507H51.8476ZM65.3921 29.4137H69.9364V32.5262H61.3251V17.8973H65.3921V29.4137ZM82.7437 30.14H77.5561L76.7676 32.5262H72.4931L77.8259 17.8973H82.5154L87.8275 32.5262H83.5322L82.7437 30.14ZM81.7269 27.0274L80.1499 22.2964L78.5936 27.0274H81.7269ZM104.674 32.5262H100.607L95.1914 24.3507V32.5262H91.1243V17.8973H95.1914L100.607 26.1767V17.8973H104.674V32.5262ZM119.981 17.8973V21.1344H116.08V32.5262H112.013V21.1344H108.153V17.8973H119.981ZM125.345 18.0218V27.1519C125.345 28.5906 125.684 29.6558 126.362 30.3475C127.053 31.0391 127.994 31.385 129.184 31.385C130.373 31.385 131.3 31.0461 131.964 30.3682C132.642 29.6765 132.981 28.6045 132.981 27.1519V18.0218H134.433V27.1312C134.433 28.971 133.942 30.3544 132.96 31.2812C131.992 32.2081 130.726 32.6715 129.163 32.6715C127.6 32.6715 126.327 32.2081 125.345 31.2812C124.377 30.3544 123.892 28.971 123.892 27.1312V18.0218H125.345ZM141.097 18.0218V32.5262H139.645V18.0218H141.097ZM157.293 32.5262H155.84L147.81 20.3251V32.5262H146.358V18.0218H147.81L155.84 30.2022V18.0218H157.293V32.5262ZM169.07 32.6715C167.728 32.6715 166.51 32.3602 165.418 31.7377C164.325 31.1014 163.46 30.223 162.824 29.1025C162.201 27.9681 161.89 26.6885 161.89 25.2637C161.89 23.8388 162.201 22.5661 162.824 21.4456C163.46 20.3113 164.325 19.4329 165.418 18.8103C166.51 18.174 167.728 17.8558 169.07 17.8558C170.425 17.8558 171.65 18.174 172.742 18.8103C173.835 19.4329 174.693 20.3113 175.315 21.4456C175.938 22.5661 176.249 23.8388 176.249 25.2637C176.249 26.6885 175.938 27.9681 175.315 29.1025C174.693 30.223 173.835 31.1014 172.742 31.7377C171.65 32.3602 170.425 32.6715 169.07 32.6715ZM169.07 31.4057C170.149 31.4057 171.117 31.1567 171.975 30.6587C172.832 30.1607 173.51 29.4483 174.008 28.5215C174.506 27.5808 174.755 26.4948 174.755 25.2637C174.755 24.0325 174.506 22.9535 174.008 22.0266C173.51 21.0998 172.832 20.3874 171.975 19.8894C171.117 19.3914 170.149 19.1424 169.07 19.1424C167.991 19.1424 167.022 19.3914 166.165 19.8894C165.307 20.3874 164.629 21.0998 164.131 22.0266C163.633 22.9535 163.384 24.0325 163.384 25.2637C163.384 26.4948 163.633 27.5808 164.131 28.5215C164.629 29.4483 165.307 30.1607 166.165 30.6587C167.022 31.1567 167.991 31.4057 169.07 31.4057Z" fill="black"/>
</svg>
