<svg width="68" height="16" viewBox="0 0 68 16" fill="none" xmlns="http://www.w3.org/2000/svg">
<path d="M13.2554 0.871092V15.5H9.18836V9.62769H4.22906V15.5H0.162013V0.871092H4.22906V6.3699H9.18836V0.871092H13.2554ZM22.9699 15.6453C21.8079 15.6453 20.7635 15.4032 19.8366 14.919C18.9236 14.4348 18.2043 13.7431 17.6786 12.844C17.1529 11.9448 16.8901 10.8865 16.8901 9.66919C16.8901 8.46567 17.1529 7.41433 17.6786 6.51515C18.2181 5.61598 18.9444 4.9243 19.8574 4.44013C20.7842 3.95596 21.8287 3.71387 22.9907 3.71387C24.1527 3.71387 25.1902 3.95596 26.1032 4.44013C27.03 4.9243 27.7563 5.61598 28.282 6.51515C28.8215 7.41433 29.0912 8.46567 29.0912 9.66919C29.0912 10.8727 28.8215 11.931 28.282 12.844C27.7563 13.7431 27.03 14.4348 26.1032 14.919C25.1764 15.4032 24.1319 15.6453 22.9699 15.6453ZM22.9699 12.1177C23.5371 12.1177 24.0074 11.9102 24.3809 11.4952C24.7683 11.0664 24.9619 10.4577 24.9619 9.66919C24.9619 8.88068 24.7683 8.27892 24.3809 7.86392C24.0074 7.44891 23.544 7.24141 22.9907 7.24141C22.4373 7.24141 21.9739 7.44891 21.6004 7.86392C21.2269 8.27892 21.0401 8.88068 21.0401 9.66919C21.0401 10.4715 21.22 11.0802 21.5796 11.4952C21.9393 11.9102 22.4027 12.1177 22.9699 12.1177ZM47.9271 3.75537C49.3934 3.75537 50.5416 4.19804 51.3716 5.08339C52.2155 5.96873 52.6374 7.17916 52.6374 8.71468V15.5H48.5703V9.25418C48.5703 8.63168 48.3974 8.1475 48.0516 7.80167C47.7057 7.45583 47.2354 7.28291 46.6406 7.28291C46.0457 7.28291 45.5754 7.45583 45.2296 7.80167C44.8837 8.1475 44.7108 8.63168 44.7108 9.25418V15.5H40.6438V9.25418C40.6438 8.63168 40.4708 8.1475 40.125 7.80167C39.793 7.45583 39.3296 7.28291 38.7347 7.28291C38.1261 7.28291 37.6488 7.45583 37.303 7.80167C36.9571 8.1475 36.7842 8.63168 36.7842 9.25418V15.5H32.7172V3.85912H36.7842V5.39464C37.1439 4.89664 37.6073 4.50238 38.1745 4.21188C38.7555 3.90754 39.4195 3.75537 40.1665 3.75537C41.0242 3.75537 41.785 3.94212 42.449 4.31563C43.1269 4.68913 43.6595 5.21481 44.0468 5.89265C44.4618 5.25631 45.0082 4.74447 45.6861 4.35713C46.3639 3.95596 47.1109 3.75537 47.9271 3.75537ZM67.959 9.54469C67.959 9.86286 67.9382 10.181 67.8967 10.4992H60.1984C60.2399 11.1355 60.4128 11.6128 60.7172 11.931C61.0353 12.2353 61.4365 12.3875 61.9207 12.3875C62.5985 12.3875 63.0827 12.0831 63.3732 11.4745H67.71C67.5302 12.2768 67.1774 12.9961 66.6517 13.6325C66.1399 14.255 65.4897 14.7461 64.7012 15.1057C63.9127 15.4654 63.0412 15.6453 62.0867 15.6453C60.9385 15.6453 59.9148 15.4032 59.0156 14.919C58.1303 14.4348 57.4317 13.7431 56.9199 12.844C56.4219 11.9448 56.1729 10.8865 56.1729 9.66919C56.1729 8.45184 56.4219 7.4005 56.9199 6.51515C57.4179 5.61598 58.1096 4.9243 58.9949 4.44013C59.8941 3.95596 60.9247 3.71387 62.0867 3.71387C63.2349 3.71387 64.2516 3.94904 65.137 4.41938C66.0223 4.88972 66.714 5.56756 67.212 6.4529C67.71 7.32441 67.959 8.35501 67.959 9.54469ZM63.8089 8.52792C63.8089 8.02992 63.6429 7.64258 63.3109 7.36591C62.9789 7.07541 62.5639 6.93016 62.0659 6.93016C61.5679 6.93016 61.1598 7.06849 60.8417 7.34516C60.5235 7.608 60.316 8.00225 60.2192 8.52792H63.8089Z" fill="black"/>
</svg>
