<svg width="60" height="60" viewBox="0 0 60 60" fill="none" xmlns="http://www.w3.org/2000/svg">
<mask id="mask0_63_340" style="mask-type:alpha" maskUnits="userSpaceOnUse" x="0" y="0" width="60" height="60">
<rect width="60" height="60" fill="#D9D9D9"/>
</mask>
<g mask="url(#mask0_63_340)">
<path d="M11.25 52.5C10.2083 52.5 9.32292 52.1354 8.59375 51.4062C7.86458 50.6771 7.5 49.7917 7.5 48.75V44L17.5 35.125V52.5H11.25ZM20 52.5V42.5H40V52.5H20ZM42.5 52.5V32L31.8125 22.5L39.375 15.8125L51.25 26.375C51.6667 26.75 51.9792 27.1771 52.1875 27.6562C52.3958 28.1354 52.5 28.6458 52.5 29.1875V48.75C52.5 49.7917 52.1354 50.6771 51.4062 51.4062C50.6771 52.1354 49.7917 52.5 48.75 52.5H42.5ZM7.5 40.625V29.1875C7.5 28.6458 7.60417 28.125 7.8125 27.625C8.02083 27.125 8.33333 26.7083 8.75 26.375L27.5 9.75C27.8333 9.41667 28.2188 9.17708 28.6563 9.03125C29.0938 8.88542 29.5417 8.8125 30 8.8125C30.4583 8.8125 30.9063 8.88542 31.3438 9.03125C31.7812 9.17708 32.1667 9.41667 32.5 9.75L37.5 14.1875L7.5 40.625Z" fill="#666666"/>
</g>
<mask id="mask1_63_340" style="mask-type:alpha" maskUnits="userSpaceOnUse" x="22" y="25" width="17" height="17">
<rect x="22.6219" y="25" width="16" height="16" transform="rotate(2.22772 22.6219 25)" fill="#D9D9D9"/>
</mask>
<g mask="url(#mask1_63_340)">
<path d="M29.7661 40.7991C28.9667 40.768 28.2186 40.6138 27.5217 40.3365C26.8248 40.0592 26.1926 39.6808 25.6251 39.2012L24.3802 40.3322C24.2171 40.4831 24.0142 40.5539 23.7715 40.5444C23.5288 40.535 23.332 40.4487 23.1811 40.2856C23.0302 40.1225 22.9595 39.9195 22.9689 39.6769C22.9783 39.4342 23.0646 39.2374 23.2278 39.0865L24.4513 37.9546C24.0172 37.3516 23.6892 36.6883 23.4671 35.9649C23.2451 35.2414 23.1496 34.48 23.1807 33.6806C23.2551 31.7677 23.9819 30.1734 25.3612 28.8974C26.7404 27.6215 28.3864 27.0207 30.2992 27.0952L37.1512 27.3617L36.8846 34.2137C36.8102 36.1265 36.0834 37.7209 34.7042 38.9968C33.325 40.2727 31.679 40.8735 29.7661 40.7991ZM29.8328 39.0861C31.2603 39.1416 32.4931 38.6892 33.5312 37.7288C34.5693 36.7685 35.1161 35.5745 35.1717 34.147L35.3716 29.0081L30.2326 28.8081C28.8051 28.7526 27.5723 29.205 26.5342 30.1654C25.4961 31.1258 24.9492 32.3197 24.8937 33.7472C24.8721 34.3039 24.937 34.839 25.0886 35.3524C25.2402 35.8659 25.4578 36.3354 25.7415 36.761L30.3463 32.5011C30.5094 32.3502 30.7123 32.2794 30.955 32.2889C31.1977 32.2983 31.3944 32.3846 31.5454 32.5477C31.71 32.7257 31.7877 32.9324 31.7786 33.168C31.7694 33.4035 31.6758 33.6036 31.4979 33.7682L26.8931 38.0282C27.2954 38.344 27.7468 38.5939 28.2471 38.7778C28.7475 38.9617 29.2761 39.0644 29.8328 39.0861Z" fill="#666666"/>
</g>
</svg>
