<svg width="221" height="51" viewBox="0 0 221 51" fill="none" xmlns="http://www.w3.org/2000/svg">
<mask id="mask0_114_394" style="mask-type:alpha" maskUnits="userSpaceOnUse" x="0" y="0" width="44" height="43">
<rect width="43.3333" height="42.6667" fill="#D9D9D9"/>
</mask>
<g mask="url(#mask0_114_394)">
<path d="M67.7039 76.649H36.5004C36.9013 75.838 37.3573 74.8572 37.8321 73.7222C37.8994 73.6703 37.9651 73.6143 38.0256 73.5504C38.7622 72.7786 39.5887 71.7008 40.547 70.4519C42.4809 67.9274 44.8695 64.8155 47.5084 62.9557C55.8407 62.8729 62.0139 60.7805 65.8611 56.7303C70.5506 51.7908 70.394 45.3817 70.3339 42.9694L70.3239 42.4304C70.3239 41.4861 69.5791 40.7196 68.6575 40.7196L68.3241 40.7144C58.6903 40.497 53.3859 43.7529 50.6163 46.5332C47.28 49.8805 45.5102 54.5228 45.3435 60.336C43.6355 61.5917 42.0853 63.2047 40.6905 64.8536C42.6581 56.3255 43.0689 44.9603 36.9972 33.3928C36.9449 27.1522 35.175 22.2354 31.7279 18.784C29.1282 16.1818 24.2089 13.1551 15.6048 13.3415L15.3383 13.3467C14.4167 13.3467 13.6719 14.1132 13.6719 15.0576L13.6652 15.4443C13.617 17.7148 13.4686 24.6183 18.4113 29.7408C21.9431 33.3984 27.2728 35.2917 34.2544 35.3832C43.9682 54.345 34.9139 72.7117 32.7237 76.6492H6.28621C3.92321 76.6492 2 78.6235 2 81.0513V82.5124C2 84.9402 3.92301 86.9145 6.28621 86.9145H9.07845L17.3333 98.5135C17.77 98.8864 20.8126 98.5135 22.9741 98.5135C23.6839 98.5135 24.4823 97.9489 25.3255 97.3518C26.9917 97.3518 30.5184 98.8539 31.325 98.5135C34.6583 98.5135 35.2777 96.8384 38.0256 99.6614L42.9917 101.328C43.5467 102.006 46.7635 107.046 47.9917 106.995C49.6381 106.923 55.5317 110.055 56.3816 109.328L60.325 115.328C61.6583 115.328 61.0235 115.117 62.9917 116.328L61.6583 107.328L62.1844 102.325L67.4822 86.9143H67.7039C70.0669 86.9143 71.9917 84.94 71.9917 82.5122V81.0511C71.9919 78.6233 70.0671 76.649 67.7039 76.649ZM52.9463 48.9797C55.1442 46.7742 59.3473 44.2044 67.0196 44.1258C67.0196 46.6649 66.673 50.9728 63.4751 54.3417C60.8182 57.1387 56.6665 58.8168 51.1061 59.3508C53.2968 57.2257 55.9977 54.94 57.6049 54.2876C58.4614 53.9403 58.8813 52.9463 58.5431 52.0669C58.2048 51.1875 57.2299 50.7633 56.3816 51.1053C54.3102 51.9466 51.4121 54.381 49.0911 56.608C49.7094 53.4922 50.9979 50.9351 52.9463 48.9797ZM16.9881 16.7564C23.6273 16.8727 27.3868 19.2167 29.3999 21.2321C31.2446 23.0797 32.4948 25.5017 33.1439 28.4614C31.028 26.2696 28.7507 24.4517 26.185 22.8934C25.3951 22.4144 24.3719 22.6847 23.9036 23.4957C23.4338 24.3083 23.697 25.3589 24.4885 25.8397C27.162 27.4621 29.4961 29.4063 31.666 31.8289C26.8941 31.3854 23.2399 29.8803 20.7792 27.3314C17.4814 23.9149 17.0248 19.2989 16.9881 16.7564ZM68.6589 82.5124C68.6589 83.0531 68.2306 83.4928 67.7039 83.4928H6.28621C5.76127 83.4928 5.333 83.0531 5.333 82.5124V81.0513C5.333 80.5106 5.76127 80.0709 6.28621 80.0709H67.7039C68.2306 80.0709 68.6589 80.5106 68.6589 81.0513V82.5124Z" fill="white"/>
</g>
<circle cx="40" cy="44.6667" r="3.33333" fill="#38D13E" stroke="white" stroke-width="2.66667"/>
<path d="M71.833 28.1938C71.833 29.2958 71.5747 30.3032 71.0582 31.2158C70.5588 32.1112 69.7925 32.8344 68.7594 33.3854C67.7435 33.9192 66.4951 34.1861 65.0142 34.1861H62.5088V40.3333H57.4464V22.1241H65.0142C66.4779 22.1241 67.7176 22.3823 68.7336 22.8989C69.7667 23.4155 70.5416 24.1301 71.0582 25.0427C71.5747 25.9553 71.833 27.0057 71.833 28.1938ZM64.5235 30.1568C65.9527 30.1568 66.6673 29.5025 66.6673 28.1938C66.6673 26.8679 65.9527 26.205 64.5235 26.205H62.5088V30.1568H64.5235ZM81.383 36.459H87.0395V40.3333H76.3206V22.1241H81.383V36.459ZM102.981 37.363H96.5241L95.5426 40.3333H90.2219L96.8598 22.1241H102.697L109.309 40.3333H103.963L102.981 37.363ZM101.716 33.4887L99.7527 27.5997L97.8155 33.4887H101.716ZM130.279 40.3333H125.217L118.475 30.1568V40.3333H113.413V22.1241H118.475L125.217 32.4297V22.1241H130.279V40.3333ZM149.332 22.1241V26.1533H144.476V40.3333H139.413V26.1533H134.609V22.1241H149.332ZM156.009 22.279V33.6437C156.009 35.4345 156.431 36.7603 157.274 37.6213C158.135 38.4823 159.306 38.9127 160.787 38.9127C162.268 38.9127 163.422 38.4909 164.248 37.6471C165.092 36.7862 165.514 35.4517 165.514 33.6437V22.279H167.322V33.6178C167.322 35.908 166.711 37.6299 165.488 38.7836C164.283 39.9373 162.707 40.5141 160.761 40.5141C158.816 40.5141 157.231 39.9373 156.009 38.7836C154.804 37.6299 154.201 35.908 154.201 33.6178V22.279H156.009ZM175.616 22.279V40.3333H173.808V22.279H175.616ZM195.776 40.3333H193.968L183.972 25.146V40.3333H182.164V22.279H183.972L193.968 37.4405V22.279H195.776V40.3333ZM210.435 40.5141C208.765 40.5141 207.249 40.1267 205.889 39.3518C204.529 38.5597 203.453 37.4663 202.661 36.0716C201.886 34.6596 201.498 33.0668 201.498 31.2933C201.498 29.5197 201.886 27.9355 202.661 26.5408C203.453 25.1288 204.529 24.0354 205.889 23.2605C207.249 22.4684 208.765 22.0724 210.435 22.0724C212.123 22.0724 213.646 22.4684 215.007 23.2605C216.367 24.0354 217.435 25.1288 218.209 26.5408C218.984 27.9355 219.372 29.5197 219.372 31.2933C219.372 33.0668 218.984 34.6596 218.209 36.0716C217.435 37.4663 216.367 38.5597 215.007 39.3518C213.646 40.1267 212.123 40.5141 210.435 40.5141ZM210.435 38.9386C211.778 38.9386 212.983 38.6286 214.051 38.0087C215.119 37.3888 215.962 36.5021 216.582 35.3484C217.202 34.1775 217.512 32.8258 217.512 31.2933C217.512 29.7608 217.202 28.4177 216.582 27.264C215.962 26.1103 215.119 25.2235 214.051 24.6036C212.983 23.9837 211.778 23.6738 210.435 23.6738C209.092 23.6738 207.887 23.9837 206.819 24.6036C205.751 25.2235 204.908 26.1103 204.288 27.264C203.668 28.4177 203.358 29.7608 203.358 31.2933C203.358 32.8258 203.668 34.1775 204.288 35.3484C204.908 36.5021 205.751 37.3888 206.819 38.0087C207.887 38.6286 209.092 38.9386 210.435 38.9386Z" fill="white"/>
</svg>
