<svg width="86" height="16" viewBox="0 0 86 16" fill="none" xmlns="http://www.w3.org/2000/svg">
<path d="M17.2394 0.871092V15.5H13.1724V7.42816L10.4126 15.5H7.00959L4.22906 7.36591V15.5H0.162013V0.871092H5.07982L8.75261 10.3747L12.3424 0.871092H17.2394ZM20.8618 9.66919C20.8618 8.46567 21.0762 7.41433 21.5051 6.51515C21.9477 5.61598 22.5426 4.9243 23.2896 4.44013C24.0504 3.95596 24.8943 3.71387 25.8211 3.71387C26.6235 3.71387 27.3151 3.87296 27.8961 4.19113C28.4772 4.5093 28.9267 4.93814 29.2449 5.47764V3.85912H33.312V15.5H29.2449V13.8815C28.9267 14.421 28.4702 14.8498 27.8754 15.168C27.2944 15.4862 26.6096 15.6453 25.8211 15.6453C24.8943 15.6453 24.0504 15.4032 23.2896 14.919C22.5426 14.4348 21.9477 13.7431 21.5051 12.844C21.0762 11.931 20.8618 10.8727 20.8618 9.66919ZM29.2449 9.66919C29.2449 8.92218 29.0374 8.33426 28.6224 7.90542C28.2212 7.47658 27.7232 7.26216 27.1284 7.26216C26.5197 7.26216 26.0148 7.47658 25.6136 7.90542C25.2124 8.32042 25.0119 8.90835 25.0119 9.66919C25.0119 10.4162 25.2124 11.011 25.6136 11.4537C26.0148 11.8825 26.5197 12.097 27.1284 12.097C27.7232 12.097 28.2212 11.8825 28.6224 11.4537C29.0374 11.0249 29.2449 10.43 29.2449 9.66919ZM41.6678 5.9134C42.1243 5.24939 42.6777 4.72372 43.3278 4.33638C43.978 3.94904 44.6766 3.75537 45.4236 3.75537V8.09217H44.2823C43.397 8.09217 42.7399 8.26509 42.3111 8.61093C41.8822 8.95676 41.6678 9.55852 41.6678 10.4162V15.5H37.6008V3.85912H41.6678V5.9134ZM56.1362 15.5L52.9199 10.7274V15.5H48.8529V0.144835H52.9199V8.42417L56.1362 3.85912H61.0125L56.4267 9.71069L61.0955 15.5H56.1362ZM75.3812 9.54469C75.3812 9.86286 75.3605 10.181 75.319 10.4992H67.6207C67.6622 11.1355 67.8351 11.6128 68.1394 11.931C68.4576 12.2353 68.8588 12.3875 69.3429 12.3875C70.0208 12.3875 70.5049 12.0831 70.7954 11.4745H75.1322C74.9524 12.2768 74.5997 12.9961 74.074 13.6325C73.5621 14.255 72.912 14.7461 72.1235 15.1057C71.335 15.4654 70.4634 15.6453 69.5089 15.6453C68.3608 15.6453 67.3371 15.4032 66.4379 14.919C65.5526 14.4348 64.854 13.7431 64.3421 12.844C63.8441 11.9448 63.5951 10.8865 63.5951 9.66919C63.5951 8.45184 63.8441 7.4005 64.3421 6.51515C64.8401 5.61598 65.5318 4.9243 66.4172 4.44013C67.3163 3.95596 68.3469 3.71387 69.5089 3.71387C70.6571 3.71387 71.6739 3.94904 72.5592 4.41938C73.4446 4.88972 74.1362 5.56756 74.6342 6.4529C75.1322 7.32441 75.3812 8.35501 75.3812 9.54469ZM71.2312 8.52792C71.2312 8.02992 71.0652 7.64258 70.7332 7.36591C70.4012 7.07541 69.9862 6.93016 69.4882 6.93016C68.9902 6.93016 68.5821 7.06849 68.2639 7.34516C67.9458 7.608 67.7382 8.00225 67.6414 8.52792H71.2312ZM85.8852 12.0347V15.5H84.1215C81.1473 15.5 79.6602 14.0267 79.6602 11.0802V7.24141H78.2284V3.85912H79.6602V1.03709H83.748V3.85912H85.8645V7.24141H83.748V11.1425C83.748 11.4606 83.8171 11.6889 83.9555 11.8272C84.1076 11.9655 84.3566 12.0347 84.7025 12.0347H85.8852Z" fill="black"/>
</svg>
