<svg width="124" height="24" viewBox="0 0 124 24" fill="none" xmlns="http://www.w3.org/2000/svg">
<path d="M17.2394 2.87109V17.5H13.1724V9.42816L10.4126 17.5H7.00959L4.22906 9.36591V17.5H0.162013V2.87109H5.07982L8.75261 12.3747L12.3424 2.87109H17.2394ZM34.059 5.85912L26.6719 23.0403H22.2521L25.0326 17.002L20.2601 5.85912H24.7836L27.2321 12.4577L29.5977 5.85912H34.059ZM47.1042 7.47764C47.4224 6.93814 47.872 6.5093 48.453 6.19113C49.034 5.87296 49.7187 5.71387 50.5072 5.71387C51.4341 5.71387 52.271 5.95596 53.018 6.44013C53.7789 6.9243 54.3737 7.61598 54.8025 8.51515C55.2452 9.41433 55.4665 10.4657 55.4665 11.6692C55.4665 12.8727 55.2452 13.931 54.8025 14.844C54.3737 15.7431 53.7789 16.4348 53.018 16.919C52.271 17.4032 51.4341 17.6453 50.5072 17.6453C49.7187 17.6453 49.034 17.4862 48.453 17.168C47.8858 16.8498 47.4362 16.421 47.1042 15.8815V23.0611H43.0372V5.85912H47.1042V7.47764ZM51.3373 11.6692C51.3373 10.9083 51.1297 10.3204 50.7147 9.90542C50.3136 9.47658 49.8156 9.26216 49.2207 9.26216C48.6259 9.26216 48.121 9.47658 47.706 9.90542C47.3048 10.3343 47.1042 10.9222 47.1042 11.6692C47.1042 12.43 47.3048 13.0249 47.706 13.4537C48.121 13.8825 48.6259 14.097 49.2207 14.097C49.8156 14.097 50.3136 13.8825 50.7147 13.4537C51.1297 13.011 51.3373 12.4162 51.3373 11.6692ZM63.1791 7.9134C63.6356 7.24939 64.189 6.72372 64.8392 6.33638C65.4893 5.94904 66.1879 5.75537 66.9349 5.75537V10.0922H65.7937C64.9083 10.0922 64.2512 10.2651 63.8224 10.6109C63.3936 10.9568 63.1791 11.5585 63.1791 12.4162V17.5H59.1121V5.85912H63.1791V7.9134ZM75.78 17.6453C74.618 17.6453 73.5736 17.4032 72.6468 16.919C71.7337 16.4348 71.0144 15.7431 70.4887 14.844C69.9631 13.9448 69.7002 12.8865 69.7002 11.6692C69.7002 10.4657 69.9631 9.41433 70.4887 8.51515C71.0282 7.61598 71.7545 6.9243 72.6675 6.44013C73.5943 5.95596 74.6388 5.71387 75.8008 5.71387C76.9628 5.71387 78.0003 5.95596 78.9133 6.44013C79.8402 6.9243 80.5664 7.61598 81.0921 8.51515C81.6316 9.41433 81.9014 10.4657 81.9014 11.6692C81.9014 12.8727 81.6316 13.931 81.0921 14.844C80.5664 15.7431 79.8402 16.4348 78.9133 16.919C77.9865 17.4032 76.9421 17.6453 75.78 17.6453ZM75.78 14.1177C76.3472 14.1177 76.8175 13.9102 77.1911 13.4952C77.5784 13.0664 77.7721 12.4577 77.7721 11.6692C77.7721 10.8807 77.5784 10.2789 77.1911 9.86392C76.8175 9.44891 76.3541 9.24141 75.8008 9.24141C75.2474 9.24141 74.784 9.44891 74.4105 9.86392C74.037 10.2789 73.8503 10.8807 73.8503 11.6692C73.8503 12.4715 74.0301 13.0802 74.3898 13.4952C74.7494 13.9102 75.2129 14.1177 75.78 14.1177ZM91.8146 9.24141H89.9886V17.5H85.9008V9.24141H84.635V5.85912H85.9008V5.75537C85.9008 4.26136 86.3366 3.12009 87.2081 2.33159C88.0934 1.52924 89.3592 1.12807 91.0054 1.12807C91.3374 1.12807 91.5933 1.13499 91.7731 1.14882V4.61411C91.6624 4.60028 91.5103 4.59336 91.3166 4.59336C90.8739 4.59336 90.5488 4.69711 90.3413 4.90461C90.1338 5.09828 90.0163 5.41645 89.9886 5.85912H91.8146V9.24141ZM97.2936 4.78011C96.5743 4.78011 95.9933 4.58644 95.5506 4.19911C95.1218 3.79794 94.9074 3.29993 94.9074 2.70509C94.9074 2.09642 95.1218 1.5915 95.5506 1.19032C95.9933 0.789153 96.5743 0.588567 97.2936 0.588567C97.9992 0.588567 98.5663 0.789153 98.9952 1.19032C99.4378 1.5915 99.6592 2.09642 99.6592 2.70509C99.6592 3.29993 99.4378 3.79794 98.9952 4.19911C98.5663 4.58644 97.9992 4.78011 97.2936 4.78011ZM99.3064 5.85912V17.5H95.2394V5.85912H99.3064ZM107.661 2.14483V17.5H103.594V2.14483H107.661ZM123.07 11.5447C123.07 11.8629 123.05 12.181 123.008 12.4992H115.31C115.351 13.1355 115.524 13.6128 115.828 13.931C116.147 14.2353 116.548 14.3875 117.032 14.3875C117.71 14.3875 118.194 14.0831 118.484 13.4745H122.821C122.641 14.2768 122.289 14.9961 121.763 15.6325C121.251 16.255 120.601 16.7461 119.813 17.1057C119.024 17.4654 118.152 17.6453 117.198 17.6453C116.05 17.6453 115.026 17.4032 114.127 16.919C113.242 16.4348 112.543 15.7431 112.031 14.844C111.533 13.9448 111.284 12.8865 111.284 11.6692C111.284 10.4518 111.533 9.4005 112.031 8.51515C112.529 7.61598 113.221 6.9243 114.106 6.44013C115.005 5.95596 116.036 5.71387 117.198 5.71387C118.346 5.71387 119.363 5.94904 120.248 6.41938C121.134 6.88972 121.825 7.56756 122.323 8.4529C122.821 9.32441 123.07 10.355 123.07 11.5447ZM118.92 10.5279C118.92 10.0299 118.754 9.64258 118.422 9.36591C118.09 9.07541 117.675 8.93016 117.177 8.93016C116.679 8.93016 116.271 9.06849 115.953 9.34516C115.635 9.608 115.427 10.0023 115.33 10.5279H118.92Z" fill="black"/>
</svg>
