<svg width="49" height="51" viewBox="0 0 49 51" fill="none" xmlns="http://www.w3.org/2000/svg">
<mask id="mask0_130_109" style="mask-type:alpha" maskUnits="userSpaceOnUse" x="0" y="0" width="49" height="51">
<path d="M0.883911 0.776703H48.7728V50.5825H0.883911V0.776703Z" fill="#D9D9D9"/>
</mask>
<g mask="url(#mask0_130_109)">
<path d="M17.113 24.4345C17.6783 24.4345 18.1522 24.2356 18.5347 23.8378C18.9171 23.4401 19.1083 22.9472 19.1083 22.3592C19.1083 21.7713 18.9171 21.2784 18.5347 20.8806C18.1522 20.4829 17.6783 20.284 17.113 20.284C16.5476 20.284 16.0737 20.4829 15.6913 20.8806C15.3088 21.2784 15.1176 21.7713 15.1176 22.3592C15.1176 22.9472 15.3088 23.4401 15.6913 23.8378C16.0737 24.2356 16.5476 24.4345 17.113 24.4345ZM25.0945 24.4345C25.6598 24.4345 26.1337 24.2356 26.5162 23.8378C26.8986 23.4401 27.0898 22.9472 27.0898 22.3592C27.0898 21.7713 26.8986 21.2784 26.5162 20.8806C26.1337 20.4829 25.6598 20.284 25.0945 20.284C24.5291 20.284 24.0552 20.4829 23.6728 20.8806C23.2903 21.2784 23.0991 21.7713 23.0991 22.3592C23.0991 22.9472 23.2903 23.4401 23.6728 23.8378C24.0552 24.2356 24.5291 24.4345 25.0945 24.4345ZM33.0759 24.4345C33.6413 24.4345 34.1152 24.2356 34.4976 23.8378C34.8801 23.4401 35.0713 22.9472 35.0713 22.3592C35.0713 21.7713 34.8801 21.2784 34.4976 20.8806C34.1152 20.4829 33.6413 20.284 33.0759 20.284C32.5106 20.284 32.0367 20.4829 31.6542 20.8806C31.2718 21.2784 31.0806 21.7713 31.0806 22.3592C31.0806 22.9472 31.2718 23.4401 31.6542 23.8378C32.0367 24.2356 32.5106 24.4345 33.0759 24.4345ZM5.14075 47.2621V9.90778C5.14075 8.7664 5.53151 7.7893 6.31303 6.9765C7.09455 6.1637 8.03403 5.75729 9.13149 5.75729H41.0574C42.1549 5.75729 43.0944 6.1637 43.8759 6.9765C44.6574 7.7893 45.0482 8.7664 45.0482 9.90778V34.8107C45.0482 35.9521 44.6574 36.9292 43.8759 37.742C43.0944 38.5548 42.1549 38.9612 41.0574 38.9612H13.1222L5.14075 47.2621ZM11.4262 34.8107H41.0574V9.90778H9.13149V37.1453L11.4262 34.8107Z" fill="#666666"/>
</g>
</svg>
