<svg width="162" height="18" viewBox="0 0 162 18" fill="none" xmlns="http://www.w3.org/2000/svg">
<path d="M13.7119 17.5H9.64486L4.22906 9.32441V17.5H0.162013V2.87109H4.22906L9.64486 11.1504V2.87109H13.7119V17.5ZM23.4157 17.6453C22.2537 17.6453 21.2093 17.4032 20.2824 16.919C19.3694 16.4348 18.6501 15.7431 18.1244 14.844C17.5987 13.9448 17.3359 12.8865 17.3359 11.6692C17.3359 10.4657 17.5987 9.41433 18.1244 8.51515C18.6639 7.61598 19.3902 6.9243 20.3032 6.44013C21.23 5.95596 22.2745 5.71387 23.4365 5.71387C24.5985 5.71387 25.636 5.95596 26.549 6.44013C27.4758 6.9243 28.2021 7.61598 28.7278 8.51515C29.2673 9.41433 29.537 10.4657 29.537 11.6692C29.537 12.8727 29.2673 13.931 28.7278 14.844C28.2021 15.7431 27.4758 16.4348 26.549 16.919C25.6222 17.4032 24.5777 17.6453 23.4157 17.6453ZM23.4157 14.1177C23.9829 14.1177 24.4532 13.9102 24.8267 13.4952C25.2141 13.0664 25.4077 12.4577 25.4077 11.6692C25.4077 10.8807 25.2141 10.2789 24.8267 9.86392C24.4532 9.44891 23.9898 9.24141 23.4365 9.24141C22.8831 9.24141 22.4197 9.44891 22.0462 9.86392C21.6727 10.2789 21.4859 10.8807 21.4859 11.6692C21.4859 12.4715 21.6658 13.0802 22.0255 13.4952C22.3851 13.9102 22.8485 14.1177 23.4157 14.1177ZM40.0313 14.0347V17.5H38.2675C35.2933 17.5 33.8062 16.0267 33.8062 13.0802V9.24141H32.3745V5.85912H33.8062V3.03709H37.894V5.85912H40.0105V9.24141H37.894V13.1425C37.894 13.4606 37.9632 13.6889 38.1015 13.8272C38.2537 13.9655 38.5027 14.0347 38.8485 14.0347H40.0313ZM45.9223 4.78011C45.2029 4.78011 44.6219 4.58644 44.1792 4.19911C43.7504 3.79794 43.536 3.29993 43.536 2.70509C43.536 2.09642 43.7504 1.5915 44.1792 1.19032C44.6219 0.789153 45.2029 0.588567 45.9223 0.588567C46.6278 0.588567 47.1949 0.789153 47.6238 1.19032C48.0664 1.5915 48.2878 2.09642 48.2878 2.70509C48.2878 3.29993 48.0664 3.79794 47.6238 4.19911C47.1949 4.58644 46.6278 4.78011 45.9223 4.78011ZM47.935 5.85912V17.5H43.868V5.85912H47.935ZM58.5097 9.24141H56.6837V17.5H52.5959V9.24141H51.3301V5.85912H52.5959V5.75537C52.5959 4.26136 53.0316 3.12009 53.9031 2.33159C54.7885 1.52924 56.0543 1.12807 57.7004 1.12807C58.0324 1.12807 58.2884 1.13499 58.4682 1.14882V4.61411C58.3575 4.60028 58.2054 4.59336 58.0117 4.59336C57.569 4.59336 57.2439 4.69711 57.0364 4.90461C56.8289 5.09828 56.7113 5.41645 56.6837 5.85912H58.5097V9.24141ZM63.9887 4.78011C63.2694 4.78011 62.6884 4.58644 62.2457 4.19911C61.8169 3.79794 61.6025 3.29993 61.6025 2.70509C61.6025 2.09642 61.8169 1.5915 62.2457 1.19032C62.6884 0.789153 63.2694 0.588567 63.9887 0.588567C64.6942 0.588567 65.2614 0.789153 65.6902 1.19032C66.1329 1.5915 66.3543 2.09642 66.3543 2.70509C66.3543 3.29993 66.1329 3.79794 65.6902 4.19911C65.2614 4.58644 64.6942 4.78011 63.9887 4.78011ZM66.0015 5.85912V17.5H61.9345V5.85912H66.0015ZM69.6248 11.6692C69.6248 10.4657 69.8738 9.41433 70.3719 8.51515C70.8699 7.61598 71.5615 6.9243 72.4469 6.44013C73.3461 5.95596 74.3697 5.71387 75.5179 5.71387C76.9981 5.71387 78.2431 6.12196 79.2529 6.93814C80.2628 7.74048 80.913 8.86791 81.2035 10.3204H76.8874C76.6384 9.55958 76.1542 9.17916 75.4349 9.17916C74.9231 9.17916 74.515 9.39358 74.2106 9.82242C73.9201 10.2374 73.7749 10.853 73.7749 11.6692C73.7749 12.4854 73.9201 13.1079 74.2106 13.5367C74.515 13.9655 74.9231 14.18 75.4349 14.18C76.1681 14.18 76.6523 13.7995 76.8874 13.0387H81.2035C80.913 14.4774 80.2628 15.6048 79.2529 16.421C78.2431 17.2372 76.9981 17.6453 75.5179 17.6453C74.3697 17.6453 73.3461 17.4032 72.4469 16.919C71.5615 16.4348 70.8699 15.7431 70.3719 14.844C69.8738 13.9448 69.6248 12.8865 69.6248 11.6692ZM84.2003 11.6692C84.2003 10.4657 84.4147 9.41433 84.8435 8.51515C85.2862 7.61598 85.881 6.9243 86.628 6.44013C87.3889 5.95596 88.2327 5.71387 89.1596 5.71387C89.9619 5.71387 90.6536 5.87296 91.2346 6.19113C91.8156 6.5093 92.2652 6.93814 92.5833 7.47764V5.85912H96.6504V17.5H92.5833V15.8815C92.2652 16.421 91.8087 16.8498 91.2138 17.168C90.6328 17.4862 89.9481 17.6453 89.1596 17.6453C88.2327 17.6453 87.3889 17.4032 86.628 16.919C85.881 16.4348 85.2862 15.7431 84.8435 14.844C84.4147 13.931 84.2003 12.8727 84.2003 11.6692ZM92.5833 11.6692C92.5833 10.9222 92.3758 10.3343 91.9608 9.90542C91.5597 9.47658 91.0617 9.26216 90.4668 9.26216C89.8581 9.26216 89.3532 9.47658 88.9521 9.90542C88.5509 10.3204 88.3503 10.9083 88.3503 11.6692C88.3503 12.4162 88.5509 13.011 88.9521 13.4537C89.3532 13.8825 89.8581 14.097 90.4668 14.097C91.0617 14.097 91.5597 13.8825 91.9608 13.4537C92.3758 13.0249 92.5833 12.43 92.5833 11.6692ZM107.808 14.0347V17.5H106.044C103.07 17.5 101.582 16.0267 101.582 13.0802V9.24141H100.151V5.85912H101.582V3.03709H105.67V5.85912H107.787V9.24141H105.67V13.1425C105.67 13.4606 105.739 13.6889 105.878 13.8272C106.03 13.9655 106.279 14.0347 106.625 14.0347H107.808ZM113.698 4.78011C112.979 4.78011 112.398 4.58644 111.955 4.19911C111.527 3.79794 111.312 3.29993 111.312 2.70509C111.312 2.09642 111.527 1.5915 111.955 1.19032C112.398 0.789153 112.979 0.588567 113.698 0.588567C114.404 0.588567 114.971 0.789153 115.4 1.19032C115.843 1.5915 116.064 2.09642 116.064 2.70509C116.064 3.29993 115.843 3.79794 115.4 4.19911C114.971 4.58644 114.404 4.78011 113.698 4.78011ZM115.711 5.85912V17.5H111.644V5.85912H115.711ZM125.414 17.6453C124.252 17.6453 123.208 17.4032 122.281 16.919C121.368 16.4348 120.649 15.7431 120.123 14.844C119.597 13.9448 119.335 12.8865 119.335 11.6692C119.335 10.4657 119.597 9.41433 120.123 8.51515C120.663 7.61598 121.389 6.9243 122.302 6.44013C123.229 5.95596 124.273 5.71387 125.435 5.71387C126.597 5.71387 127.635 5.95596 128.548 6.44013C129.475 6.9243 130.201 7.61598 130.726 8.51515C131.266 9.41433 131.536 10.4657 131.536 11.6692C131.536 12.8727 131.266 13.931 130.726 14.844C130.201 15.7431 129.475 16.4348 128.548 16.919C127.621 17.4032 126.576 17.6453 125.414 17.6453ZM125.414 14.1177C125.982 14.1177 126.452 13.9102 126.825 13.4952C127.213 13.0664 127.406 12.4577 127.406 11.6692C127.406 10.8807 127.213 10.2789 126.825 9.86392C126.452 9.44891 125.989 9.24141 125.435 9.24141C124.882 9.24141 124.418 9.44891 124.045 9.86392C123.671 10.2789 123.485 10.8807 123.485 11.6692C123.485 12.4715 123.664 13.0802 124.024 13.4952C124.384 13.9102 124.847 14.1177 125.414 14.1177ZM142.777 5.75537C144.119 5.75537 145.184 6.20496 145.973 7.10414C146.761 7.98948 147.155 9.19299 147.155 10.7147V17.5H143.088V11.2542C143.088 10.5902 142.915 10.0714 142.569 9.69792C142.224 9.31058 141.76 9.11691 141.179 9.11691C140.571 9.11691 140.093 9.31058 139.747 9.69792C139.402 10.0714 139.229 10.5902 139.229 11.2542V17.5H135.162V5.85912H139.229V7.51914C139.588 6.99347 140.073 6.57155 140.681 6.25338C141.29 5.92137 141.988 5.75537 142.777 5.75537ZM156.317 17.6453C155.266 17.6453 154.325 17.4723 153.495 17.1265C152.679 16.7668 152.029 16.2827 151.545 15.674C151.075 15.0515 150.812 14.3529 150.756 13.5782H154.699C154.754 13.9517 154.927 14.2422 155.218 14.4497C155.508 14.6572 155.868 14.761 156.297 14.761C156.629 14.761 156.892 14.6918 157.085 14.5535C157.279 14.4151 157.376 14.2353 157.376 14.014C157.376 13.7235 157.217 13.509 156.899 13.3707C156.58 13.2324 156.055 13.0802 155.321 12.9142C154.491 12.7482 153.8 12.5614 153.246 12.3539C152.693 12.1464 152.209 11.8075 151.794 11.3372C151.393 10.8668 151.192 10.2305 151.192 9.42816C151.192 8.73649 151.379 8.11398 151.752 7.56064C152.126 6.99347 152.672 6.54388 153.392 6.21188C154.125 5.87987 155.003 5.71387 156.027 5.71387C157.549 5.71387 158.745 6.08738 159.617 6.83439C160.488 7.58139 160.993 8.56357 161.132 9.78092H157.459C157.39 9.40741 157.224 9.12383 156.961 8.93016C156.712 8.72266 156.373 8.6189 155.944 8.6189C155.612 8.6189 155.356 8.68115 155.176 8.80566C155.01 8.93016 154.927 9.10308 154.927 9.32441C154.927 9.60108 155.086 9.8155 155.404 9.96767C155.723 10.106 156.234 10.2513 156.94 10.4034C157.784 10.5833 158.482 10.7838 159.036 11.0052C159.603 11.2265 160.094 11.5862 160.509 12.0842C160.938 12.5684 161.152 13.2324 161.152 14.0762C161.152 14.7541 160.952 15.3627 160.551 15.9022C160.163 16.4417 159.603 16.8706 158.87 17.1887C158.15 17.4931 157.3 17.6453 156.317 17.6453Z" fill="black"/>
</svg>
