<svg width="49" height="51" viewBox="0 0 49 51" fill="none" xmlns="http://www.w3.org/2000/svg">
<mask id="mask0_130_346" style="mask-type:alpha" maskUnits="userSpaceOnUse" x="0" y="0" width="49" height="51">
<path d="M0.884033 0.776703H48.7729V50.5825H0.884033V0.776703Z" fill="#D9D9D9"/>
</mask>
<g mask="url(#mask0_130_346)">
<path d="M17.1131 24.4345C17.6784 24.4345 18.1523 24.2356 18.5348 23.8378C18.9172 23.4401 19.1085 22.9472 19.1085 22.3592C19.1085 21.7713 18.9172 21.2784 18.5348 20.8806C18.1523 20.4829 17.6784 20.284 17.1131 20.284C16.5477 20.284 16.0738 20.4829 15.6914 20.8806C15.3089 21.2784 15.1177 21.7713 15.1177 22.3592C15.1177 22.9472 15.3089 23.4401 15.6914 23.8378C16.0738 24.2356 16.5477 24.4345 17.1131 24.4345ZM25.0946 24.4345C25.6599 24.4345 26.1338 24.2356 26.5163 23.8378C26.8987 23.4401 27.0899 22.9472 27.0899 22.3592C27.0899 21.7713 26.8987 21.2784 26.5163 20.8806C26.1338 20.4829 25.6599 20.284 25.0946 20.284C24.5292 20.284 24.0553 20.4829 23.6729 20.8806C23.2904 21.2784 23.0992 21.7713 23.0992 22.3592C23.0992 22.9472 23.2904 23.4401 23.6729 23.8378C24.0553 24.2356 24.5292 24.4345 25.0946 24.4345ZM33.0761 24.4345C33.6414 24.4345 34.1153 24.2356 34.4978 23.8378C34.8802 23.4401 35.0714 22.9472 35.0714 22.3592C35.0714 21.7713 34.8802 21.2784 34.4978 20.8806C34.1153 20.4829 33.6414 20.284 33.0761 20.284C32.5107 20.284 32.0368 20.4829 31.6544 20.8806C31.2719 21.2784 31.0807 21.7713 31.0807 22.3592C31.0807 22.9472 31.2719 23.4401 31.6544 23.8378C32.0368 24.2356 32.5107 24.4345 33.0761 24.4345ZM5.14087 47.2621V9.90778C5.14087 8.7664 5.53163 7.7893 6.31315 6.9765C7.09467 6.1637 8.03416 5.75729 9.13161 5.75729H41.0575C42.155 5.75729 43.0945 6.1637 43.876 6.9765C44.6575 7.7893 45.0483 8.7664 45.0483 9.90778V34.8107C45.0483 35.9521 44.6575 36.9292 43.876 37.742C43.0945 38.5548 42.155 38.9612 41.0575 38.9612H13.1224L5.14087 47.2621ZM11.4263 34.8107H41.0575V9.90778H9.13161V37.1453L11.4263 34.8107Z" fill="#38D13E"/>
</g>
</svg>
