<svg width="200" height="200" viewBox="0 0 200 200" fill="none" xmlns="http://www.w3.org/2000/svg">
<g id="account_circle">
<mask id="mask0_358_648" style="mask-type:alpha" maskUnits="userSpaceOnUse" x="0" y="0" width="200" height="200">
<rect id="Bounding box" width="200" height="200" fill="#D9D9D9"/>
</mask>
<g mask="url(#mask0_358_648)">
<path id="account_circle_2" d="M49.8958 142.396C57.1181 137.049 64.9132 132.882 73.2813 129.896C81.6493 126.91 90.5556 125.417 100 125.417C109.444 125.417 118.351 126.91 126.719 129.896C135.087 132.882 142.882 137.049 150.104 142.396C155.174 136.493 159.028 129.973 161.667 122.836C164.306 115.7 165.625 108.082 165.625 99.9848C165.625 81.731 159.253 66.2326 146.51 53.4896C133.767 40.7465 118.264 34.375 100 34.375C81.7361 34.375 66.2326 40.7465 53.4896 53.4896C40.7465 66.2326 34.375 81.731 34.375 99.9848C34.375 108.082 35.6944 115.7 38.3333 122.836C40.9722 129.973 44.8264 136.493 49.8958 142.396ZM100.023 107.917C91.9522 107.917 85.1389 105.147 79.5833 99.6065C74.0278 94.0662 71.25 87.2606 71.25 79.1898C71.25 71.1188 74.0201 64.3056 79.5602 58.75C85.1005 53.1944 91.906 50.4167 99.9769 50.4167C108.048 50.4167 114.861 53.1867 120.417 58.7269C125.972 64.2671 128.75 71.0727 128.75 79.1435C128.75 87.2145 125.98 94.0278 120.44 99.5833C114.9 105.139 108.094 107.917 100.023 107.917ZM100 181.25C88.7629 181.25 78.2028 179.114 68.3198 174.841C58.4366 170.568 49.8396 164.77 42.5287 157.445C35.2179 150.121 29.4271 141.522 25.1562 131.649C20.8854 121.775 18.75 111.226 18.75 100C18.75 88.7629 20.8863 78.2028 25.159 68.3198C29.4316 58.4366 35.2302 49.8396 42.5548 42.5287C49.8794 35.2179 58.4783 29.4271 68.3515 25.1562C78.2248 20.8854 88.7743 18.75 100 18.75C111.237 18.75 121.797 20.8863 131.68 25.159C141.563 29.4316 150.16 35.2302 157.471 42.5548C164.782 49.8794 170.573 58.4783 174.844 68.3515C179.115 78.2248 181.25 88.7743 181.25 100C181.25 111.237 179.114 121.797 174.841 131.68C170.568 141.563 164.77 150.16 157.445 157.471C150.121 164.782 141.522 170.573 131.649 174.844C121.775 179.115 111.226 181.25 100 181.25Z" fill="#D7D7D7"/>
</g>
</g>
</svg>
