<svg width="54" height="56" viewBox="0 0 54 56" fill="none" xmlns="http://www.w3.org/2000/svg">
<mask id="mask0_130_112" style="mask-type:alpha" maskUnits="userSpaceOnUse" x="0" y="0" width="54" height="56">
<rect x="0.0197754" y="0.56311" width="53.2099" height="55.3398" fill="#D9D9D9"/>
</mask>
<g mask="url(#mask0_130_112)">
<path d="M12.9897 39.9927C14.8742 38.4939 16.9805 37.3122 19.3084 36.4475C21.6363 35.5828 24.0751 35.1505 26.6248 35.1505C29.1744 35.1505 31.6132 35.5828 33.9411 36.4475C36.269 37.3122 38.3753 38.4939 40.2598 39.9927C41.5531 38.4171 42.56 36.6301 43.2806 34.6317C44.0011 32.6333 44.3614 30.5004 44.3614 28.233C44.3614 23.1218 42.6339 18.7695 39.179 15.1763C35.724 11.583 31.5393 9.78641 26.6248 9.78641C21.7102 9.78641 17.5255 11.583 14.0706 15.1763C10.6156 18.7695 8.88813 23.1218 8.88813 28.233C8.88813 30.5004 9.24841 32.6333 9.96896 34.6317C10.6895 36.6301 11.6964 38.4171 12.9897 39.9927ZM26.6248 30.5388C24.4446 30.5388 22.6063 29.7606 21.1098 28.2042C19.6132 26.6478 18.865 24.7358 18.865 22.4684C18.865 20.2011 19.6132 18.2891 21.1098 16.7327C22.6063 15.1763 24.4446 14.3981 26.6248 14.3981C28.8049 14.3981 30.6432 15.1763 32.1397 16.7327C33.6363 18.2891 34.3845 20.2011 34.3845 22.4684C34.3845 24.7358 33.6363 26.6478 32.1397 28.2042C30.6432 29.7606 28.8049 30.5388 26.6248 30.5388ZM26.6248 51.2913C23.5578 51.2913 20.6756 50.686 17.9782 49.4754C15.2807 48.2649 12.9343 46.622 10.9389 44.5467C8.94356 42.4715 7.36389 40.0311 6.19993 37.2257C5.03596 34.4203 4.45398 31.4227 4.45398 28.233C4.45398 25.0433 5.03596 22.0457 6.19993 19.2403C7.36389 16.4349 8.94356 13.9945 10.9389 11.9193C12.9343 9.84405 15.2807 8.20115 17.9782 6.9906C20.6756 5.78004 23.5578 5.17476 26.6248 5.17476C29.6917 5.17476 32.5739 5.78004 35.2714 6.9906C37.9688 8.20115 40.3152 9.84405 42.3106 11.9193C44.306 13.9945 45.8856 16.4349 47.0496 19.2403C48.2136 22.0457 48.7955 25.0433 48.7955 28.233C48.7955 31.4227 48.2136 34.4203 47.0496 37.2257C45.8856 40.0311 44.306 42.4715 42.3106 44.5467C40.3152 46.622 37.9688 48.2649 35.2714 49.4754C32.5739 50.686 29.6917 51.2913 26.6248 51.2913ZM26.6248 46.6796C28.5832 46.6796 30.4307 46.3818 32.1675 45.7861C33.9042 45.1904 35.4931 44.3354 36.9342 43.2209C35.4931 42.1064 33.9042 41.2513 32.1675 40.6556C30.4307 40.06 28.5832 39.7621 26.6248 39.7621C24.6663 39.7621 22.8188 40.06 21.0821 40.6556C19.3454 41.2513 17.7564 42.1064 16.3153 43.2209C17.7564 44.3354 19.3454 45.1904 21.0821 45.7861C22.8188 46.3818 24.6663 46.6796 26.6248 46.6796ZM26.6248 25.9272C27.5855 25.9272 28.3799 25.6005 29.0081 24.9472C29.6363 24.2939 29.9504 23.4676 29.9504 22.4684C29.9504 21.4693 29.6363 20.643 29.0081 19.9897C28.3799 19.3364 27.5855 19.0097 26.6248 19.0097C25.664 19.0097 24.8696 19.3364 24.2414 19.9897C23.6132 20.643 23.2991 21.4693 23.2991 22.4684C23.2991 23.4676 23.6132 24.2939 24.2414 24.9472C24.8696 25.6005 25.664 25.9272 26.6248 25.9272Z" fill="#666666"/>
</g>
</svg>
