<svg width="54" height="56" viewBox="0 0 54 56" fill="none" xmlns="http://www.w3.org/2000/svg">
<mask id="mask0_130_326" style="mask-type:alpha" maskUnits="userSpaceOnUse" x="0" y="0" width="54" height="56">
<rect x="0.0197754" y="0.56311" width="53.2099" height="55.3398" fill="#D9D9D9"/>
</mask>
<g mask="url(#mask0_130_326)">
<path d="M12.9896 39.9927C14.8741 38.4939 16.9803 37.3122 19.3083 36.4475C21.6362 35.5828 24.075 35.1505 26.6246 35.1505C29.1743 35.1505 31.6131 35.5828 33.941 36.4475C36.2689 37.3122 38.3751 38.4939 40.2597 39.9927C41.553 38.4171 42.5599 36.6301 43.2804 34.6317C44.001 32.6333 44.3613 30.5004 44.3613 28.233C44.3613 23.1218 42.6338 18.7695 39.1788 15.1763C35.7239 11.583 31.5392 9.78641 26.6246 9.78641C21.7101 9.78641 17.5254 11.583 14.0704 15.1763C10.6155 18.7695 8.88801 23.1218 8.88801 28.233C8.88801 30.5004 9.24829 32.6333 9.96884 34.6317C10.6894 36.6301 11.6963 38.4171 12.9896 39.9927ZM26.6246 30.5388C24.4445 30.5388 22.6062 29.7606 21.1097 28.2042C19.6131 26.6478 18.8649 24.7358 18.8649 22.4684C18.8649 20.2011 19.6131 18.2891 21.1097 16.7327C22.6062 15.1763 24.4445 14.3981 26.6246 14.3981C28.8048 14.3981 30.6431 15.1763 32.1396 16.7327C33.6361 18.2891 34.3844 20.2011 34.3844 22.4684C34.3844 24.7358 33.6361 26.6478 32.1396 28.2042C30.6431 29.7606 28.8048 30.5388 26.6246 30.5388ZM26.6246 51.2913C23.5577 51.2913 20.6755 50.686 17.978 49.4754C15.2806 48.2649 12.9342 46.622 10.9388 44.5467C8.94344 42.4715 7.36377 40.0311 6.19981 37.2257C5.03584 34.4203 4.45386 31.4227 4.45386 28.233C4.45386 25.0433 5.03584 22.0457 6.19981 19.2403C7.36377 16.4349 8.94344 13.9945 10.9388 11.9193C12.9342 9.84405 15.2806 8.20115 17.978 6.9906C20.6755 5.78004 23.5577 5.17476 26.6246 5.17476C29.6916 5.17476 32.5738 5.78004 35.2712 6.9906C37.9687 8.20115 40.3151 9.84405 42.3105 11.9193C44.3058 13.9945 45.8855 16.4349 47.0495 19.2403C48.2134 22.0457 48.7954 25.0433 48.7954 28.233C48.7954 31.4227 48.2134 34.4203 47.0495 37.2257C45.8855 40.0311 44.3058 42.4715 42.3105 44.5467C40.3151 46.622 37.9687 48.2649 35.2712 49.4754C32.5738 50.686 29.6916 51.2913 26.6246 51.2913ZM26.6246 46.6796C28.5831 46.6796 30.4306 46.3818 32.1673 45.7861C33.904 45.1904 35.4929 44.3354 36.934 43.2209C35.4929 42.1064 33.904 41.2513 32.1673 40.6556C30.4306 40.06 28.5831 39.7621 26.6246 39.7621C24.6662 39.7621 22.8187 40.06 21.0819 40.6556C19.3452 41.2513 17.7563 42.1064 16.3152 43.2209C17.7563 44.3354 19.3452 45.1904 21.0819 45.7861C22.8187 46.3818 24.6662 46.6796 26.6246 46.6796ZM26.6246 25.9272C27.5854 25.9272 28.3798 25.6005 29.008 24.9472C29.6362 24.2939 29.9503 23.4676 29.9503 22.4684C29.9503 21.4693 29.6362 20.643 29.008 19.9897C28.3798 19.3364 27.5854 19.0097 26.6246 19.0097C25.6639 19.0097 24.8694 19.3364 24.2413 19.9897C23.6131 20.643 23.299 21.4693 23.299 22.4684C23.299 23.4676 23.6131 24.2939 24.2413 24.9472C24.8694 25.6005 25.6639 25.9272 26.6246 25.9272Z" fill="#38D13E"/>
</g>
</svg>
