<svg width="76" height="16" viewBox="0 0 76 16" fill="none" xmlns="http://www.w3.org/2000/svg">
<path d="M7.56984 15.5L4.66481 10.1049H4.22906V15.5H0.162013V0.871092H6.57383C7.74968 0.871092 8.74569 1.07859 9.56186 1.4936C10.378 1.89477 10.9936 2.45503 11.4086 3.17437C11.8236 3.87987 12.0311 4.6753 12.0311 5.56064C12.0311 6.55665 11.7545 7.43508 11.2011 8.19592C10.6616 8.94293 9.8662 9.47552 8.81486 9.79369L12.1141 15.5H7.56984ZM4.22906 7.32441H6.24183C6.79517 7.32441 7.21017 7.19299 7.48684 6.93016C7.76351 6.66732 7.90185 6.2869 7.90185 5.7889C7.90185 5.31856 7.75659 4.95197 7.46609 4.68913C7.18942 4.41246 6.78133 4.27413 6.24183 4.27413H4.22906V7.32441ZM26.9741 9.54469C26.9741 9.86286 26.9533 10.181 26.9118 10.4992H19.2135C19.255 11.1355 19.4279 11.6128 19.7322 11.931C20.0504 12.2353 20.4516 12.3875 20.9357 12.3875C21.6136 12.3875 22.0978 12.0831 22.3883 11.4745H26.7251C26.5452 12.2768 26.1925 12.9961 25.6668 13.6325C25.155 14.255 24.5048 14.7461 23.7163 15.1057C22.9278 15.4654 22.0563 15.6453 21.1017 15.6453C19.9536 15.6453 18.9299 15.4032 18.0307 14.919C17.1454 14.4348 16.4468 13.7431 15.9349 12.844C15.4369 11.9448 15.1879 10.8865 15.1879 9.66919C15.1879 8.45184 15.4369 7.4005 15.9349 6.51515C16.4329 5.61598 17.1246 4.9243 18.01 4.44013C18.9091 3.95596 19.9397 3.71387 21.1017 3.71387C22.2499 3.71387 23.2667 3.94904 24.152 4.41938C25.0374 4.88972 25.729 5.56756 26.2271 6.4529C26.7251 7.32441 26.9741 8.35501 26.9741 9.54469ZM22.824 8.52792C22.824 8.02992 22.658 7.64258 22.326 7.36591C21.994 7.07541 21.579 6.93016 21.081 6.93016C20.583 6.93016 20.1749 7.06849 19.8567 7.34516C19.5386 7.608 19.3311 8.00225 19.2342 8.52792H22.824ZM35.569 15.6453C34.5177 15.6453 33.577 15.4723 32.747 15.1265C31.9308 14.7668 31.2806 14.2827 30.7965 13.674C30.3261 13.0515 30.0633 12.3529 30.008 11.5782H33.9505C34.0058 11.9517 34.1788 12.2422 34.4693 12.4497C34.7598 12.6572 35.1194 12.761 35.5483 12.761C35.8803 12.761 36.1431 12.6918 36.3368 12.5535C36.5305 12.4151 36.6273 12.2353 36.6273 12.014C36.6273 11.7235 36.4682 11.509 36.15 11.3707C35.8319 11.2324 35.3062 11.0802 34.573 10.9142C33.743 10.7482 33.0513 10.5614 32.498 10.3539C31.9447 10.1464 31.4605 9.80752 31.0455 9.33718C30.6443 8.86684 30.4437 8.2305 30.4437 7.42816C30.4437 6.73649 30.6305 6.11398 31.004 5.56064C31.3775 4.99347 31.9239 4.54388 32.6432 4.21188C33.3764 3.87987 34.2548 3.71387 35.2785 3.71387C36.8002 3.71387 37.9968 4.08738 38.8683 4.83439C39.7398 5.58139 40.2447 6.56357 40.3831 7.78092H36.7103C36.6411 7.40741 36.4751 7.12383 36.2123 6.93016C35.9633 6.72266 35.6244 6.6189 35.1955 6.6189C34.8635 6.6189 34.6076 6.68115 34.4278 6.80566C34.2618 6.93016 34.1788 7.10308 34.1788 7.32441C34.1788 7.60108 34.3378 7.8155 34.656 7.96767C34.9742 8.106 35.486 8.25126 36.1915 8.40342C37.0354 8.58326 37.734 8.78384 38.2873 9.00518C38.8545 9.22652 39.3456 9.58619 39.7606 10.0842C40.1894 10.5684 40.4038 11.2324 40.4038 12.0762C40.4038 12.7541 40.2032 13.3627 39.8021 13.9022C39.4147 14.4417 38.8545 14.8706 38.1213 15.1887C37.402 15.4931 36.5512 15.6453 35.569 15.6453ZM56.2852 3.85912V15.5H52.1974V13.84C51.8516 14.3657 51.3743 14.7945 50.7656 15.1265C50.157 15.4447 49.4584 15.6038 48.6699 15.6038C47.3142 15.6038 46.2421 15.1611 45.4536 14.2757C44.6789 13.3766 44.2916 12.1592 44.2916 10.6237V3.85912H48.3379V10.1049C48.3379 10.7689 48.5108 11.2946 48.8566 11.682C49.2163 12.0555 49.6866 12.2422 50.2676 12.2422C50.8625 12.2422 51.3328 12.0555 51.6787 11.682C52.0245 11.2946 52.1974 10.7689 52.1974 10.1049V3.85912H56.2852ZM64.6381 0.144835V15.5H60.5711V0.144835H64.6381ZM75.7938 12.0347V15.5H74.03C71.0559 15.5 69.5688 14.0267 69.5688 11.0802V7.24141H68.137V3.85912H69.5688V1.03709H73.6565V3.85912H75.7731V7.24141H73.6565V11.1425C73.6565 11.4606 73.7257 11.6889 73.864 11.8272C74.0162 11.9655 74.2652 12.0347 74.6111 12.0347H75.7938Z" fill="black"/>
</svg>
