<svg width="20" height="21" viewBox="0 0 20 21" fill="none" xmlns="http://www.w3.org/2000/svg">
<rect width="20" height="21" fill="#919191"/>
<g id="HomeScreen (Plant Owner/)" clip-path="url(#clip0_0_1)">
<rect width="430" height="932" transform="translate(-310 -682)" fill="white"/>
<path id="Rectangle 26" d="M-312 -666H120V-265.506V137H-94.2665H-312V-666Z" fill="black" fill-opacity="0.5"/>
<g id="Plant Card">
<rect id="Rectangle 12" x="-251" y="-527" width="300" height="578" rx="20" fill="#EFF2F6"/>
<g id="Frame 24">
<rect x="-83" y="-11" width="116" height="43" rx="5" fill="black"/>
<path id="Vector" d="M0 20.5L1.41254 15.3642C0.540903 13.8608 0.0828937 12.1567 0.0837311 10.4092C0.086243 4.94583 4.55329 0.5 10.0419 0.5C12.7053 0.500833 15.2056 1.53333 17.0862 3.40667C18.9659 5.28 20.0008 7.77 20 10.4183C19.9975 15.8825 15.5304 20.3283 10.0419 20.3283C8.37562 20.3275 6.73365 19.9117 5.27924 19.1217L0 20.5ZM5.52374 17.3275C6.92707 18.1567 8.26677 18.6533 10.0385 18.6542C14.6002 18.6542 18.3162 14.9592 18.3187 10.4167C18.3204 5.865 14.622 2.175 10.0452 2.17333C5.4802 2.17333 1.76673 5.86833 1.76505 10.41C1.76421 12.2642 2.31014 13.6525 3.22699 15.105L2.39052 18.145L5.52374 17.3275ZM15.0582 12.7742C14.9962 12.6708 14.8304 12.6092 14.5809 12.485C14.3322 12.3608 13.1089 11.7617 12.8803 11.6792C12.6526 11.5967 12.4868 11.555 12.3202 11.8033C12.1544 12.0508 11.6771 12.6092 11.5323 12.7742C11.3874 12.9392 11.2417 12.96 10.993 12.8358C10.7444 12.7117 9.94222 12.4508 8.99188 11.6067C8.25253 10.95 7.75266 10.1392 7.6078 9.89083C7.46295 9.64333 7.59273 9.50917 7.71665 9.38583C7.82885 9.275 7.96533 9.09667 8.09009 8.95167C8.21653 8.80833 8.25756 8.705 8.34129 8.53917C8.42418 8.37417 8.38315 8.22917 8.32035 8.105C8.25756 7.98167 7.76019 6.7625 7.55338 6.26667C7.35075 5.78417 7.14561 5.84917 6.99322 5.84167L6.51595 5.83333C6.35016 5.83333 6.08055 5.895 5.8528 6.14333C5.62505 6.39167 4.982 6.99 4.982 8.20917C4.982 9.42833 5.87373 10.6058 5.99765 10.7708C6.12241 10.9358 7.75182 13.4375 10.2478 14.51C10.8415 14.765 11.3054 14.9175 11.6662 15.0317C12.2624 15.22 12.805 15.1933 13.2337 15.13C13.7118 15.0592 14.7057 14.5308 14.9133 13.9525C15.121 13.3733 15.121 12.8775 15.0582 12.7742Z" fill="#25D366"/>
</g>
</g>
</g>
<defs>
<clipPath id="clip0_0_1">
<rect width="430" height="932" fill="white" transform="translate(-310 -682)"/>
</clipPath>
</defs>
</svg>
