<svg width="1363" height="163" viewBox="0 0 1363 163" fill="none" xmlns="http://www.w3.org/2000/svg">
<path d="M0 15C0 6.71573 6.71573 0 15 0H37V163H15C6.71573 163 0 156.284 0 148V15Z" fill="#38D13E"/>
<rect width="1097" height="163" transform="translate(37)" fill="#F0F0F0"/>
<path d="M101.906 53.9219L94.3945 51.2383V48.0859L104.602 52.375V54.6367L101.906 53.9219ZM94.3945 56.1719L101.918 53.4297L104.602 52.7852V55.0352L94.3945 59.3242V56.1719ZM119.543 54.918H115.195V52.1758H119.543C120.215 52.1758 120.762 52.0664 121.184 51.8477C121.605 51.6211 121.914 51.3086 122.109 50.9102C122.305 50.5117 122.402 50.0625 122.402 49.5625C122.402 49.0547 122.305 48.582 122.109 48.1445C121.914 47.707 121.605 47.3555 121.184 47.0898C120.762 46.8242 120.215 46.6914 119.543 46.6914H116.414V61H112.898V43.9375H119.543C120.879 43.9375 122.023 44.1797 122.977 44.6641C123.938 45.1406 124.672 45.8008 125.18 46.6445C125.688 47.4883 125.941 48.4531 125.941 49.5391C125.941 50.6406 125.688 51.5938 125.18 52.3984C124.672 53.2031 123.938 53.8242 122.977 54.2617C122.023 54.6992 120.879 54.918 119.543 54.918ZM131.719 43V61H128.332V43H131.719ZM141.352 58.1406V52.4922C141.352 52.0859 141.285 51.7383 141.152 51.4492C141.02 51.1523 140.812 50.9219 140.531 50.7578C140.258 50.5938 139.902 50.5117 139.465 50.5117C139.09 50.5117 138.766 50.5781 138.492 50.7109C138.219 50.8359 138.008 51.0195 137.859 51.2617C137.711 51.4961 137.637 51.7734 137.637 52.0938H134.262C134.262 51.5547 134.387 51.043 134.637 50.5586C134.887 50.0742 135.25 49.6484 135.727 49.2812C136.203 48.9062 136.77 48.6133 137.426 48.4023C138.09 48.1914 138.832 48.0859 139.652 48.0859C140.637 48.0859 141.512 48.25 142.277 48.5781C143.043 48.9062 143.645 49.3984 144.082 50.0547C144.527 50.7109 144.75 51.5312 144.75 52.5156V57.9414C144.75 58.6367 144.793 59.207 144.879 59.6523C144.965 60.0898 145.09 60.4727 145.254 60.8008V61H141.844C141.68 60.6562 141.555 60.2266 141.469 59.7109C141.391 59.1875 141.352 58.6641 141.352 58.1406ZM141.797 53.2773L141.82 55.1875H139.934C139.488 55.1875 139.102 55.2383 138.773 55.3398C138.445 55.4414 138.176 55.5859 137.965 55.7734C137.754 55.9531 137.598 56.1641 137.496 56.4062C137.402 56.6484 137.355 56.9141 137.355 57.2031C137.355 57.4922 137.422 57.7539 137.555 57.9883C137.688 58.2148 137.879 58.3945 138.129 58.5273C138.379 58.6523 138.672 58.7148 139.008 58.7148C139.516 58.7148 139.957 58.6133 140.332 58.4102C140.707 58.207 140.996 57.957 141.199 57.6602C141.41 57.3633 141.52 57.082 141.527 56.8164L142.418 58.2461C142.293 58.5664 142.121 58.8984 141.902 59.2422C141.691 59.5859 141.422 59.9102 141.094 60.2148C140.766 60.5117 140.371 60.7578 139.91 60.9531C139.449 61.1406 138.902 61.2344 138.27 61.2344C137.465 61.2344 136.734 61.0742 136.078 60.7539C135.43 60.4258 134.914 59.9766 134.531 59.4062C134.156 58.8281 133.969 58.1719 133.969 57.4375C133.969 56.7734 134.094 56.1836 134.344 55.668C134.594 55.1523 134.961 54.7188 135.445 54.3672C135.938 54.0078 136.551 53.7383 137.285 53.5586C138.02 53.3711 138.871 53.2773 139.84 53.2773H141.797ZM150.656 51.0273V61H147.281V48.3203H150.445L150.656 51.0273ZM150.164 54.2148H149.25C149.25 53.2773 149.371 52.4336 149.613 51.6836C149.855 50.9258 150.195 50.2812 150.633 49.75C151.07 49.2109 151.59 48.8008 152.191 48.5195C152.801 48.2305 153.48 48.0859 154.23 48.0859C154.824 48.0859 155.367 48.1719 155.859 48.3438C156.352 48.5156 156.773 48.7891 157.125 49.1641C157.484 49.5391 157.758 50.0352 157.945 50.6523C158.141 51.2695 158.238 52.0234 158.238 52.9141V61H154.84V52.9023C154.84 52.3398 154.762 51.9023 154.605 51.5898C154.449 51.2773 154.219 51.0586 153.914 50.9336C153.617 50.8008 153.25 50.7344 152.812 50.7344C152.359 50.7344 151.965 50.8242 151.629 51.0039C151.301 51.1836 151.027 51.4336 150.809 51.7539C150.598 52.0664 150.438 52.4336 150.328 52.8555C150.219 53.2773 150.164 53.7305 150.164 54.2148ZM167.016 48.3203V50.7109H159.633V48.3203H167.016ZM161.461 45.1914H164.836V57.1797C164.836 57.5469 164.883 57.8281 164.977 58.0234C165.078 58.2188 165.227 58.3555 165.422 58.4336C165.617 58.5039 165.863 58.5391 166.16 58.5391C166.371 58.5391 166.559 58.5312 166.723 58.5156C166.895 58.4922 167.039 58.4688 167.156 58.4453L167.168 60.9297C166.879 61.0234 166.566 61.0977 166.23 61.1523C165.895 61.207 165.523 61.2344 165.117 61.2344C164.375 61.2344 163.727 61.1133 163.172 60.8711C162.625 60.6211 162.203 60.2227 161.906 59.6758C161.609 59.1289 161.461 58.4102 161.461 57.5195V45.1914ZM176.438 57.9648V48.3203H179.812V61H176.637L176.438 57.9648ZM176.812 55.3633L177.809 55.3398C177.809 56.1836 177.711 56.9688 177.516 57.6953C177.32 58.4141 177.027 59.0391 176.637 59.5703C176.246 60.0938 175.754 60.5039 175.16 60.8008C174.566 61.0898 173.867 61.2344 173.062 61.2344C172.445 61.2344 171.875 61.1484 171.352 60.9766C170.836 60.7969 170.391 60.5195 170.016 60.1445C169.648 59.7617 169.359 59.2734 169.148 58.6797C168.945 58.0781 168.844 57.3555 168.844 56.5117V48.3203H172.219V56.5352C172.219 56.9102 172.262 57.2266 172.348 57.4844C172.441 57.7422 172.57 57.9531 172.734 58.1172C172.898 58.2812 173.09 58.3984 173.309 58.4688C173.535 58.5391 173.785 58.5742 174.059 58.5742C174.754 58.5742 175.301 58.4336 175.699 58.1523C176.105 57.8711 176.391 57.4883 176.555 57.0039C176.727 56.5117 176.812 55.9648 176.812 55.3633ZM185.953 48.3203V61H182.566V48.3203H185.953ZM182.355 45.0156C182.355 44.5234 182.527 44.1172 182.871 43.7969C183.215 43.4766 183.676 43.3164 184.254 43.3164C184.824 43.3164 185.281 43.4766 185.625 43.7969C185.977 44.1172 186.152 44.5234 186.152 45.0156C186.152 45.5078 185.977 45.9141 185.625 46.2344C185.281 46.5547 184.824 46.7148 184.254 46.7148C183.676 46.7148 183.215 46.5547 182.871 46.2344C182.527 45.9141 182.355 45.5078 182.355 45.0156ZM192.047 51.0273V61H188.672V48.3203H191.836L192.047 51.0273ZM191.555 54.2148H190.641C190.641 53.2773 190.762 52.4336 191.004 51.6836C191.246 50.9258 191.586 50.2812 192.023 49.75C192.461 49.2109 192.98 48.8008 193.582 48.5195C194.191 48.2305 194.871 48.0859 195.621 48.0859C196.215 48.0859 196.758 48.1719 197.25 48.3438C197.742 48.5156 198.164 48.7891 198.516 49.1641C198.875 49.5391 199.148 50.0352 199.336 50.6523C199.531 51.2695 199.629 52.0234 199.629 52.9141V61H196.23V52.9023C196.23 52.3398 196.152 51.9023 195.996 51.5898C195.84 51.2773 195.609 51.0586 195.305 50.9336C195.008 50.8008 194.641 50.7344 194.203 50.7344C193.75 50.7344 193.355 50.8242 193.02 51.0039C192.691 51.1836 192.418 51.4336 192.199 51.7539C191.988 52.0664 191.828 52.4336 191.719 52.8555C191.609 53.2773 191.555 53.7305 191.555 54.2148ZM201.656 54.7891V54.543C201.656 53.6133 201.789 52.7578 202.055 51.9766C202.32 51.1875 202.707 50.5039 203.215 49.9258C203.723 49.3477 204.348 48.8984 205.09 48.5781C205.832 48.25 206.684 48.0859 207.645 48.0859C208.605 48.0859 209.461 48.25 210.211 48.5781C210.961 48.8984 211.59 49.3477 212.098 49.9258C212.613 50.5039 213.004 51.1875 213.27 51.9766C213.535 52.7578 213.668 53.6133 213.668 54.543V54.7891C213.668 55.7109 213.535 56.5664 213.27 57.3555C213.004 58.1367 212.613 58.8203 212.098 59.4062C211.59 59.9844 210.965 60.4336 210.223 60.7539C209.48 61.0742 208.629 61.2344 207.668 61.2344C206.707 61.2344 205.852 61.0742 205.102 60.7539C204.359 60.4336 203.73 59.9844 203.215 59.4062C202.707 58.8203 202.32 58.1367 202.055 57.3555C201.789 56.5664 201.656 55.7109 201.656 54.7891ZM205.031 54.543V54.7891C205.031 55.3203 205.078 55.8164 205.172 56.2773C205.266 56.7383 205.414 57.1445 205.617 57.4961C205.828 57.8398 206.102 58.1094 206.438 58.3047C206.773 58.5 207.184 58.5977 207.668 58.5977C208.137 58.5977 208.539 58.5 208.875 58.3047C209.211 58.1094 209.48 57.8398 209.684 57.4961C209.887 57.1445 210.035 56.7383 210.129 56.2773C210.23 55.8164 210.281 55.3203 210.281 54.7891V54.543C210.281 54.0273 210.23 53.543 210.129 53.0898C210.035 52.6289 209.883 52.2227 209.672 51.8711C209.469 51.5117 209.199 51.2305 208.863 51.0273C208.527 50.8242 208.121 50.7227 207.645 50.7227C207.168 50.7227 206.762 50.8242 206.426 51.0273C206.098 51.2305 205.828 51.5117 205.617 51.8711C205.414 52.2227 205.266 52.6289 205.172 53.0898C205.078 53.543 205.031 54.0273 205.031 54.543Z" fill="#888888"/>
<path d="M106.688 119H99.1172L99.1641 112.672H106.688C108.25 112.672 109.57 112.297 110.648 111.547C111.742 110.797 112.57 109.68 113.133 108.195C113.711 106.695 114 104.852 114 102.664V101.188C114 99.5469 113.836 98.1094 113.508 96.875C113.195 95.625 112.727 94.5859 112.102 93.7578C111.477 92.9141 110.695 92.2812 109.758 91.8594C108.836 91.4375 107.773 91.2266 106.57 91.2266H98.9766V84.875H106.57C108.883 84.875 111 85.2734 112.922 86.0703C114.859 86.8516 116.531 87.9766 117.938 89.4453C119.359 90.8984 120.453 92.625 121.219 94.625C122 96.6094 122.391 98.8125 122.391 101.234V102.664C122.391 105.07 122 107.273 121.219 109.273C120.453 111.273 119.367 113 117.961 114.453C116.555 115.906 114.891 117.031 112.969 117.828C111.062 118.609 108.969 119 106.688 119ZM103.828 84.875V119H95.6016V84.875H103.828ZM138.586 119.469C136.523 119.469 134.68 119.148 133.055 118.508C131.43 117.852 130.055 116.953 128.93 115.812C127.82 114.672 126.969 113.359 126.375 111.875C125.797 110.391 125.508 108.82 125.508 107.164V106.273C125.508 104.414 125.766 102.695 126.281 101.117C126.797 99.5234 127.562 98.1328 128.578 96.9453C129.594 95.7578 130.867 94.8359 132.398 94.1797C133.93 93.5078 135.711 93.1719 137.742 93.1719C139.539 93.1719 141.148 93.4609 142.57 94.0391C143.992 94.6172 145.195 95.4453 146.18 96.5234C147.18 97.6016 147.938 98.9062 148.453 100.438C148.984 101.969 149.25 103.688 149.25 105.594V108.805H128.531V103.859H141.539V103.25C141.555 102.406 141.406 101.688 141.094 101.094C140.797 100.5 140.359 100.047 139.781 99.7344C139.203 99.4219 138.5 99.2656 137.672 99.2656C136.812 99.2656 136.102 99.4531 135.539 99.8281C134.992 100.203 134.562 100.719 134.25 101.375C133.953 102.016 133.742 102.758 133.617 103.602C133.492 104.445 133.43 105.336 133.43 106.273V107.164C133.43 108.102 133.555 108.953 133.805 109.719C134.07 110.484 134.445 111.141 134.93 111.688C135.43 112.219 136.023 112.633 136.711 112.93C137.414 113.227 138.211 113.375 139.102 113.375C140.18 113.375 141.242 113.172 142.289 112.766C143.336 112.359 144.234 111.688 144.984 110.75L148.57 115.016C148.055 115.75 147.32 116.461 146.367 117.148C145.43 117.836 144.305 118.398 142.992 118.836C141.68 119.258 140.211 119.469 138.586 119.469ZM160.43 99.0078V119H152.531V93.6406H159.938L160.43 99.0078ZM159.469 105.453L157.664 105.5C157.664 103.719 157.875 102.078 158.297 100.578C158.719 99.0781 159.344 97.7734 160.172 96.6641C161 95.5547 162.016 94.6953 163.219 94.0859C164.438 93.4766 165.844 93.1719 167.438 93.1719C168.547 93.1719 169.555 93.3438 170.461 93.6875C171.367 94.0156 172.148 94.5391 172.805 95.2578C173.461 95.9609 173.961 96.8828 174.305 98.0234C174.664 99.1484 174.844 100.5 174.844 102.078V119H166.945V103.086C166.945 102.008 166.82 101.195 166.57 100.648C166.336 100.102 165.992 99.7344 165.539 99.5469C165.086 99.3594 164.531 99.2656 163.875 99.2656C163.188 99.2656 162.57 99.4219 162.023 99.7344C161.477 100.047 161.008 100.484 160.617 101.047C160.242 101.594 159.953 102.242 159.75 102.992C159.562 103.742 159.469 104.562 159.469 105.453ZM173.953 105.453L171.75 105.5C171.75 103.719 171.945 102.078 172.336 100.578C172.742 99.0781 173.344 97.7734 174.141 96.6641C174.953 95.5547 175.961 94.6953 177.164 94.0859C178.367 93.4766 179.766 93.1719 181.359 93.1719C182.516 93.1719 183.578 93.3438 184.547 93.6875C185.516 94.0312 186.352 94.5859 187.055 95.3516C187.758 96.1172 188.305 97.1328 188.695 98.3984C189.086 99.6484 189.281 101.195 189.281 103.039V119H181.359V103.039C181.359 101.992 181.234 101.203 180.984 100.672C180.75 100.125 180.406 99.7578 179.953 99.5703C179.5 99.3672 178.961 99.2656 178.336 99.2656C177.586 99.2656 176.938 99.4219 176.391 99.7344C175.844 100.047 175.383 100.484 175.008 101.047C174.648 101.594 174.383 102.242 174.211 102.992C174.039 103.742 173.953 104.562 173.953 105.453ZM192.82 106.578V106.086C192.82 104.227 193.086 102.516 193.617 100.953C194.148 99.375 194.93 98.0078 195.961 96.8516C196.992 95.6953 198.266 94.7969 199.781 94.1562C201.297 93.5 203.047 93.1719 205.031 93.1719C207.031 93.1719 208.789 93.5 210.305 94.1562C211.836 94.7969 213.117 95.6953 214.148 96.8516C215.18 98.0078 215.961 99.375 216.492 100.953C217.023 102.516 217.289 104.227 217.289 106.086V106.578C217.289 108.422 217.023 110.133 216.492 111.711C215.961 113.273 215.18 114.641 214.148 115.812C213.117 116.969 211.844 117.867 210.328 118.508C208.812 119.148 207.062 119.469 205.078 119.469C203.094 119.469 201.336 119.148 199.805 118.508C198.273 117.867 196.992 116.969 195.961 115.812C194.93 114.641 194.148 113.273 193.617 111.711C193.086 110.133 192.82 108.422 192.82 106.578ZM200.719 106.086V106.578C200.719 107.531 200.789 108.422 200.93 109.25C201.07 110.078 201.305 110.805 201.633 111.43C201.961 112.039 202.406 112.516 202.969 112.859C203.531 113.203 204.234 113.375 205.078 113.375C205.906 113.375 206.594 113.203 207.141 112.859C207.703 112.516 208.148 112.039 208.477 111.43C208.805 110.805 209.039 110.078 209.18 109.25C209.32 108.422 209.391 107.531 209.391 106.578V106.086C209.391 105.164 209.32 104.297 209.18 103.484C209.039 102.656 208.805 101.93 208.477 101.305C208.148 100.664 207.703 100.164 207.141 99.8047C206.578 99.4453 205.875 99.2656 205.031 99.2656C204.203 99.2656 203.508 99.4453 202.945 99.8047C202.398 100.164 201.961 100.664 201.633 101.305C201.305 101.93 201.07 102.656 200.93 103.484C200.789 104.297 200.719 105.164 200.719 106.086Z" fill="black"/>
<path d="M1134 0H1348C1356.28 0 1363 6.71573 1363 15V148C1363 156.284 1356.28 163 1348 163H1134V0Z" fill="#38D13E"/>
<path d="M1281 46.5H1216L1213.5 49V114L1216 116.5H1281L1283.5 114V49L1281 46.5ZM1278.5 111.5H1233.5V101.5H1245C1246.5 104.5 1250 106.5 1253.5 106.5C1259 106.5 1263.5 102 1263.5 96.5C1263.5 91 1259 86.5 1253.5 86.5C1248 86.5 1243.5 91 1243.5 96.5H1228.5V111.5H1218.5V51.5H1228.5V63C1225.5 64.5 1223.5 68 1223.5 71.5C1223.5 77 1228 81.5 1233.5 81.5C1239 81.5 1243.5 77 1243.5 71.5H1253.5C1253.5 77 1258 81.5 1263.5 81.5C1269 81.5 1273.5 77 1273.5 71.5C1273.5 66 1269 61.5 1263.5 61.5C1260 61.5 1256.5 63.5 1255 66.5H1242C1240.5 63.5 1237 61.5 1233.5 61.5V51.5H1278.5V111.5ZM1248.5 96.5C1248.5 93.5 1250.5 91.5 1253.5 91.5C1256.5 91.5 1258.5 93.5 1258.5 96.5C1258.5 99.5 1256.5 101.5 1253.5 101.5C1250.5 101.5 1248.5 99.5 1248.5 96.5ZM1233.5 66.5C1236.5 66.5 1238.5 68.5 1238.5 71.5C1238.5 74.5 1236.5 76.5 1233.5 76.5C1230.5 76.5 1228.5 74.5 1228.5 71.5C1228.5 68.5 1230.5 66.5 1233.5 66.5ZM1263.5 66.5C1266.5 66.5 1268.5 68.5 1268.5 71.5C1268.5 74.5 1266.5 76.5 1263.5 76.5C1260.5 76.5 1258.5 74.5 1258.5 71.5C1258.5 68.5 1260.5 66.5 1263.5 66.5Z" fill="white"/>
</svg>
