<svg width="1363" height="297" viewBox="0 0 1363 297" fill="none" xmlns="http://www.w3.org/2000/svg">
<path d="M0 15C0 6.71573 6.71573 0 15 0H37V297H15C6.71573 297 0 290.284 0 282V15Z" fill="#38D13E"/>
<path d="M37 0H1066V297H37V0Z" fill="#F0F0F0"/>
<path d="M97.6934 49.4062H102.158L108.732 68.1973L115.307 49.4062H119.771L110.525 75H106.939L97.6934 49.4062ZM95.2852 49.4062H99.7324L100.541 67.7227V75H95.2852V49.4062ZM117.732 49.4062H122.197V75H116.924V67.7227L117.732 49.4062ZM136.77 70.7109V62.2383C136.77 61.6289 136.67 61.1074 136.471 60.6738C136.271 60.2285 135.961 59.8828 135.539 59.6367C135.129 59.3906 134.596 59.2676 133.939 59.2676C133.377 59.2676 132.891 59.3672 132.48 59.5664C132.07 59.7539 131.754 60.0293 131.531 60.3926C131.309 60.7441 131.197 61.1602 131.197 61.6406H126.135C126.135 60.832 126.322 60.0645 126.697 59.3379C127.072 58.6113 127.617 57.9727 128.332 57.4219C129.047 56.8594 129.896 56.4199 130.881 56.1035C131.877 55.7871 132.99 55.6289 134.221 55.6289C135.697 55.6289 137.01 55.875 138.158 56.3672C139.307 56.8594 140.209 57.5977 140.865 58.582C141.533 59.5664 141.867 60.7969 141.867 62.2734V70.4121C141.867 71.4551 141.932 72.3105 142.061 72.9785C142.189 73.6348 142.377 74.209 142.623 74.7012V75H137.508C137.262 74.4844 137.074 73.8398 136.945 73.0664C136.828 72.2812 136.77 71.4961 136.77 70.7109ZM137.438 63.416L137.473 66.2812H134.643C133.975 66.2812 133.395 66.3574 132.902 66.5098C132.41 66.6621 132.006 66.8789 131.689 67.1602C131.373 67.4297 131.139 67.7461 130.986 68.1094C130.846 68.4727 130.775 68.8711 130.775 69.3047C130.775 69.7383 130.875 70.1309 131.074 70.4824C131.273 70.8223 131.561 71.0918 131.936 71.291C132.311 71.4785 132.75 71.5723 133.254 71.5723C134.016 71.5723 134.678 71.4199 135.24 71.1152C135.803 70.8105 136.236 70.4355 136.541 69.9902C136.857 69.5449 137.021 69.123 137.033 68.7246L138.369 70.8691C138.182 71.3496 137.924 71.8477 137.596 72.3633C137.279 72.8789 136.875 73.3652 136.383 73.8223C135.891 74.2676 135.299 74.6367 134.607 74.9297C133.916 75.2109 133.096 75.3516 132.146 75.3516C130.939 75.3516 129.844 75.1113 128.859 74.6309C127.887 74.1387 127.113 73.4648 126.539 72.6094C125.977 71.7422 125.695 70.7578 125.695 69.6562C125.695 68.6602 125.883 67.7754 126.258 67.002C126.633 66.2285 127.184 65.5781 127.91 65.0508C128.648 64.5117 129.568 64.1074 130.67 63.8379C131.771 63.5566 133.049 63.416 134.502 63.416H137.438ZM150.709 48V75H145.646V48H150.709ZM149.988 64.8223H148.6C148.611 63.498 148.787 62.2793 149.127 61.166C149.467 60.041 149.953 59.0684 150.586 58.248C151.219 57.416 151.975 56.7715 152.854 56.3145C153.744 55.8574 154.729 55.6289 155.807 55.6289C156.744 55.6289 157.594 55.7637 158.355 56.0332C159.129 56.291 159.791 56.7129 160.342 57.2988C160.904 57.873 161.338 58.6289 161.643 59.5664C161.947 60.5039 162.1 61.6406 162.1 62.9766V75H157.002V62.9414C157.002 62.0977 156.879 61.4355 156.633 60.9551C156.398 60.4629 156.053 60.1172 155.596 59.918C155.15 59.707 154.6 59.6016 153.943 59.6016C153.217 59.6016 152.596 59.7363 152.08 60.0059C151.576 60.2754 151.172 60.6504 150.867 61.1309C150.562 61.5996 150.34 62.1504 150.199 62.7832C150.059 63.416 149.988 64.0957 149.988 64.8223ZM171.012 59.918V75H165.932V55.9805H170.695L171.012 59.918ZM170.309 64.8223H168.902C168.902 63.498 169.061 62.2793 169.377 61.166C169.705 60.041 170.18 59.0684 170.801 58.248C171.434 57.416 172.213 56.7715 173.139 56.3145C174.064 55.8574 175.137 55.6289 176.355 55.6289C177.199 55.6289 177.973 55.7578 178.676 56.0156C179.379 56.2617 179.982 56.6543 180.486 57.1934C181.002 57.7207 181.4 58.4121 181.682 59.2676C181.963 60.1113 182.104 61.125 182.104 62.3086V75H177.041V62.8711C177.041 62.0039 176.924 61.3359 176.689 60.8672C176.455 60.3984 176.121 60.0703 175.688 59.8828C175.266 59.6953 174.756 59.6016 174.158 59.6016C173.502 59.6016 172.928 59.7363 172.436 60.0059C171.955 60.2754 171.557 60.6504 171.24 61.1309C170.924 61.5996 170.689 62.1504 170.537 62.7832C170.385 63.416 170.309 64.0957 170.309 64.8223ZM181.629 64.2422L179.818 64.4707C179.818 63.2285 179.971 62.0742 180.275 61.0078C180.592 59.9414 181.055 59.0039 181.664 58.1953C182.285 57.3867 183.053 56.7598 183.967 56.3145C184.881 55.8574 185.936 55.6289 187.131 55.6289C188.045 55.6289 188.877 55.7637 189.627 56.0332C190.377 56.291 191.016 56.707 191.543 57.2812C192.082 57.8438 192.492 58.582 192.773 59.4961C193.066 60.4102 193.213 61.5293 193.213 62.8535V75H188.133V62.8535C188.133 61.9746 188.016 61.3066 187.781 60.8496C187.559 60.3809 187.23 60.0586 186.797 59.8828C186.375 59.6953 185.871 59.6016 185.285 59.6016C184.676 59.6016 184.143 59.7246 183.686 59.9707C183.229 60.2051 182.848 60.5332 182.543 60.9551C182.238 61.377 182.01 61.8691 181.857 62.4316C181.705 62.9824 181.629 63.5859 181.629 64.2422ZM196.324 65.6836V65.3145C196.324 63.9199 196.523 62.6367 196.922 61.4648C197.32 60.2812 197.9 59.2559 198.662 58.3887C199.424 57.5215 200.361 56.8477 201.475 56.3672C202.588 55.875 203.865 55.6289 205.307 55.6289C206.748 55.6289 208.031 55.875 209.156 56.3672C210.281 56.8477 211.225 57.5215 211.986 58.3887C212.76 59.2559 213.346 60.2812 213.744 61.4648C214.143 62.6367 214.342 63.9199 214.342 65.3145V65.6836C214.342 67.0664 214.143 68.3496 213.744 69.5332C213.346 70.7051 212.76 71.7305 211.986 72.6094C211.225 73.4766 210.287 74.1504 209.174 74.6309C208.061 75.1113 206.783 75.3516 205.342 75.3516C203.9 75.3516 202.617 75.1113 201.492 74.6309C200.379 74.1504 199.436 73.4766 198.662 72.6094C197.9 71.7305 197.32 70.7051 196.922 69.5332C196.523 68.3496 196.324 67.0664 196.324 65.6836ZM201.387 65.3145V65.6836C201.387 66.4805 201.457 67.2246 201.598 67.916C201.738 68.6074 201.961 69.2168 202.266 69.7441C202.582 70.2598 202.992 70.6641 203.496 70.957C204 71.25 204.615 71.3965 205.342 71.3965C206.045 71.3965 206.648 71.25 207.152 70.957C207.656 70.6641 208.061 70.2598 208.365 69.7441C208.67 69.2168 208.893 68.6074 209.033 67.916C209.186 67.2246 209.262 66.4805 209.262 65.6836V65.3145C209.262 64.541 209.186 63.8145 209.033 63.1348C208.893 62.4434 208.664 61.834 208.348 61.3066C208.043 60.7676 207.639 60.3457 207.135 60.041C206.631 59.7363 206.021 59.584 205.307 59.584C204.592 59.584 203.982 59.7363 203.479 60.041C202.986 60.3457 202.582 60.7676 202.266 61.3066C201.961 61.834 201.738 62.4434 201.598 63.1348C201.457 63.8145 201.387 64.541 201.387 65.3145ZM228.703 70.4473V55.9805H233.766V75H229.002L228.703 70.4473ZM229.266 66.5449L230.76 66.5098C230.76 67.7754 230.613 68.9531 230.32 70.043C230.027 71.1211 229.588 72.0586 229.002 72.8555C228.416 73.6406 227.678 74.2559 226.787 74.7012C225.896 75.1348 224.848 75.3516 223.641 75.3516C222.715 75.3516 221.859 75.2227 221.074 74.9648C220.301 74.6953 219.633 74.2793 219.07 73.7168C218.52 73.1426 218.086 72.4102 217.77 71.5195C217.465 70.6172 217.312 69.5332 217.312 68.2676V55.9805H222.375V68.3027C222.375 68.8652 222.439 69.3398 222.568 69.7266C222.709 70.1133 222.902 70.4297 223.148 70.6758C223.395 70.9219 223.682 71.0977 224.01 71.2031C224.35 71.3086 224.725 71.3613 225.135 71.3613C226.178 71.3613 226.998 71.1504 227.596 70.7285C228.205 70.3066 228.633 69.7324 228.879 69.0059C229.137 68.2676 229.266 67.4473 229.266 66.5449ZM248.865 70.8516V48H253.963V75H249.375L248.865 70.8516ZM236.842 65.7188V65.3496C236.842 63.8965 237.006 62.5781 237.334 61.3945C237.662 60.1992 238.143 59.1738 238.775 58.3184C239.408 57.4629 240.188 56.8008 241.113 56.332C242.039 55.8633 243.094 55.6289 244.277 55.6289C245.391 55.6289 246.363 55.8633 247.195 56.332C248.039 56.8008 248.754 57.4688 249.34 58.3359C249.938 59.1914 250.418 60.2051 250.781 61.377C251.145 62.5371 251.408 63.8086 251.572 65.1914V66C251.408 67.3242 251.145 68.5547 250.781 69.6914C250.418 70.8281 249.938 71.8242 249.34 72.6797C248.754 73.5234 248.039 74.1797 247.195 74.6484C246.352 75.1172 245.367 75.3516 244.242 75.3516C243.059 75.3516 242.004 75.1113 241.078 74.6309C240.164 74.1504 239.391 73.4766 238.758 72.6094C238.137 71.7422 237.662 70.7227 237.334 69.5508C237.006 68.3789 236.842 67.1016 236.842 65.7188ZM241.904 65.3496V65.7188C241.904 66.5039 241.963 67.2363 242.08 67.916C242.209 68.5957 242.414 69.1992 242.695 69.7266C242.988 70.2422 243.363 70.6465 243.82 70.9395C244.289 71.2207 244.857 71.3613 245.525 71.3613C246.393 71.3613 247.107 71.168 247.67 70.7812C248.232 70.3828 248.66 69.8379 248.953 69.1465C249.258 68.4551 249.434 67.6582 249.48 66.7559V64.4531C249.445 63.7148 249.34 63.0527 249.164 62.4668C249 61.8691 248.754 61.3594 248.426 60.9375C248.109 60.5156 247.711 60.1875 247.23 59.9531C246.762 59.7188 246.205 59.6016 245.561 59.6016C244.904 59.6016 244.342 59.7539 243.873 60.0586C243.404 60.3516 243.023 60.7559 242.73 61.2715C242.449 61.7871 242.238 62.3965 242.098 63.0996C241.969 63.791 241.904 64.541 241.904 65.3496ZM277.219 63.7676H270.645L270.609 60.1465H276.129C277.102 60.1465 277.898 60.0234 278.52 59.7773C279.141 59.5195 279.604 59.1504 279.908 58.6699C280.225 58.1777 280.383 57.5801 280.383 56.877C280.383 56.0801 280.23 55.4355 279.926 54.9434C279.633 54.4512 279.17 54.0938 278.537 53.8711C277.916 53.6484 277.113 53.5371 276.129 53.5371H272.473V75H267.199V49.4062H276.129C277.617 49.4062 278.947 49.5469 280.119 49.8281C281.303 50.1094 282.305 50.5371 283.125 51.1113C283.945 51.6855 284.572 52.4121 285.006 53.291C285.439 54.1582 285.656 55.1895 285.656 56.3848C285.656 57.4395 285.416 58.4121 284.936 59.3027C284.467 60.1934 283.723 60.9199 282.703 61.4824C281.695 62.0449 280.377 62.3555 278.748 62.4141L277.219 63.7676ZM276.99 75H269.203L271.26 70.8867H276.99C277.916 70.8867 278.672 70.7402 279.258 70.4473C279.844 70.1426 280.277 69.7324 280.559 69.2168C280.84 68.7012 280.98 68.1094 280.98 67.4414C280.98 66.6914 280.852 66.041 280.594 65.4902C280.348 64.9395 279.949 64.5176 279.398 64.2246C278.848 63.9199 278.121 63.7676 277.219 63.7676H272.139L272.174 60.1465H278.502L279.715 61.5703C281.273 61.5469 282.527 61.8223 283.477 62.3965C284.438 62.959 285.135 63.6914 285.568 64.5938C286.014 65.4961 286.236 66.4629 286.236 67.4941C286.236 69.1348 285.879 70.5176 285.164 71.6426C284.449 72.7559 283.4 73.5938 282.018 74.1562C280.646 74.7188 278.971 75 276.99 75ZM300.141 70.7109V62.2383C300.141 61.6289 300.041 61.1074 299.842 60.6738C299.643 60.2285 299.332 59.8828 298.91 59.6367C298.5 59.3906 297.967 59.2676 297.311 59.2676C296.748 59.2676 296.262 59.3672 295.852 59.5664C295.441 59.7539 295.125 60.0293 294.902 60.3926C294.68 60.7441 294.568 61.1602 294.568 61.6406H289.506C289.506 60.832 289.693 60.0645 290.068 59.3379C290.443 58.6113 290.988 57.9727 291.703 57.4219C292.418 56.8594 293.268 56.4199 294.252 56.1035C295.248 55.7871 296.361 55.6289 297.592 55.6289C299.068 55.6289 300.381 55.875 301.529 56.3672C302.678 56.8594 303.58 57.5977 304.236 58.582C304.904 59.5664 305.238 60.7969 305.238 62.2734V70.4121C305.238 71.4551 305.303 72.3105 305.432 72.9785C305.561 73.6348 305.748 74.209 305.994 74.7012V75H300.879C300.633 74.4844 300.445 73.8398 300.316 73.0664C300.199 72.2812 300.141 71.4961 300.141 70.7109ZM300.809 63.416L300.844 66.2812H298.014C297.346 66.2812 296.766 66.3574 296.273 66.5098C295.781 66.6621 295.377 66.8789 295.061 67.1602C294.744 67.4297 294.51 67.7461 294.357 68.1094C294.217 68.4727 294.146 68.8711 294.146 69.3047C294.146 69.7383 294.246 70.1309 294.445 70.4824C294.645 70.8223 294.932 71.0918 295.307 71.291C295.682 71.4785 296.121 71.5723 296.625 71.5723C297.387 71.5723 298.049 71.4199 298.611 71.1152C299.174 70.8105 299.607 70.4355 299.912 69.9902C300.229 69.5449 300.393 69.123 300.404 68.7246L301.74 70.8691C301.553 71.3496 301.295 71.8477 300.967 72.3633C300.65 72.8789 300.246 73.3652 299.754 73.8223C299.262 74.2676 298.67 74.6367 297.979 74.9297C297.287 75.2109 296.467 75.3516 295.518 75.3516C294.311 75.3516 293.215 75.1113 292.23 74.6309C291.258 74.1387 290.484 73.4648 289.91 72.6094C289.348 71.7422 289.066 70.7578 289.066 69.6562C289.066 68.6602 289.254 67.7754 289.629 67.002C290.004 66.2285 290.555 65.5781 291.281 65.0508C292.02 64.5117 292.939 64.1074 294.041 63.8379C295.143 63.5566 296.42 63.416 297.873 63.416H300.809ZM314.203 47.9824V75H309.141V47.9824H314.203ZM326.191 55.9805L317.93 65.4023L313.5 69.8848L311.654 66.2285L315.17 61.7637L320.109 55.9805H326.191ZM320.936 75L315.311 66.2109L318.809 63.1523L326.771 75H320.936ZM333.715 55.9805V75H328.635V55.9805H333.715ZM328.318 51.0234C328.318 50.2852 328.576 49.6758 329.092 49.1953C329.607 48.7148 330.299 48.4746 331.166 48.4746C332.021 48.4746 332.707 48.7148 333.223 49.1953C333.75 49.6758 334.014 50.2852 334.014 51.0234C334.014 51.7617 333.75 52.3711 333.223 52.8516C332.707 53.332 332.021 53.5723 331.166 53.5723C330.299 53.5723 329.607 53.332 329.092 52.8516C328.576 52.3711 328.318 51.7617 328.318 51.0234ZM342.961 60.1289V75H337.898V55.9805H342.662L342.961 60.1289ZM348.691 55.8574L348.604 60.5508C348.357 60.5156 348.059 60.4863 347.707 60.4629C347.367 60.4277 347.057 60.4102 346.775 60.4102C346.061 60.4102 345.439 60.5039 344.912 60.6914C344.396 60.8672 343.963 61.1309 343.611 61.4824C343.271 61.834 343.014 62.2617 342.838 62.7656C342.674 63.2695 342.58 63.8438 342.557 64.4883L341.537 64.1719C341.537 62.9414 341.66 61.8105 341.906 60.7793C342.152 59.7363 342.51 58.8281 342.979 58.0547C343.459 57.2812 344.045 56.6836 344.736 56.2617C345.428 55.8398 346.219 55.6289 347.109 55.6289C347.391 55.6289 347.678 55.6523 347.971 55.6992C348.264 55.7344 348.504 55.7871 348.691 55.8574Z" fill="#888888"/>
<path d="M111.922 126.492H102.023V119.082H111.922C113.271 119.082 114.365 118.854 115.203 118.398C116.042 117.943 116.652 117.314 117.035 116.512C117.436 115.691 117.637 114.771 117.637 113.75C117.637 112.656 117.436 111.645 117.035 110.715C116.652 109.785 116.042 109.038 115.203 108.473C114.365 107.889 113.271 107.598 111.922 107.598H105.633V140H96.0352V100.188H111.922C115.112 100.188 117.855 100.771 120.152 101.938C122.467 103.104 124.245 104.708 125.484 106.75C126.724 108.773 127.344 111.089 127.344 113.695C127.344 116.266 126.724 118.508 125.484 120.422C124.245 122.336 122.467 123.831 120.152 124.906C117.855 125.964 115.112 126.492 111.922 126.492ZM141.809 98V140H132.566V98H141.809ZM162.863 132.562V120.367C162.863 119.529 162.745 118.809 162.508 118.207C162.271 117.605 161.897 117.141 161.387 116.812C160.876 116.466 160.193 116.293 159.336 116.293C158.643 116.293 158.051 116.411 157.559 116.648C157.066 116.885 156.693 117.241 156.438 117.715C156.182 118.189 156.055 118.79 156.055 119.52H146.84C146.84 118.152 147.141 116.885 147.742 115.719C148.362 114.534 149.237 113.504 150.367 112.629C151.516 111.754 152.883 111.079 154.469 110.605C156.073 110.113 157.859 109.867 159.828 109.867C162.18 109.867 164.276 110.259 166.117 111.043C167.977 111.827 169.444 113.003 170.52 114.57C171.595 116.12 172.133 118.07 172.133 120.422V132.535C172.133 134.467 172.242 135.935 172.461 136.938C172.68 137.922 172.99 138.788 173.391 139.535V140H164.148C163.711 139.089 163.383 137.977 163.164 136.664C162.964 135.333 162.863 133.966 162.863 132.562ZM163.984 121.926L164.039 126.848H159.965C159.108 126.848 158.379 126.966 157.777 127.203C157.194 127.44 156.72 127.768 156.355 128.188C156.009 128.589 155.754 129.044 155.59 129.555C155.444 130.065 155.371 130.603 155.371 131.168C155.371 131.715 155.499 132.207 155.754 132.645C156.027 133.064 156.392 133.392 156.848 133.629C157.303 133.866 157.814 133.984 158.379 133.984C159.4 133.984 160.266 133.793 160.977 133.41C161.706 133.009 162.262 132.526 162.645 131.961C163.027 131.396 163.219 130.867 163.219 130.375L165.242 134.148C164.878 134.878 164.458 135.616 163.984 136.363C163.529 137.111 162.954 137.803 162.262 138.441C161.587 139.061 160.758 139.572 159.773 139.973C158.789 140.355 157.595 140.547 156.191 140.547C154.368 140.547 152.691 140.173 151.16 139.426C149.647 138.678 148.435 137.639 147.523 136.309C146.612 134.96 146.156 133.41 146.156 131.66C146.156 130.129 146.43 128.762 146.977 127.559C147.542 126.355 148.389 125.335 149.52 124.496C150.65 123.658 152.09 123.02 153.84 122.582C155.59 122.145 157.65 121.926 160.02 121.926H163.984ZM186.297 116.73V140H177.082V110.414H185.723L186.297 116.73ZM185.203 124.195L183.043 124.25C183.043 121.99 183.316 119.975 183.863 118.207C184.41 116.421 185.185 114.908 186.188 113.668C187.19 112.428 188.384 111.49 189.77 110.852C191.173 110.195 192.732 109.867 194.445 109.867C195.812 109.867 197.061 110.068 198.191 110.469C199.34 110.87 200.324 111.517 201.145 112.41C201.983 113.303 202.621 114.488 203.059 115.965C203.514 117.423 203.742 119.228 203.742 121.379V140H194.473V121.352C194.473 120.167 194.309 119.264 193.98 118.645C193.652 118.007 193.178 117.569 192.559 117.332C191.939 117.095 191.182 116.977 190.289 116.977C189.341 116.977 188.539 117.159 187.883 117.523C187.227 117.888 186.698 118.398 186.297 119.055C185.914 119.693 185.632 120.449 185.449 121.324C185.285 122.199 185.203 123.156 185.203 124.195ZM224.441 110.414V116.812H206.613V110.414H224.441ZM210.359 103.059H219.574V130.348C219.574 131.132 219.665 131.742 219.848 132.18C220.03 132.599 220.34 132.9 220.777 133.082C221.233 133.246 221.835 133.328 222.582 133.328C223.111 133.328 223.548 133.319 223.895 133.301C224.241 133.264 224.569 133.219 224.879 133.164V139.754C224.095 140.009 223.275 140.201 222.418 140.328C221.561 140.474 220.65 140.547 219.684 140.547C217.715 140.547 216.029 140.237 214.625 139.617C213.24 138.997 212.182 138.022 211.453 136.691C210.724 135.361 210.359 133.629 210.359 131.496V103.059ZM245.387 132.809V110.414H254.629V140H245.988L245.387 132.809ZM246.262 126.793L248.668 126.738C248.668 128.725 248.431 130.566 247.957 132.262C247.483 133.939 246.781 135.397 245.852 136.637C244.94 137.876 243.81 138.842 242.461 139.535C241.13 140.21 239.59 140.547 237.84 140.547C236.382 140.547 235.042 140.346 233.82 139.945C232.617 139.526 231.578 138.879 230.703 138.004C229.828 137.111 229.145 135.971 228.652 134.586C228.178 133.182 227.941 131.505 227.941 129.555V110.414H237.156V129.609C237.156 130.266 237.238 130.831 237.402 131.305C237.566 131.779 237.803 132.18 238.113 132.508C238.423 132.818 238.806 133.055 239.262 133.219C239.736 133.365 240.273 133.438 240.875 133.438C242.26 133.438 243.345 133.146 244.129 132.562C244.913 131.979 245.46 131.186 245.77 130.184C246.098 129.181 246.262 128.051 246.262 126.793ZM269.449 110.414V140H260.207V110.414H269.449ZM259.66 102.785C259.66 101.473 260.134 100.397 261.082 99.5586C262.03 98.7201 263.26 98.3008 264.773 98.3008C266.286 98.3008 267.517 98.7201 268.465 99.5586C269.413 100.397 269.887 101.473 269.887 102.785C269.887 104.098 269.413 105.173 268.465 106.012C267.517 106.85 266.286 107.27 264.773 107.27C263.26 107.27 262.03 106.85 261.082 106.012C260.134 105.173 259.66 104.098 259.66 102.785ZM284.188 116.73V140H274.973V110.414H283.613L284.188 116.73ZM283.094 124.195L280.934 124.25C280.934 121.99 281.207 119.975 281.754 118.207C282.301 116.421 283.076 114.908 284.078 113.668C285.081 112.428 286.275 111.49 287.66 110.852C289.064 110.195 290.622 109.867 292.336 109.867C293.703 109.867 294.952 110.068 296.082 110.469C297.23 110.87 298.215 111.517 299.035 112.41C299.874 113.303 300.512 114.488 300.949 115.965C301.405 117.423 301.633 119.228 301.633 121.379V140H292.363V121.352C292.363 120.167 292.199 119.264 291.871 118.645C291.543 118.007 291.069 117.569 290.449 117.332C289.829 117.095 289.073 116.977 288.18 116.977C287.232 116.977 286.43 117.159 285.773 117.523C285.117 117.888 284.589 118.398 284.188 119.055C283.805 119.693 283.522 120.449 283.34 121.324C283.176 122.199 283.094 123.156 283.094 124.195ZM305.598 125.508V124.934C305.598 122.764 305.908 120.768 306.527 118.945C307.147 117.104 308.059 115.509 309.262 114.16C310.465 112.811 311.951 111.763 313.719 111.016C315.487 110.25 317.529 109.867 319.844 109.867C322.177 109.867 324.228 110.25 325.996 111.016C327.783 111.763 329.277 112.811 330.48 114.16C331.684 115.509 332.595 117.104 333.215 118.945C333.835 120.768 334.145 122.764 334.145 124.934V125.508C334.145 127.659 333.835 129.655 333.215 131.496C332.595 133.319 331.684 134.914 330.48 136.281C329.277 137.63 327.792 138.678 326.023 139.426C324.255 140.173 322.214 140.547 319.898 140.547C317.583 140.547 315.533 140.173 313.746 139.426C311.96 138.678 310.465 137.63 309.262 136.281C308.059 134.914 307.147 133.319 306.527 131.496C305.908 129.655 305.598 127.659 305.598 125.508ZM314.812 124.934V125.508C314.812 126.62 314.895 127.659 315.059 128.625C315.223 129.591 315.496 130.439 315.879 131.168C316.262 131.879 316.781 132.435 317.438 132.836C318.094 133.237 318.914 133.438 319.898 133.438C320.865 133.438 321.667 133.237 322.305 132.836C322.961 132.435 323.48 131.879 323.863 131.168C324.246 130.439 324.52 129.591 324.684 128.625C324.848 127.659 324.93 126.62 324.93 125.508V124.934C324.93 123.858 324.848 122.846 324.684 121.898C324.52 120.932 324.246 120.085 323.863 119.355C323.48 118.608 322.961 118.025 322.305 117.605C321.648 117.186 320.828 116.977 319.844 116.977C318.878 116.977 318.066 117.186 317.41 117.605C316.772 118.025 316.262 118.608 315.879 119.355C315.496 120.085 315.223 120.932 315.059 121.898C314.895 122.846 314.812 123.858 314.812 124.934Z" fill="black"/>
<rect x="93" y="178" width="917" height="77" rx="10" fill="#D3D3D3"/>
<rect x="111" y="196" width="148" height="41" rx="3" fill="#424242"/>
<path d="M134.234 210.203H139.271C140.255 210.203 141.11 210.35 141.837 210.643C142.563 210.936 143.123 211.369 143.516 211.943C143.914 212.518 144.113 213.227 144.113 214.07C144.113 214.803 143.999 215.415 143.771 215.907C143.542 216.399 143.223 216.807 142.812 217.129C142.408 217.445 141.937 217.706 141.397 217.911L140.387 218.482H136.159L136.142 216.101H139.271C139.663 216.101 139.988 216.03 140.246 215.89C140.504 215.749 140.697 215.55 140.826 215.292C140.961 215.028 141.028 214.715 141.028 214.352C141.028 213.982 140.961 213.666 140.826 213.402C140.691 213.139 140.492 212.937 140.229 212.796C139.971 212.655 139.651 212.585 139.271 212.585H137.319V223H134.234V210.203ZM141.239 223L138.409 217.34L141.679 217.322L144.544 222.868V223H141.239ZM150.441 223.176C149.668 223.176 148.977 223.056 148.367 222.815C147.758 222.569 147.242 222.232 146.82 221.805C146.404 221.377 146.085 220.885 145.862 220.328C145.646 219.771 145.537 219.183 145.537 218.562V218.228C145.537 217.53 145.634 216.886 145.827 216.294C146.021 215.696 146.308 215.175 146.688 214.729C147.069 214.284 147.547 213.938 148.121 213.692C148.695 213.44 149.363 213.314 150.125 213.314C150.799 213.314 151.402 213.423 151.936 213.64C152.469 213.856 152.92 214.167 153.289 214.571C153.664 214.976 153.948 215.465 154.142 216.039C154.341 216.613 154.44 217.258 154.44 217.973V219.177H146.671V217.322H151.549V217.094C151.555 216.777 151.499 216.508 151.382 216.285C151.271 216.062 151.106 215.893 150.89 215.775C150.673 215.658 150.409 215.6 150.099 215.6C149.776 215.6 149.51 215.67 149.299 215.811C149.094 215.951 148.933 216.145 148.815 216.391C148.704 216.631 148.625 216.909 148.578 217.226C148.531 217.542 148.508 217.876 148.508 218.228V218.562C148.508 218.913 148.555 219.232 148.648 219.52C148.748 219.807 148.889 220.053 149.07 220.258C149.258 220.457 149.48 220.612 149.738 220.724C150.002 220.835 150.301 220.891 150.635 220.891C151.039 220.891 151.438 220.814 151.83 220.662C152.223 220.51 152.56 220.258 152.841 219.906L154.186 221.506C153.992 221.781 153.717 222.048 153.359 222.306C153.008 222.563 152.586 222.774 152.094 222.938C151.602 223.097 151.051 223.176 150.441 223.176ZM160.584 220.609V216.689C160.584 216.42 160.546 216.188 160.47 215.995C160.394 215.802 160.273 215.652 160.109 215.547C159.945 215.436 159.726 215.38 159.45 215.38C159.228 215.38 159.037 215.418 158.879 215.494C158.721 215.57 158.601 215.685 158.519 215.837C158.437 215.989 158.396 216.183 158.396 216.417H155.434C155.434 215.978 155.53 215.57 155.724 215.195C155.923 214.814 156.204 214.483 156.567 214.202C156.937 213.921 157.376 213.704 157.886 213.552C158.401 213.394 158.976 213.314 159.608 213.314C160.364 213.314 161.038 213.44 161.63 213.692C162.228 213.944 162.699 214.322 163.045 214.826C163.391 215.324 163.563 215.951 163.563 216.707V220.601C163.563 221.222 163.599 221.693 163.669 222.016C163.739 222.332 163.839 222.61 163.968 222.851V223H160.997C160.856 222.707 160.751 222.35 160.681 221.928C160.616 221.5 160.584 221.061 160.584 220.609ZM160.944 217.19L160.962 218.772H159.652C159.377 218.772 159.143 218.811 158.949 218.887C158.762 218.963 158.609 219.068 158.492 219.203C158.381 219.332 158.299 219.479 158.246 219.643C158.199 219.807 158.176 219.979 158.176 220.161C158.176 220.337 158.217 220.495 158.299 220.636C158.387 220.771 158.504 220.876 158.65 220.952C158.797 221.028 158.961 221.066 159.143 221.066C159.471 221.066 159.749 221.005 159.978 220.882C160.212 220.753 160.391 220.598 160.514 220.416C160.637 220.234 160.698 220.064 160.698 219.906L161.349 221.119C161.231 221.354 161.097 221.591 160.944 221.831C160.798 222.071 160.613 222.294 160.391 222.499C160.174 222.698 159.907 222.862 159.591 222.991C159.274 223.114 158.891 223.176 158.439 223.176C157.854 223.176 157.314 223.056 156.822 222.815C156.336 222.575 155.946 222.241 155.653 221.813C155.36 221.38 155.214 220.882 155.214 220.319C155.214 219.827 155.302 219.388 155.478 219.001C155.659 218.614 155.932 218.286 156.295 218.017C156.658 217.747 157.121 217.542 157.684 217.401C158.246 217.261 158.908 217.19 159.67 217.19H160.944ZM169.224 220.891C169.499 220.891 169.733 220.841 169.927 220.741C170.126 220.636 170.275 220.489 170.375 220.302C170.48 220.108 170.53 219.877 170.524 219.607H173.311C173.316 220.322 173.141 220.949 172.783 221.488C172.432 222.021 171.951 222.438 171.342 222.736C170.738 223.029 170.056 223.176 169.294 223.176C168.55 223.176 167.899 223.056 167.343 222.815C166.786 222.569 166.32 222.229 165.945 221.796C165.576 221.356 165.298 220.844 165.11 220.258C164.929 219.672 164.838 219.036 164.838 218.351V218.148C164.838 217.463 164.929 216.827 165.11 216.241C165.298 215.649 165.576 215.137 165.945 214.703C166.32 214.264 166.783 213.924 167.334 213.684C167.891 213.438 168.538 213.314 169.276 213.314C170.067 213.314 170.765 213.464 171.368 213.763C171.978 214.062 172.455 214.495 172.801 215.063C173.146 215.632 173.316 216.32 173.311 217.129H170.524C170.53 216.842 170.486 216.584 170.393 216.355C170.299 216.127 170.152 215.945 169.953 215.811C169.76 215.67 169.511 215.6 169.206 215.6C168.901 215.6 168.655 215.667 168.468 215.802C168.28 215.937 168.137 216.124 168.037 216.364C167.943 216.599 167.879 216.868 167.844 217.173C167.814 217.478 167.8 217.803 167.8 218.148V218.351C167.8 218.702 167.814 219.033 167.844 219.344C167.879 219.648 167.946 219.918 168.046 220.152C168.146 220.381 168.289 220.562 168.477 220.697C168.664 220.826 168.913 220.891 169.224 220.891ZM179.586 213.49V215.547H173.855V213.49H179.586ZM175.06 211.126H178.021V219.897C178.021 220.149 178.051 220.346 178.109 220.486C178.168 220.621 178.268 220.718 178.408 220.776C178.555 220.829 178.748 220.855 178.988 220.855C179.158 220.855 179.299 220.853 179.41 220.847C179.521 220.835 179.627 220.82 179.727 220.803V222.921C179.475 223.003 179.211 223.064 178.936 223.105C178.66 223.152 178.367 223.176 178.057 223.176C177.424 223.176 176.882 223.076 176.431 222.877C175.985 222.678 175.646 222.364 175.411 221.937C175.177 221.509 175.06 220.952 175.06 220.267V211.126ZM196.074 210.203V223H192.998L188.472 215.037V223H185.387V210.203H188.472L192.998 218.166V210.203H196.074ZM202.824 220.609V216.689C202.824 216.42 202.786 216.188 202.71 215.995C202.634 215.802 202.514 215.652 202.35 215.547C202.186 215.436 201.966 215.38 201.69 215.38C201.468 215.38 201.277 215.418 201.119 215.494C200.961 215.57 200.841 215.685 200.759 215.837C200.677 215.989 200.636 216.183 200.636 216.417H197.674C197.674 215.978 197.771 215.57 197.964 215.195C198.163 214.814 198.444 214.483 198.808 214.202C199.177 213.921 199.616 213.704 200.126 213.552C200.642 213.394 201.216 213.314 201.849 213.314C202.604 213.314 203.278 213.44 203.87 213.692C204.468 213.944 204.939 214.322 205.285 214.826C205.631 215.324 205.804 215.951 205.804 216.707V220.601C205.804 221.222 205.839 221.693 205.909 222.016C205.979 222.332 206.079 222.61 206.208 222.851V223H203.237C203.097 222.707 202.991 222.35 202.921 221.928C202.856 221.5 202.824 221.061 202.824 220.609ZM203.185 217.19L203.202 218.772H201.893C201.617 218.772 201.383 218.811 201.189 218.887C201.002 218.963 200.85 219.068 200.732 219.203C200.621 219.332 200.539 219.479 200.486 219.643C200.439 219.807 200.416 219.979 200.416 220.161C200.416 220.337 200.457 220.495 200.539 220.636C200.627 220.771 200.744 220.876 200.891 220.952C201.037 221.028 201.201 221.066 201.383 221.066C201.711 221.066 201.989 221.005 202.218 220.882C202.452 220.753 202.631 220.598 202.754 220.416C202.877 220.234 202.938 220.064 202.938 219.906L203.589 221.119C203.472 221.354 203.337 221.591 203.185 221.831C203.038 222.071 202.854 222.294 202.631 222.499C202.414 222.698 202.147 222.862 201.831 222.991C201.515 223.114 201.131 223.176 200.68 223.176C200.094 223.176 199.555 223.056 199.062 222.815C198.576 222.575 198.187 222.241 197.894 221.813C197.601 221.38 197.454 220.882 197.454 220.319C197.454 219.827 197.542 219.388 197.718 219.001C197.899 218.614 198.172 218.286 198.535 218.017C198.898 217.747 199.361 217.542 199.924 217.401C200.486 217.261 201.148 217.19 201.91 217.19H203.185ZM212.457 213.49V215.547H206.727V213.49H212.457ZM207.931 211.126H210.893V219.897C210.893 220.149 210.922 220.346 210.98 220.486C211.039 220.621 211.139 220.718 211.279 220.776C211.426 220.829 211.619 220.855 211.859 220.855C212.029 220.855 212.17 220.853 212.281 220.847C212.393 220.835 212.498 220.82 212.598 220.803V222.921C212.346 223.003 212.082 223.064 211.807 223.105C211.531 223.152 211.238 223.176 210.928 223.176C210.295 223.176 209.753 223.076 209.302 222.877C208.856 222.678 208.517 222.364 208.282 221.937C208.048 221.509 207.931 220.952 207.931 220.267V211.126ZM216.764 213.49V223H213.793V213.49H216.764ZM213.617 211.038C213.617 210.616 213.77 210.271 214.074 210.001C214.379 209.731 214.774 209.597 215.261 209.597C215.747 209.597 216.143 209.731 216.447 210.001C216.752 210.271 216.904 210.616 216.904 211.038C216.904 211.46 216.752 211.806 216.447 212.075C216.143 212.345 215.747 212.479 215.261 212.479C214.774 212.479 214.379 212.345 214.074 212.075C213.77 211.806 213.617 211.46 213.617 211.038ZM222.02 220.97L223.892 213.49H227.012L223.9 223H222.055L222.02 220.97ZM220.912 213.49L222.758 220.97L222.74 223H220.886L217.783 213.49H220.912ZM232.373 223.176C231.6 223.176 230.908 223.056 230.299 222.815C229.689 222.569 229.174 222.232 228.752 221.805C228.336 221.377 228.017 220.885 227.794 220.328C227.577 219.771 227.469 219.183 227.469 218.562V218.228C227.469 217.53 227.565 216.886 227.759 216.294C227.952 215.696 228.239 215.175 228.62 214.729C229.001 214.284 229.479 213.938 230.053 213.692C230.627 213.44 231.295 213.314 232.057 213.314C232.73 213.314 233.334 213.423 233.867 213.64C234.4 213.856 234.852 214.167 235.221 214.571C235.596 214.976 235.88 215.465 236.073 216.039C236.272 216.613 236.372 217.258 236.372 217.973V219.177H228.603V217.322H233.48V217.094C233.486 216.777 233.431 216.508 233.313 216.285C233.202 216.062 233.038 215.893 232.821 215.775C232.604 215.658 232.341 215.6 232.03 215.6C231.708 215.6 231.441 215.67 231.23 215.811C231.025 215.951 230.864 216.145 230.747 216.391C230.636 216.631 230.557 216.909 230.51 217.226C230.463 217.542 230.439 217.876 230.439 218.228V218.562C230.439 218.913 230.486 219.232 230.58 219.52C230.68 219.807 230.82 220.053 231.002 220.258C231.189 220.457 231.412 220.612 231.67 220.724C231.934 220.835 232.232 220.891 232.566 220.891C232.971 220.891 233.369 220.814 233.762 220.662C234.154 220.51 234.491 220.258 234.772 219.906L236.117 221.506C235.924 221.781 235.648 222.048 235.291 222.306C234.939 222.563 234.518 222.774 234.025 222.938C233.533 223.097 232.982 223.176 232.373 223.176Z" fill="white"/>
<rect x="111" y="196" width="148" height="41" rx="3" stroke="#424242" stroke-width="4"/>
<rect x="279" y="196" width="130" height="41" rx="3" fill="#424242"/>
<path d="M310.883 220.627V223H304.062V220.627H310.883ZM305.161 210.203V223H302.076V210.203H305.161ZM310.004 215.283V217.577H304.062V215.283H310.004ZM310.909 210.203V212.585H304.062V210.203H310.909ZM314.521 213.49L315.857 216.109L317.237 213.49H320.313L317.817 218.122L320.445 223H317.343L315.857 220.188L314.381 223H311.278L313.906 218.122L311.419 213.49H314.521ZM324.277 215.318V226.656H321.315V213.49H324.075L324.277 215.318ZM330.113 218.131V218.315C330.113 219.007 330.034 219.648 329.876 220.24C329.718 220.832 329.483 221.348 329.173 221.787C328.862 222.227 328.476 222.569 328.013 222.815C327.556 223.056 327.025 223.176 326.422 223.176C325.854 223.176 325.364 223.05 324.954 222.798C324.544 222.546 324.201 222.197 323.926 221.752C323.65 221.307 323.428 220.797 323.258 220.223C323.088 219.648 322.953 219.042 322.854 218.403V218.166C322.953 217.48 323.088 216.845 323.258 216.259C323.428 215.667 323.65 215.151 323.926 214.712C324.201 214.272 324.541 213.93 324.945 213.684C325.355 213.438 325.845 213.314 326.413 213.314C327.017 213.314 327.547 213.429 328.004 213.657C328.467 213.886 328.854 214.214 329.164 214.642C329.48 215.063 329.718 215.57 329.876 216.162C330.034 216.754 330.113 217.41 330.113 218.131ZM327.151 218.315V218.131C327.151 217.762 327.125 217.425 327.072 217.12C327.02 216.81 326.935 216.54 326.817 216.312C326.706 216.083 326.557 215.907 326.369 215.784C326.182 215.661 325.95 215.6 325.675 215.6C325.358 215.6 325.092 215.649 324.875 215.749C324.664 215.843 324.494 215.989 324.365 216.188C324.242 216.382 324.154 216.625 324.102 216.918C324.055 217.205 324.034 217.542 324.04 217.929V218.649C324.028 219.095 324.072 219.487 324.172 219.827C324.271 220.161 324.444 220.422 324.69 220.609C324.937 220.797 325.271 220.891 325.692 220.891C325.974 220.891 326.208 220.826 326.396 220.697C326.583 220.562 326.732 220.378 326.844 220.144C326.955 219.903 327.034 219.628 327.081 219.317C327.128 219.007 327.151 218.673 327.151 218.315ZM334.42 215.846V223H331.458V213.49H334.227L334.42 215.846ZM337.232 213.42L337.18 216.171C337.062 216.159 336.904 216.145 336.705 216.127C336.506 216.109 336.339 216.101 336.204 216.101C335.858 216.101 335.56 216.142 335.308 216.224C335.062 216.3 334.856 216.417 334.692 216.575C334.534 216.728 334.417 216.921 334.341 217.155C334.271 217.39 334.238 217.662 334.244 217.973L333.708 217.621C333.708 216.982 333.77 216.402 333.893 215.881C334.021 215.354 334.203 214.899 334.438 214.519C334.672 214.132 334.956 213.836 335.29 213.631C335.624 213.42 335.999 213.314 336.415 213.314C336.562 213.314 336.705 213.323 336.846 213.341C336.992 213.358 337.121 213.385 337.232 213.42ZM342.682 223.176C341.908 223.176 341.217 223.056 340.607 222.815C339.998 222.569 339.482 222.232 339.061 221.805C338.645 221.377 338.325 220.885 338.103 220.328C337.886 219.771 337.777 219.183 337.777 218.562V218.228C337.777 217.53 337.874 216.886 338.067 216.294C338.261 215.696 338.548 215.175 338.929 214.729C339.31 214.284 339.787 213.938 340.361 213.692C340.936 213.44 341.604 213.314 342.365 213.314C343.039 213.314 343.643 213.423 344.176 213.64C344.709 213.856 345.16 214.167 345.529 214.571C345.904 214.976 346.188 215.465 346.382 216.039C346.581 216.613 346.681 217.258 346.681 217.973V219.177H338.911V217.322H343.789V217.094C343.795 216.777 343.739 216.508 343.622 216.285C343.511 216.062 343.347 215.893 343.13 215.775C342.913 215.658 342.649 215.6 342.339 215.6C342.017 215.6 341.75 215.67 341.539 215.811C341.334 215.951 341.173 216.145 341.056 216.391C340.944 216.631 340.865 216.909 340.818 217.226C340.771 217.542 340.748 217.876 340.748 218.228V218.562C340.748 218.913 340.795 219.232 340.889 219.52C340.988 219.807 341.129 220.053 341.311 220.258C341.498 220.457 341.721 220.612 341.979 220.724C342.242 220.835 342.541 220.891 342.875 220.891C343.279 220.891 343.678 220.814 344.07 220.662C344.463 220.51 344.8 220.258 345.081 219.906L346.426 221.506C346.232 221.781 345.957 222.048 345.6 222.306C345.248 222.563 344.826 222.774 344.334 222.938C343.842 223.097 343.291 223.176 342.682 223.176ZM352.868 220.328C352.868 220.164 352.812 220.023 352.701 219.906C352.596 219.783 352.408 219.672 352.139 219.572C351.869 219.467 351.491 219.361 351.005 219.256C350.542 219.156 350.105 219.024 349.695 218.86C349.291 218.696 348.937 218.497 348.632 218.263C348.327 218.028 348.087 217.75 347.911 217.428C347.741 217.105 347.656 216.736 347.656 216.32C347.656 215.916 347.741 215.535 347.911 215.178C348.087 214.814 348.342 214.495 348.676 214.22C349.016 213.938 349.429 213.719 349.915 213.561C350.401 213.396 350.955 213.314 351.576 213.314C352.432 213.314 353.17 213.446 353.791 213.71C354.412 213.968 354.89 214.331 355.224 214.8C355.563 215.263 355.733 215.799 355.733 216.408H352.771C352.771 216.168 352.73 215.963 352.648 215.793C352.572 215.623 352.446 215.494 352.271 215.406C352.095 215.312 351.86 215.266 351.567 215.266C351.362 215.266 351.175 215.304 351.005 215.38C350.841 215.456 350.709 215.562 350.609 215.696C350.51 215.831 350.46 215.989 350.46 216.171C350.46 216.3 350.489 216.417 350.548 216.522C350.612 216.622 350.709 216.716 350.838 216.804C350.967 216.886 351.131 216.962 351.33 217.032C351.529 217.097 351.77 217.155 352.051 217.208C352.689 217.325 353.287 217.492 353.844 217.709C354.4 217.926 354.852 218.233 355.197 218.632C355.549 219.03 355.725 219.566 355.725 220.24C355.725 220.662 355.628 221.052 355.435 221.409C355.241 221.761 354.963 222.071 354.6 222.341C354.236 222.604 353.8 222.81 353.29 222.956C352.78 223.103 352.206 223.176 351.567 223.176C350.659 223.176 349.892 223.015 349.265 222.692C348.638 222.364 348.163 221.954 347.841 221.462C347.524 220.964 347.366 220.46 347.366 219.95H350.126C350.138 220.243 350.208 220.483 350.337 220.671C350.472 220.858 350.65 220.996 350.873 221.084C351.096 221.172 351.354 221.216 351.646 221.216C351.916 221.216 352.139 221.178 352.314 221.102C352.496 221.025 352.634 220.923 352.728 220.794C352.821 220.659 352.868 220.504 352.868 220.328ZM362.097 220.328C362.097 220.164 362.041 220.023 361.93 219.906C361.824 219.783 361.637 219.672 361.367 219.572C361.098 219.467 360.72 219.361 360.233 219.256C359.771 219.156 359.334 219.024 358.924 218.86C358.52 218.696 358.165 218.497 357.86 218.263C357.556 218.028 357.315 217.75 357.14 217.428C356.97 217.105 356.885 216.736 356.885 216.32C356.885 215.916 356.97 215.535 357.14 215.178C357.315 214.814 357.57 214.495 357.904 214.22C358.244 213.938 358.657 213.719 359.144 213.561C359.63 213.396 360.184 213.314 360.805 213.314C361.66 213.314 362.398 213.446 363.02 213.71C363.641 213.968 364.118 214.331 364.452 214.8C364.792 215.263 364.962 215.799 364.962 216.408H362C362 216.168 361.959 215.963 361.877 215.793C361.801 215.623 361.675 215.494 361.499 215.406C361.323 215.312 361.089 215.266 360.796 215.266C360.591 215.266 360.403 215.304 360.233 215.38C360.069 215.456 359.938 215.562 359.838 215.696C359.738 215.831 359.688 215.989 359.688 216.171C359.688 216.3 359.718 216.417 359.776 216.522C359.841 216.622 359.938 216.716 360.066 216.804C360.195 216.886 360.359 216.962 360.559 217.032C360.758 217.097 360.998 217.155 361.279 217.208C361.918 217.325 362.516 217.492 363.072 217.709C363.629 217.926 364.08 218.233 364.426 218.632C364.777 219.03 364.953 219.566 364.953 220.24C364.953 220.662 364.856 221.052 364.663 221.409C364.47 221.761 364.191 222.071 363.828 222.341C363.465 222.604 363.028 222.81 362.519 222.956C362.009 223.103 361.435 223.176 360.796 223.176C359.888 223.176 359.12 223.015 358.493 222.692C357.866 222.364 357.392 221.954 357.069 221.462C356.753 220.964 356.595 220.46 356.595 219.95H359.354C359.366 220.243 359.437 220.483 359.565 220.671C359.7 220.858 359.879 220.996 360.102 221.084C360.324 221.172 360.582 221.216 360.875 221.216C361.145 221.216 361.367 221.178 361.543 221.102C361.725 221.025 361.862 220.923 361.956 220.794C362.05 220.659 362.097 220.504 362.097 220.328ZM371.571 218.983V210.203H374.647V218.983C374.647 219.839 374.451 220.58 374.059 221.207C373.672 221.834 373.145 222.32 372.477 222.666C371.814 223.006 371.07 223.176 370.244 223.176C369.389 223.176 368.627 223.032 367.959 222.745C367.297 222.458 366.775 222.016 366.395 221.418C366.02 220.82 365.832 220.059 365.832 219.133H368.926C368.926 219.566 368.976 219.906 369.075 220.152C369.175 220.393 369.321 220.562 369.515 220.662C369.714 220.756 369.957 220.803 370.244 220.803C370.525 220.803 370.763 220.732 370.956 220.592C371.155 220.445 371.308 220.237 371.413 219.968C371.519 219.692 371.571 219.364 371.571 218.983ZM383.199 219.599C383.199 219.399 383.17 219.221 383.111 219.062C383.053 218.898 382.944 218.746 382.786 218.605C382.628 218.465 382.399 218.324 382.101 218.184C381.808 218.037 381.421 217.885 380.94 217.727C380.378 217.539 379.836 217.328 379.314 217.094C378.793 216.854 378.327 216.575 377.917 216.259C377.507 215.937 377.182 215.562 376.941 215.134C376.701 214.7 376.581 214.196 376.581 213.622C376.581 213.071 376.704 212.576 376.95 212.137C377.196 211.691 377.539 211.313 377.979 211.003C378.424 210.687 378.945 210.446 379.543 210.282C380.141 210.112 380.794 210.027 381.503 210.027C382.44 210.027 383.267 210.191 383.981 210.52C384.702 210.842 385.265 211.302 385.669 211.899C386.079 212.491 386.284 213.191 386.284 214H383.217C383.217 213.678 383.149 213.394 383.015 213.147C382.886 212.901 382.689 212.708 382.426 212.567C382.162 212.427 381.831 212.356 381.433 212.356C381.046 212.356 380.721 212.415 380.457 212.532C380.193 212.649 379.994 212.808 379.859 213.007C379.725 213.2 379.657 213.414 379.657 213.648C379.657 213.842 379.71 214.018 379.815 214.176C379.927 214.328 380.082 214.472 380.281 214.606C380.486 214.741 380.732 214.87 381.02 214.993C381.312 215.116 381.641 215.236 382.004 215.354C382.684 215.57 383.287 215.813 383.814 216.083C384.348 216.347 384.796 216.648 385.159 216.988C385.528 217.322 385.807 217.703 385.994 218.131C386.188 218.559 386.284 219.042 386.284 219.581C386.284 220.155 386.173 220.665 385.95 221.11C385.728 221.556 385.408 221.934 384.992 222.244C384.576 222.549 384.078 222.78 383.498 222.938C382.918 223.097 382.271 223.176 381.556 223.176C380.899 223.176 380.252 223.094 379.613 222.93C378.98 222.76 378.406 222.502 377.891 222.156C377.375 221.805 376.962 221.356 376.651 220.812C376.347 220.261 376.194 219.607 376.194 218.852H379.288C379.288 219.227 379.338 219.543 379.438 219.801C379.537 220.059 379.684 220.267 379.877 220.425C380.07 220.577 380.308 220.688 380.589 220.759C380.87 220.823 381.192 220.855 381.556 220.855C381.948 220.855 382.265 220.8 382.505 220.688C382.745 220.571 382.921 220.419 383.032 220.231C383.144 220.038 383.199 219.827 383.199 219.599Z" fill="white"/>
<rect x="279" y="196" width="130" height="41" rx="3" stroke="#424242" stroke-width="4"/>
<rect x="429" y="196" width="109" height="41" rx="3" fill="#424242"/>
<path d="M463.118 210.203V223H460.042L455.516 215.037V223H452.431V210.203H455.516L460.042 218.166V210.203H463.118ZM464.56 218.342V218.157C464.56 217.46 464.659 216.818 464.858 216.232C465.058 215.641 465.351 215.128 465.737 214.694C466.124 214.261 466.602 213.924 467.17 213.684C467.738 213.438 468.395 213.314 469.139 213.314C469.889 213.314 470.548 213.438 471.116 213.684C471.69 213.924 472.171 214.261 472.558 214.694C472.944 215.128 473.237 215.641 473.437 216.232C473.636 216.818 473.735 217.46 473.735 218.157V218.342C473.735 219.033 473.636 219.675 473.437 220.267C473.237 220.853 472.944 221.365 472.558 221.805C472.171 222.238 471.693 222.575 471.125 222.815C470.557 223.056 469.9 223.176 469.156 223.176C468.412 223.176 467.753 223.056 467.179 222.815C466.604 222.575 466.124 222.238 465.737 221.805C465.351 221.365 465.058 220.853 464.858 220.267C464.659 219.675 464.56 219.033 464.56 218.342ZM467.521 218.157V218.342C467.521 218.699 467.548 219.033 467.601 219.344C467.653 219.654 467.741 219.927 467.864 220.161C467.987 220.39 468.154 220.568 468.365 220.697C468.576 220.826 468.84 220.891 469.156 220.891C469.467 220.891 469.725 220.826 469.93 220.697C470.141 220.568 470.308 220.39 470.431 220.161C470.554 219.927 470.642 219.654 470.694 219.344C470.747 219.033 470.773 218.699 470.773 218.342V218.157C470.773 217.812 470.747 217.486 470.694 217.182C470.642 216.871 470.554 216.599 470.431 216.364C470.308 216.124 470.141 215.937 469.93 215.802C469.719 215.667 469.455 215.6 469.139 215.6C468.828 215.6 468.567 215.667 468.356 215.802C468.151 215.937 467.987 216.124 467.864 216.364C467.741 216.599 467.653 216.871 467.601 217.182C467.548 217.486 467.521 217.812 467.521 218.157ZM480.521 220.82V209.5H483.5V223H480.828L480.521 220.82ZM474.685 218.359V218.175C474.685 217.454 474.764 216.798 474.922 216.206C475.08 215.608 475.314 215.096 475.625 214.668C475.936 214.234 476.322 213.9 476.785 213.666C477.248 213.432 477.781 213.314 478.385 213.314C478.924 213.314 479.396 213.44 479.8 213.692C480.204 213.938 480.55 214.284 480.837 214.729C481.124 215.175 481.358 215.696 481.54 216.294C481.722 216.886 481.859 217.524 481.953 218.21V218.43C481.859 219.074 481.722 219.684 481.54 220.258C481.358 220.826 481.124 221.33 480.837 221.77C480.55 222.209 480.201 222.555 479.791 222.807C479.387 223.053 478.912 223.176 478.367 223.176C477.764 223.176 477.23 223.056 476.768 222.815C476.311 222.575 475.927 222.238 475.616 221.805C475.312 221.371 475.08 220.861 474.922 220.275C474.764 219.689 474.685 219.051 474.685 218.359ZM477.646 218.175V218.359C477.646 218.717 477.67 219.048 477.717 219.353C477.764 219.657 477.843 219.927 477.954 220.161C478.071 220.39 478.224 220.568 478.411 220.697C478.604 220.826 478.842 220.891 479.123 220.891C479.504 220.891 479.817 220.8 480.063 220.618C480.315 220.437 480.5 220.179 480.617 219.845C480.74 219.511 480.793 219.118 480.775 218.667V217.973C480.787 217.586 480.761 217.246 480.696 216.953C480.632 216.654 480.529 216.405 480.389 216.206C480.254 216.007 480.081 215.857 479.87 215.758C479.665 215.652 479.422 215.6 479.141 215.6C478.865 215.6 478.631 215.664 478.438 215.793C478.25 215.922 478.098 216.104 477.98 216.338C477.863 216.566 477.778 216.839 477.726 217.155C477.673 217.466 477.646 217.806 477.646 218.175ZM489.784 223.176C489.011 223.176 488.319 223.056 487.71 222.815C487.101 222.569 486.585 222.232 486.163 221.805C485.747 221.377 485.428 220.885 485.205 220.328C484.988 219.771 484.88 219.183 484.88 218.562V218.228C484.88 217.53 484.977 216.886 485.17 216.294C485.363 215.696 485.65 215.175 486.031 214.729C486.412 214.284 486.89 213.938 487.464 213.692C488.038 213.44 488.706 213.314 489.468 213.314C490.142 213.314 490.745 213.423 491.278 213.64C491.812 213.856 492.263 214.167 492.632 214.571C493.007 214.976 493.291 215.465 493.484 216.039C493.684 216.613 493.783 217.258 493.783 217.973V219.177H486.014V217.322H490.892V217.094C490.897 216.777 490.842 216.508 490.725 216.285C490.613 216.062 490.449 215.893 490.232 215.775C490.016 215.658 489.752 215.6 489.441 215.6C489.119 215.6 488.853 215.67 488.642 215.811C488.437 215.951 488.275 216.145 488.158 216.391C488.047 216.631 487.968 216.909 487.921 217.226C487.874 217.542 487.851 217.876 487.851 218.228V218.562C487.851 218.913 487.897 219.232 487.991 219.52C488.091 219.807 488.231 220.053 488.413 220.258C488.601 220.457 488.823 220.612 489.081 220.724C489.345 220.835 489.644 220.891 489.978 220.891C490.382 220.891 490.78 220.814 491.173 220.662C491.565 220.51 491.902 220.258 492.184 219.906L493.528 221.506C493.335 221.781 493.06 222.048 492.702 222.306C492.351 222.563 491.929 222.774 491.437 222.938C490.944 223.097 490.394 223.176 489.784 223.176ZM500.217 218.983V210.203H503.293V218.983C503.293 219.839 503.097 220.58 502.704 221.207C502.317 221.834 501.79 222.32 501.122 222.666C500.46 223.006 499.716 223.176 498.89 223.176C498.034 223.176 497.272 223.032 496.604 222.745C495.942 222.458 495.421 222.016 495.04 221.418C494.665 220.82 494.478 220.059 494.478 219.133H497.571C497.571 219.566 497.621 219.906 497.721 220.152C497.82 220.393 497.967 220.562 498.16 220.662C498.359 220.756 498.603 220.803 498.89 220.803C499.171 220.803 499.408 220.732 499.602 220.592C499.801 220.445 499.953 220.237 500.059 219.968C500.164 219.692 500.217 219.364 500.217 218.983ZM511.845 219.599C511.845 219.399 511.815 219.221 511.757 219.062C511.698 218.898 511.59 218.746 511.432 218.605C511.273 218.465 511.045 218.324 510.746 218.184C510.453 218.037 510.066 217.885 509.586 217.727C509.023 217.539 508.481 217.328 507.96 217.094C507.438 216.854 506.973 216.575 506.562 216.259C506.152 215.937 505.827 215.562 505.587 215.134C505.347 214.7 505.227 214.196 505.227 213.622C505.227 213.071 505.35 212.576 505.596 212.137C505.842 211.691 506.185 211.313 506.624 211.003C507.069 210.687 507.591 210.446 508.188 210.282C508.786 210.112 509.439 210.027 510.148 210.027C511.086 210.027 511.912 210.191 512.627 210.52C513.348 210.842 513.91 211.302 514.314 211.899C514.725 212.491 514.93 213.191 514.93 214H511.862C511.862 213.678 511.795 213.394 511.66 213.147C511.531 212.901 511.335 212.708 511.071 212.567C510.808 212.427 510.477 212.356 510.078 212.356C509.691 212.356 509.366 212.415 509.103 212.532C508.839 212.649 508.64 212.808 508.505 213.007C508.37 213.2 508.303 213.414 508.303 213.648C508.303 213.842 508.355 214.018 508.461 214.176C508.572 214.328 508.728 214.472 508.927 214.606C509.132 214.741 509.378 214.87 509.665 214.993C509.958 215.116 510.286 215.236 510.649 215.354C511.329 215.57 511.933 215.813 512.46 216.083C512.993 216.347 513.441 216.648 513.805 216.988C514.174 217.322 514.452 217.703 514.64 218.131C514.833 218.559 514.93 219.042 514.93 219.581C514.93 220.155 514.818 220.665 514.596 221.11C514.373 221.556 514.054 221.934 513.638 222.244C513.222 222.549 512.724 222.78 512.144 222.938C511.563 223.097 510.916 223.176 510.201 223.176C509.545 223.176 508.897 223.094 508.259 222.93C507.626 222.76 507.052 222.502 506.536 222.156C506.021 221.805 505.607 221.356 505.297 220.812C504.992 220.261 504.84 219.607 504.84 218.852H507.934C507.934 219.227 507.983 219.543 508.083 219.801C508.183 220.059 508.329 220.267 508.522 220.425C508.716 220.577 508.953 220.688 509.234 220.759C509.516 220.823 509.838 220.855 510.201 220.855C510.594 220.855 510.91 220.8 511.15 220.688C511.391 220.571 511.566 220.419 511.678 220.231C511.789 220.038 511.845 219.827 511.845 219.599Z" fill="white"/>
<rect x="429" y="196" width="109" height="41" rx="3" stroke="#424242" stroke-width="4"/>
<rect x="558" y="196" width="91" height="41" rx="3" fill="#424242"/>
<path d="M581.141 210.203H586.177C587.161 210.203 588.017 210.35 588.743 210.643C589.47 210.936 590.029 211.369 590.422 211.943C590.82 212.518 591.02 213.227 591.02 214.07C591.02 214.803 590.905 215.415 590.677 215.907C590.448 216.399 590.129 216.807 589.719 217.129C589.314 217.445 588.843 217.706 588.304 217.911L587.293 218.482H583.065L583.048 216.101H586.177C586.569 216.101 586.895 216.03 587.152 215.89C587.41 215.749 587.604 215.55 587.732 215.292C587.867 215.028 587.935 214.715 587.935 214.352C587.935 213.982 587.867 213.666 587.732 213.402C587.598 213.139 587.398 212.937 587.135 212.796C586.877 212.655 586.558 212.585 586.177 212.585H584.226V223H581.141V210.203ZM588.146 223L585.315 217.34L588.585 217.322L591.45 222.868V223H588.146ZM597.348 223.176C596.574 223.176 595.883 223.056 595.273 222.815C594.664 222.569 594.148 222.232 593.727 221.805C593.311 221.377 592.991 220.885 592.769 220.328C592.552 219.771 592.443 219.183 592.443 218.562V218.228C592.443 217.53 592.54 216.886 592.733 216.294C592.927 215.696 593.214 215.175 593.595 214.729C593.976 214.284 594.453 213.938 595.027 213.692C595.602 213.44 596.27 213.314 597.031 213.314C597.705 213.314 598.309 213.423 598.842 213.64C599.375 213.856 599.826 214.167 600.195 214.571C600.57 214.976 600.854 215.465 601.048 216.039C601.247 216.613 601.347 217.258 601.347 217.973V219.177H593.577V217.322H598.455V217.094C598.461 216.777 598.405 216.508 598.288 216.285C598.177 216.062 598.013 215.893 597.796 215.775C597.579 215.658 597.315 215.6 597.005 215.6C596.683 215.6 596.416 215.67 596.205 215.811C596 215.951 595.839 216.145 595.722 216.391C595.61 216.631 595.531 216.909 595.484 217.226C595.438 217.542 595.414 217.876 595.414 218.228V218.562C595.414 218.913 595.461 219.232 595.555 219.52C595.654 219.807 595.795 220.053 595.977 220.258C596.164 220.457 596.387 220.612 596.645 220.724C596.908 220.835 597.207 220.891 597.541 220.891C597.945 220.891 598.344 220.814 598.736 220.662C599.129 220.51 599.466 220.258 599.747 219.906L601.092 221.506C600.898 221.781 600.623 222.048 600.266 222.306C599.914 222.563 599.492 222.774 599 222.938C598.508 223.097 597.957 223.176 597.348 223.176ZM607.49 220.609V216.689C607.49 216.42 607.452 216.188 607.376 215.995C607.3 215.802 607.18 215.652 607.016 215.547C606.852 215.436 606.632 215.38 606.356 215.38C606.134 215.38 605.943 215.418 605.785 215.494C605.627 215.57 605.507 215.685 605.425 215.837C605.343 215.989 605.302 216.183 605.302 216.417H602.34C602.34 215.978 602.437 215.57 602.63 215.195C602.829 214.814 603.11 214.483 603.474 214.202C603.843 213.921 604.282 213.704 604.792 213.552C605.308 213.394 605.882 213.314 606.515 213.314C607.271 213.314 607.944 213.44 608.536 213.692C609.134 213.944 609.605 214.322 609.951 214.826C610.297 215.324 610.47 215.951 610.47 216.707V220.601C610.47 221.222 610.505 221.693 610.575 222.016C610.646 222.332 610.745 222.61 610.874 222.851V223H607.903C607.763 222.707 607.657 222.35 607.587 221.928C607.522 221.5 607.49 221.061 607.49 220.609ZM607.851 217.19L607.868 218.772H606.559C606.283 218.772 606.049 218.811 605.855 218.887C605.668 218.963 605.516 219.068 605.398 219.203C605.287 219.332 605.205 219.479 605.152 219.643C605.105 219.807 605.082 219.979 605.082 220.161C605.082 220.337 605.123 220.495 605.205 220.636C605.293 220.771 605.41 220.876 605.557 220.952C605.703 221.028 605.867 221.066 606.049 221.066C606.377 221.066 606.655 221.005 606.884 220.882C607.118 220.753 607.297 220.598 607.42 220.416C607.543 220.234 607.604 220.064 607.604 219.906L608.255 221.119C608.138 221.354 608.003 221.591 607.851 221.831C607.704 222.071 607.52 222.294 607.297 222.499C607.08 222.698 606.813 222.862 606.497 222.991C606.181 223.114 605.797 223.176 605.346 223.176C604.76 223.176 604.221 223.056 603.729 222.815C603.242 222.575 602.853 222.241 602.56 221.813C602.267 221.38 602.12 220.882 602.12 220.319C602.12 219.827 602.208 219.388 602.384 219.001C602.565 218.614 602.838 218.286 603.201 218.017C603.564 217.747 604.027 217.542 604.59 217.401C605.152 217.261 605.814 217.19 606.576 217.19H607.851ZM616.13 220.891C616.405 220.891 616.64 220.841 616.833 220.741C617.032 220.636 617.182 220.489 617.281 220.302C617.387 220.108 617.437 219.877 617.431 219.607H620.217C620.223 220.322 620.047 220.949 619.689 221.488C619.338 222.021 618.857 222.438 618.248 222.736C617.645 223.029 616.962 223.176 616.2 223.176C615.456 223.176 614.806 223.056 614.249 222.815C613.692 222.569 613.227 222.229 612.852 221.796C612.482 221.356 612.204 220.844 612.017 220.258C611.835 219.672 611.744 219.036 611.744 218.351V218.148C611.744 217.463 611.835 216.827 612.017 216.241C612.204 215.649 612.482 215.137 612.852 214.703C613.227 214.264 613.689 213.924 614.24 213.684C614.797 213.438 615.444 213.314 616.183 213.314C616.974 213.314 617.671 213.464 618.274 213.763C618.884 214.062 619.361 214.495 619.707 215.063C620.053 215.632 620.223 216.32 620.217 217.129H617.431C617.437 216.842 617.393 216.584 617.299 216.355C617.205 216.127 617.059 215.945 616.859 215.811C616.666 215.67 616.417 215.6 616.112 215.6C615.808 215.6 615.562 215.667 615.374 215.802C615.187 215.937 615.043 216.124 614.943 216.364C614.85 216.599 614.785 216.868 614.75 217.173C614.721 217.478 614.706 217.803 614.706 218.148V218.351C614.706 218.702 614.721 219.033 614.75 219.344C614.785 219.648 614.853 219.918 614.952 220.152C615.052 220.381 615.195 220.562 615.383 220.697C615.57 220.826 615.819 220.891 616.13 220.891ZM626.492 213.49V215.547H620.762V213.49H626.492ZM621.966 211.126H624.928V219.897C624.928 220.149 624.957 220.346 625.016 220.486C625.074 220.621 625.174 220.718 625.314 220.776C625.461 220.829 625.654 220.855 625.895 220.855C626.064 220.855 626.205 220.853 626.316 220.847C626.428 220.835 626.533 220.82 626.633 220.803V222.921C626.381 223.003 626.117 223.064 625.842 223.105C625.566 223.152 625.273 223.176 624.963 223.176C624.33 223.176 623.788 223.076 623.337 222.877C622.892 222.678 622.552 222.364 622.317 221.937C622.083 221.509 621.966 220.952 621.966 220.267V211.126Z" fill="white"/>
<rect x="558" y="196" width="91" height="41" rx="3" stroke="#424242" stroke-width="4"/>
<rect x="669" y="196" width="76" height="41" rx="3" fill="#424242"/>
<path d="M699.731 218.667H702.808C702.767 219.558 702.526 220.343 702.087 221.022C701.647 221.702 701.038 222.232 700.259 222.613C699.485 222.988 698.571 223.176 697.517 223.176C696.661 223.176 695.896 223.032 695.223 222.745C694.555 222.458 693.986 222.045 693.518 221.506C693.055 220.967 692.7 220.313 692.454 219.546C692.214 218.778 692.094 217.914 692.094 216.953V216.259C692.094 215.298 692.22 214.434 692.472 213.666C692.729 212.893 693.093 212.236 693.562 211.697C694.036 211.152 694.604 210.736 695.267 210.449C695.929 210.162 696.664 210.019 697.473 210.019C698.586 210.019 699.526 210.218 700.294 210.616C701.062 211.015 701.656 211.562 702.078 212.26C702.5 212.951 702.749 213.739 702.825 214.624H699.749C699.737 214.144 699.655 213.742 699.503 213.42C699.351 213.092 699.11 212.846 698.782 212.682C698.454 212.518 698.018 212.436 697.473 212.436C697.092 212.436 696.761 212.506 696.479 212.646C696.198 212.787 695.964 213.01 695.776 213.314C695.589 213.619 695.448 214.015 695.354 214.501C695.267 214.981 695.223 215.562 695.223 216.241V216.953C695.223 217.633 695.264 218.213 695.346 218.693C695.428 219.174 695.56 219.566 695.741 219.871C695.923 220.176 696.157 220.401 696.444 220.548C696.737 220.688 697.095 220.759 697.517 220.759C697.985 220.759 698.381 220.686 698.703 220.539C699.025 220.387 699.274 220.158 699.45 219.854C699.626 219.543 699.72 219.147 699.731 218.667ZM712.458 215.74V218.28H703.687V215.74H712.458ZM709.47 212.4V221.717H706.701V212.4H709.47ZM722.073 215.74V218.28H713.302V215.74H722.073ZM719.085 212.4V221.717H716.316V212.4H719.085Z" fill="white"/>
<rect x="669" y="196" width="76" height="41" rx="3" stroke="#424242" stroke-width="4"/>
<path d="M1066 0H1348C1356.28 0 1363 6.71573 1363 15V282C1363 290.284 1356.28 297 1348 297H1066V0Z" fill="#38D13E"/>
<mask id="mask0_3_61" style="mask-type:alpha" maskUnits="userSpaceOnUse" x="1110" y="44" width="150" height="150">
<rect x="1110" y="44" width="150" height="150" fill="#D9D9D9"/>
</mask>
<g mask="url(#mask0_3_61)">
<path d="M1344.36 313.469H1236.35C1237.74 310.618 1239.31 307.17 1240.96 303.18C1241.19 302.997 1241.42 302.8 1241.63 302.576C1244.18 299.862 1247.04 296.073 1250.35 291.682C1257.05 282.807 1265.32 271.867 1274.45 265.329C1303.29 265.038 1324.66 257.682 1337.98 243.442C1354.21 226.077 1353.67 203.545 1353.46 195.064L1353.43 193.169C1353.43 189.85 1350.85 187.155 1347.66 187.155L1346.51 187.136C1313.16 186.372 1294.8 197.819 1285.21 207.593C1273.66 219.361 1267.54 235.682 1266.96 256.119C1261.05 260.533 1255.68 266.204 1250.85 272.001C1257.66 242.019 1259.08 202.064 1238.07 161.397C1237.89 139.457 1231.76 122.171 1219.83 110.038C1210.83 100.889 1193.8 90.2483 1164.02 90.9039L1163.09 90.9222C1159.9 90.9222 1157.33 93.6169 1157.33 96.9369L1157.3 98.2965C1157.14 106.279 1156.62 130.549 1173.73 148.557C1185.96 161.416 1204.41 168.073 1228.57 168.394C1262.2 235.057 1230.86 299.627 1223.27 313.47H1131.76C1123.58 313.47 1116.92 320.411 1116.92 328.946V334.083C1116.92 342.618 1123.58 349.559 1131.76 349.559H1141.43L1170 390.336C1171.51 391.647 1182.04 390.336 1189.53 390.336C1191.98 390.336 1194.75 388.352 1197.67 386.252C1203.43 386.252 1215.64 391.533 1218.43 390.336C1229.97 390.336 1232.12 384.448 1241.63 394.372L1258.82 400.232C1260.74 402.613 1271.87 420.334 1276.12 420.154C1281.82 419.901 1302.23 430.913 1305.17 428.357L1318.82 449.45C1323.43 449.45 1321.24 448.708 1328.05 452.966L1323.43 421.325L1325.25 403.735L1343.59 349.558H1344.36C1352.54 349.558 1359.2 342.617 1359.2 334.082V328.945C1359.2 320.41 1352.54 313.469 1344.36 313.469ZM1293.28 216.194C1300.88 208.441 1315.43 199.406 1341.99 199.13C1341.99 208.056 1340.79 223.201 1329.72 235.045C1320.52 244.878 1306.15 250.778 1286.91 252.655C1294.49 245.184 1303.84 237.149 1309.4 234.855C1312.37 233.634 1313.82 230.139 1312.65 227.048C1311.48 223.956 1308.1 222.465 1305.17 223.667C1298 226.625 1287.96 235.183 1279.93 243.012C1282.07 232.059 1286.53 223.069 1293.28 216.194ZM1168.8 102.909C1191.79 103.318 1204.8 111.559 1211.77 118.644C1218.15 125.139 1222.48 133.654 1224.73 144.06C1217.4 136.354 1209.52 129.963 1200.64 124.485C1197.91 122.801 1194.36 123.751 1192.74 126.602C1191.12 129.459 1192.03 133.152 1194.77 134.843C1204.02 140.547 1212.1 147.382 1219.61 155.899C1203.1 154.34 1190.45 149.048 1181.93 140.087C1170.51 128.076 1168.93 111.848 1168.8 102.909ZM1347.67 334.083C1347.67 335.984 1346.18 337.529 1344.36 337.529H1131.76C1129.94 337.529 1128.46 335.984 1128.46 334.083V328.946C1128.46 327.045 1129.94 325.499 1131.76 325.499H1344.36C1346.18 325.499 1347.67 327.045 1347.67 328.946V334.083Z" fill="white"/>
</g>
<circle cx="1246" cy="198" r="8" fill="#38D13E" stroke="white" stroke-width="4"/>
</svg>
